<?xml version="1.0" standalone="no"?>
<!DOCTYPE svg PUBLIC "-//W3C//DTD SVG 1.1//EN" "http://www.w3.org/Graphics/SVG/1.1/DTD/svg11.dtd" >
<svg xmlns="http://www.w3.org/2000/svg">
<metadata>
Designer    : Lucas de Groot
Foundry     : LucasFonts
Foundry URL : http://www.lucasfonts.com
</metadata>
<defs>
<font id="Sun_LT_7_" horiz-adv-x="1000" >
<font-face units-per-em="2000" ascent="1600" descent="-400" />
<missing-glyph horiz-adv-x="480" />
<glyph horiz-adv-x="0" />
<glyph horiz-adv-x="0" />
<glyph unicode="&#xd;" horiz-adv-x="0" />
<glyph unicode=" "  horiz-adv-x="480" />
<glyph unicode="&#x09;" horiz-adv-x="480" />
<glyph unicode="&#xa0;" horiz-adv-x="480" />
<glyph unicode="!" horiz-adv-x="718" d="M242 120q0 76 32 107t126 31t126 -30t32 -106q0 -78 -32 -108t-126 -30t-126 30t-32 106zM242 1350h314l-42 -996h-228z" />
<glyph unicode="&#x22;" horiz-adv-x="932" d="M136 1350h250l-26 -522h-196zM542 1350h248l-26 -522h-196z" />
<glyph unicode="#" horiz-adv-x="1028" d="M52 402v158h150l32 286h-182v156h200l40 348h192l-40 -348h210l40 348h190l-40 -348h132v-156h-150l-32 -286h182v-158h-200l-44 -402h-192l46 402h-210l-46 -402h-190l44 402h-132zM392 560h210l34 286h-210z" />
<glyph unicode="$" d="M74 120l72 138q58 -30 133 -50t145 -20q114 0 167 49t53 119q0 60 -41 98t-102 69t-133 62t-133 76t-102 112t-41 169q0 132 79 223t223 117l16 212h150l18 -204q78 -8 150 -35t126 -69l-70 -132q-50 26 -113 43t-133 17q-90 0 -135 -45t-45 -105q0 -64 42 -103t105 -71 t136 -62t136 -75t105 -110t42 -167q0 -138 -88 -239t-258 -127l-18 -224h-150l-16 220q-102 8 -179 38t-141 76z" />
<glyph unicode="%" horiz-adv-x="1410" d="M94 1050q0 170 78 246t232 76q162 0 226 -77t64 -245q0 -164 -77 -241t-233 -77q-82 0 -138 18t-90 56t-48 99t-14 145zM140 34l998 1358l132 -76l-998 -1358zM284 1052q0 -102 29 -142t81 -40q56 0 82 42t26 136q0 98 -27 142t-83 44q-48 0 -78 -38t-30 -144zM716 296 q0 170 79 246t231 76q164 0 227 -78t63 -244q0 -164 -77 -241t-233 -77q-82 0 -138 18t-90 56t-48 99t-14 145zM908 298q0 -102 28 -142t80 -40q56 0 82 42t26 136q0 98 -26 142t-82 44q-50 0 -79 -38t-29 -144z" />
<glyph unicode="&#x26;" horiz-adv-x="1362" d="M78 342q0 68 18 123t50 100t76 84t94 73q-66 92 -105 172t-39 162q0 68 24 126t73 100t123 65t172 23q162 0 255 -68t93 -194q0 -68 -22 -122t-60 -101t-92 -87l-116 -82q60 -76 132 -151l142 -143q42 76 65 165t21 181h244q0 -144 -44 -275t-114 -227q118 -102 168 -102 h58v-156v0q-22 -10 -52 -19t-88 -9q-46 0 -106 33t-144 97q-86 -64 -189 -97t-211 -33q-114 0 -195 28t-132 77t-75 115t-24 142zM324 368q0 -104 59 -156t159 -52q62 0 115 23t93 57q-84 74 -166 160t-152 174q-46 -42 -77 -90t-31 -116zM414 1080q0 -88 98 -222 q46 34 78 63t51 57t27 55t8 59q0 52 -31 86t-97 34t-100 -36t-34 -96z" />
<glyph unicode="'" horiz-adv-x="640" d="M210 1350h238l-26 -522h-186z" />
<glyph unicode="(" horiz-adv-x="620" d="M112 536q0 266 76 496t192 412l174 -56q-88 -160 -148 -376t-60 -464q0 -130 17 -250t46 -227t66 -200t79 -171l-174 -56q-120 182 -194 407t-74 485z" />
<glyph unicode=")" horiz-adv-x="620" d="M66 -298q88 160 148 376t60 464q0 130 -17 250t-46 227t-66 200t-79 171l174 56q120 -182 194 -407t74 -485q0 -266 -76 -496t-192 -412z" />
<glyph unicode="*" d="M86 922l264 108l-264 106l116 202l224 -178l-40 282h232l-40 -282l224 178l116 -202l-264 -106l264 -108l-116 -200l-224 176l40 -282h-232l40 282l-224 -176z" />
<glyph unicode="+" d="M74 508v182h318v344h216v-344h316v-182h-316v-352h-216v352h-318z" />
<glyph unicode="," horiz-adv-x="606" d="M74 -228q84 66 113 111t29 79q0 22 -10 35t-23 27t-23 35t-10 61q0 48 6 79t23 49t47 26t80 8q46 0 74 -9t44 -28t21 -50t5 -73q0 -138 -65 -244t-211 -206z" />
<glyph unicode="-" horiz-adv-x="474" d="M52 478v190h420v-190h-420z" />
<glyph unicode="." horiz-adv-x="580" d="M148 128q0 90 30 122t124 32q46 0 75 -7t45 -25t22 -47t6 -73q0 -88 -29 -120t-121 -32q-46 0 -76 7t-47 24t-23 46t-6 73z" />
<glyph unicode="/" d="M0 -208l756 1626h228l-756 -1626h-228z" />
<glyph unicode="0" d="M64 662q0 198 27.5 333.5t83 219.5t139 120.5t194.5 36.5q109 0 189 -31.5t132.5 -109.5t78.5 -209t26 -330q0 -203 -29.5 -340t-86.5 -220t-140 -118.5t-190 -35.5q-110 0 -190 33t-132 112.5t-77 210.5t-25 328zM326 686q0 -152 9.5 -250.5t30.5 -157t54 -81.5t80 -23 q46 0 79 23.5t54 81t31 153.5t10 242q0 148 -10 246t-31 155.5t-54 81t-79 23.5q-47 0 -80 -23t-54 -79.5t-30.5 -151.5t-9.5 -240z" />
<glyph unicode="1" d="M94 1174l366 176h214v-1118h242v-232h-794v232h272v856l-238 -88z" />
<glyph unicode="2" d="M72 0v222l180 195t132.5 157t92 125.5t57.5 101.5t29.5 84.5t8.5 74.5q0 55 -14.5 92t-40 58.5t-59.5 30.5t-74 9q-65 0 -132.5 -18.5t-133.5 -41.5l-46 176q49 24 96.5 43.5t98 33.5t106 21.5t121.5 7.5q76 0 146.5 -19.5t124 -63.5t85.5 -114.5t32 -172.5 q0 -53 -10 -105.5t-33.5 -107t-61.5 -113.5t-94 -126.5t-131.5 -146t-173.5 -171.5h540v-232h-846z" />
<glyph unicode="3" d="M48 70l18 150q92 -20 164.5 -29t129.5 -9q75 0 123.5 15t77 43t40 68.5t11.5 91.5q0 49 -11.5 87.5t-38 65.5t-70.5 41t-108 14h-158v198h152q108 0 156 47.5t48 148.5q0 81 -41.5 122.5t-146.5 41.5q-31 0 -65.5 -4t-70 -11t-70.5 -16.5t-66 -20.5l-34 172 q40 16 84.5 31.5t93.5 27.5t103 19.5t113 7.5q103 0 176.5 -25.5t120.5 -71.5t69 -110t22 -141q0 -60 -14.5 -108t-40.5 -85t-62.5 -63t-80.5 -42q59 -8 104 -37t75 -71t45.5 -94.5t15.5 -107.5q0 -117 -33.5 -200t-95.5 -136t-151 -77.5t-200 -24.5q-80 0 -177.5 22 t-206.5 70z" />
<glyph unicode="4" d="M38 298v206l93 209l103 217l108.5 215.5l111.5 204.5h370v-826h132v-226h-132v-298h-260v298h-526zM262 524h302v608l-77.5 -146l-78.5 -152.5l-76 -155.5z" />
<glyph unicode="5" d="M46 68l20 144q97 -15 175.5 -24.5t140.5 -9.5q70 0 117.5 12t76.5 39t41.5 69.5t12.5 103.5q0 55 -12 99t-39.5 74.5t-72.5 46.5t-110 16q-69 0 -137 -8t-155 -24l14 226l32 518h222h446v-220h-460l-20 -298q30 6 68 9t80 3q108 0 188.5 -28.5t133.5 -82.5t79.5 -132.5 t26.5 -178.5q0 -225 -124 -334.5t-352 -109.5q-78 0 -174.5 21t-217.5 69z" />
<glyph unicode="6" d="M82 652q0 206 37.5 344t103 221t153 118t188.5 35q75 0 155 -18.5t173 -61.5l-24 -148q-68 15 -136 24.5t-134 9.5q-57 0 -103.5 -24.5t-81 -77t-55 -135t-24.5 -197.5q36 20 69 36t65 26.5t64.5 16t67.5 5.5q88 0 152 -25.5t104.5 -74t60 -119t19.5 -159.5 q0 -105 -29.5 -191.5t-84.5 -148t-133 -95t-175 -33.5q-69 0 -128.5 11.5t-107.5 40t-84.5 77t-61.5 123t-37.5 178t-12.5 242.5zM342 560q0 -109 11.5 -183.5t34.5 -120.5t57 -66t79 -20q76 0 116 59t40 191q0 110 -36 158t-122 48q-44 0 -84 -13t-96 -43v-10z" />
<glyph unicode="7" d="M68 1130v220h874v-202l-262 -554q-83 -178 -171.5 -333.5t-174.5 -282.5l-178 64l478 1088h-566z" />
<glyph unicode="8" d="M60 332q0 59 16.5 108.5t46.5 91t72.5 76t94.5 64.5q-97 59 -150.5 142t-53.5 202q0 77 26.5 142.5t79 113t132 74t186.5 26.5q109 0 185.5 -23.5t124.5 -67t70 -105.5t22 -138q0 -111 -56.5 -188t-161.5 -138q60 -31 105.5 -65.5t76.5 -77t46.5 -95.5t15.5 -120 q0 -80 -25.5 -149t-81 -119.5t-142.5 -79t-209 -28.5q-113 0 -193 25.5t-130.5 72t-73.5 111.5t-23 145zM312 354q0 -90 47.5 -141t146.5 -51q43 0 76.5 12.5t57 35t36 53.5t12.5 69q0 43 -14.5 77.5t-42.5 63t-69 53.5t-94 50q-80 -51 -118 -104t-38 -118zM336 1032 q0 -74 39.5 -126.5t124.5 -97.5q85 48 124.5 95t39.5 107q0 94 -39.5 139t-132.5 45q-74 0 -115 -43.5t-41 -118.5z" />
<glyph unicode="9" d="M66 906q0 105 29.5 191t84 147t132 94.5t174.5 33.5q69 0 128.5 -11.5t107.5 -40t85 -77t62 -123t38 -178.5t13 -242q0 -208 -38.5 -346.5t-105 -222t-155.5 -118.5t-189 -35q-38 0 -77 3.5t-82.5 13t-91.5 25.5t-103 42l20 144q93 -17 164 -25.5t136 -8.5 q57 0 104.5 23.5t82.5 76t56 136.5t25 204q-71 -42 -133 -64t-133 -22q-88 0 -151 25.5t-103.5 74.5t-60 119.5t-19.5 160.5zM320 934q0 -111 37 -159.5t121 -48.5q45 0 86.5 13t95.5 43v10q0 108 -11.5 182.5t-34.5 120.5t-57 66.5t-79 20.5q-78 0 -118 -59t-40 -189z" />
<glyph unicode=":" horiz-adv-x="612" d="M186 126q0 78 35 108t111 30t111 -29t35 -107q0 -80 -35 -108t-113 -28q-76 0 -110 28t-34 106zM186 872q0 78 35 108t111 30t111 -29t35 -107q0 -80 -35 -109t-113 -29q-76 0 -110 29t-34 107z" />
<glyph unicode=";" horiz-adv-x="612" d="M96 -240q86 62 122 112t36 98q0 22 -12 33l-25 23t-25 32t-12 60q0 80 35 110t115 30q76 0 110 -29t34 -111q0 -120 -66 -230t-212 -212zM180 872q0 78 36 108t112 30t111 -29t35 -107q0 -80 -35 -109t-111 -29t-112 29t-36 107z" />
<glyph unicode="&#x3c;" d="M70 512v174l766 390l80 -186l-590 -290l590 -288l-80 -192z" />
<glyph unicode="=" d="M90 320v178h820v-178h-820zM90 698v180h820v-180h-820z" />
<glyph unicode="&#x3e;" d="M84 308l590 288l-590 288l80 192l766 -390v-174l-766 -392z" />
<glyph unicode="?" d="M122 1274q88 46 183 71t193 25q200 0 297 -88t97 -244q0 -74 -22 -128t-55 -96t-72 -77t-73 -72t-58 -82t-26 -107l-4 -122h-224l-8 120q-6 76 11 131t45 98t62 77t64 68t50 70t20 84q0 70 -44 115t-138 45q-58 0 -117 -12t-111 -32zM312 120q0 76 33 107t127 31 q92 0 123 -30t31 -108t-31 -107t-125 -29t-126 29t-32 107z" />
<glyph unicode="@" horiz-adv-x="2032" d="M116 434q0 210 71 391t205 316t324 212t430 77q186 0 321 -47t224 -130t131 -196t42 -247q0 -148 -41 -272t-122 -214t-200 -141t-273 -51h-116l-8 164q-70 -86 -138 -130t-146 -44q-132 0 -192 95t-60 251q0 134 37 236t103 169t159 101t207 34q82 0 162 -11t148 -35 l-72 -642q74 0 131 34t95 93t57 140t19 177q0 102 -28 190t-89 154t-158 103t-235 37q-186 0 -325 -68t-232 -178t-139 -248t-46 -276q0 -148 39 -267t115 -201t190 -126t264 -44q58 0 123 8t130 21t127 31t116 40l42 -152q-128 -60 -280 -97t-304 -37q-388 0 -598 197 t-210 583zM802 506q0 -102 22 -145t70 -43q44 0 88 36t106 122l40 342v0q-18 4 -42 7t-52 3q-108 0 -170 -82t-62 -240z" />
<glyph unicode="A" horiz-adv-x="1148" d="M20 0q76 340 171 681t203 669h354q118 -348 209 -678t173 -672h-292l-28 132t-30 134h-446q-14 -58 -29 -127t-27 -139h-258zM376 468h360v0l-89 322t-97 322q-22 -72 -44 -153l-45 -165l-45 -167t-40 -159z" />
<glyph unicode="B" horiz-adv-x="1158" d="M148 0v1350h444q108 0 185 -23t127 -65t74 -101t24 -129q0 -112 -49 -182t-129 -108q108 -20 178 -104t70 -208q0 -90 -32 -169t-100 -138t-174 -93t-254 -34q-84 0 -176 2t-188 2zM412 196q22 -4 63 -6t75 -2q128 0 183 61t55 161q0 42 -13 80t-43 66t-78 44t-118 16 h-124v-420zM412 800h102q60 0 101 16t67 43t37 62t11 71q0 74 -44 122t-144 48h-130v-362z" />
<glyph unicode="C" horiz-adv-x="1036" d="M82 650q0 356 139 539t383 183q118 0 214 -52t158 -168l-124 -120q-84 124 -214 124q-72 0 -123 -37t-85 -100t-50 -148t-16 -183q0 -134 18 -228t54 -152t87 -85t117 -27q70 0 130 32t118 96l112 -138v0q-70 -100 -175 -154t-231 -54q-512 0 -512 672z" />
<glyph unicode="D" horiz-adv-x="1190" d="M148 0v1350q102 0 194 2t186 2q160 0 271 -49t180 -136t100 -204t31 -253q0 -170 -38 -303t-117 -225t-200 -141t-287 -49q-80 0 -162 2zM418 204q24 -2 48 -3t46 -1q162 0 238 123t76 359q0 230 -74 350t-242 120q-44 0 -92 -2v-946z" />
<glyph unicode="E" horiz-adv-x="948" d="M148 0v1350h700v-206h-430v-356h356v-198h-356v-382h438v-208h-708z" />
<glyph unicode="F" horiz-adv-x="908" d="M148 0v1350h690v-206h-420v-372h378v-202h-378v-570h-270z" />
<glyph unicode="G" horiz-adv-x="1152" d="M82 648q0 180 41 316t114 227t175 136t224 45q126 0 224 -56t160 -146l-118 -112q-64 48 -123 74t-129 26q-134 0 -210 -112t-76 -354q0 -138 17 -233t50 -154t79 -85t104 -26q52 0 90 14t60 30v340h-160v198h426v-638v0q-84 -70 -197 -115t-263 -45q-238 0 -363 165 t-125 505z" />
<glyph unicode="H" horiz-adv-x="1316" d="M148 0v1350h270v-524h480v524h270v-1350h-270v600h-480v-600h-270z" />
<glyph unicode="I" horiz-adv-x="566" d="M148 0v1350h270v-1350h-270z" />
<glyph unicode="J" horiz-adv-x="576" d="M44 -242q36 44 59 89t35 94t16 105t4 120v1184h270v-1208v0q0 -156 -57 -278t-195 -214z" />
<glyph unicode="K" horiz-adv-x="1088" d="M148 0v1350h270v-570l322 570h290l-378 -602l408 -748h-308l-334 620v-620h-270z" />
<glyph unicode="L" horiz-adv-x="842" d="M148 0v1350h270v-1146h392v-204h-662z" />
<glyph unicode="M" horiz-adv-x="1696" d="M120 0q10 338 33 676t63 674h356l280 -910h2l284 910h336q40 -336 66 -674t38 -676h-284q-4 274 -19 534t-35 470h-2l-296 -1004h-228l-296 1004h-2q-18 -224 -28 -477t-14 -527h-254z" />
<glyph unicode="N" horiz-adv-x="1300" d="M148 0v1350h330l450 -842v842h224v-1350h-284l-496 962v-962h-224z" />
<glyph unicode="O" horiz-adv-x="1282" d="M82 652q0 188 40 324t115 224t181 130t238 42t233 -37t170 -117t105 -208t36 -308q0 -190 -41 -327t-116 -225t-181 -130t-236 -42t-231 36t-171 115t-106 208t-36 315zM366 696q0 -148 18 -246t54 -157t88 -84t120 -25q60 0 110 23t86 78t55 146t19 227q0 146 -19 243 t-55 156t-88 84t-120 25q-60 0 -109 -23t-85 -77t-55 -144t-19 -226z" />
<glyph unicode="P" horiz-adv-x="1082" d="M148 0v1350q96 0 192 2t200 2q138 0 233 -30t154 -85t86 -134t27 -175q0 -104 -30 -191t-97 -150t-175 -99t-264 -36h-56v-454h-270zM418 654h82q134 0 196 66t62 186q0 122 -59 186t-201 64h-80v-502z" />
<glyph unicode="Q" horiz-adv-x="1282" d="M82 652q0 188 40 324t115 224t181 130t238 42t233 -37t170 -117t105 -208t36 -308q0 -164 -30 -287t-86 -209t-133 -137t-169 -71q46 -56 94 -76t97 -24t100 0t105 -3t109 -33t115 -90l-86 -106q-64 38 -129 45t-128 6l-123 -2t-117 22t-109 78t-98 165q-130 0 -229 38 t-166 119t-101 209t-34 306zM366 696q0 -148 18 -246t54 -157t88 -84t120 -25q60 0 110 23t86 78t55 146t19 227q0 146 -19 243t-55 156t-88 84t-120 25q-60 0 -109 -23t-85 -77t-55 -144t-19 -226z" />
<glyph unicode="R" horiz-adv-x="1106" d="M148 0v1350l205 4t205 2q122 0 211 -26t146 -73t84 -112t27 -145q0 -88 -23 -150t-62 -106t-88 -70t-103 -42l342 -632h-310l-288 572h-76v-572h-270zM418 766h104q222 0 222 206q0 94 -52 143t-178 49h-96v-398z" />
<glyph unicode="S" horiz-adv-x="992" d="M62 108l64 142q82 -34 158 -53t134 -19q104 0 164 44t60 130q0 66 -42 109t-104 79t-136 70t-136 83t-104 119t-42 176q0 86 32 157t89 121t137 77t174 27q96 0 186 -26t176 -84l-64 -140q-64 26 -128 40t-120 14q-102 0 -149 -43t-47 -111q0 -66 43 -110t107 -80 t139 -71t139 -84t107 -118t43 -173q0 -86 -31 -160t-91 -128t-149 -85t-203 -31q-120 0 -220 35t-186 93z" />
<glyph unicode="T" horiz-adv-x="934" d="M28 1142v208h876v-208h-304v-1142h-270v1142h-302z" />
<glyph unicode="U" horiz-adv-x="1304" d="M146 458v892h270v-864q0 -172 57 -241t181 -69q56 0 101 14t76 49t47 91t16 140v880h264v-862v0q0 -138 -39 -235t-109 -158t-167 -89t-213 -28q-240 0 -362 110t-122 370z" />
<glyph unicode="V" horiz-adv-x="1092" d="M20 1350h294q42 -250 111 -522t149 -556q76 260 134 529t100 549h264v0q-62 -346 -147 -679t-207 -671h-328q-120 344 -211 673t-159 677z" />
<glyph unicode="W" horiz-adv-x="1728" d="M32 1350h290q20 -124 44 -243l50 -242l54 -252l58 -273h2l32 180l192 830h262l200 -826l36 -184h2l102 510t88 500h252v0q-70 -366 -148 -695t-172 -655h-296l-180 726l-42 212h-2l-38 -212l-166 -726h-296q-50 168 -94 331t-83 327t-75 335z" />
<glyph unicode="X" horiz-adv-x="1098" d="M24 0q84 206 170 379t182 329l-84 150l-78 151l-77 161t-79 180h290l106 -237t106 -207q54 90 112 208t102 236h260q-70 -178 -150 -334t-170 -298q90 -150 178 -325t178 -393h-296q-64 148 -125 271t-121 227q-58 -102 -120 -226t-118 -272h-266z" />
<glyph unicode="Y" horiz-adv-x="978" d="M-10 1350h296q52 -150 105 -280t117 -258q64 122 117 261t95 277h268v0q-82 -228 -170 -425t-194 -361v-564h-270v564q-52 88 -100 178t-93 186t-87 201z" />
<glyph unicode="Z" horiz-adv-x="980" d="M62 0v176l512 962h-492l6 212h806v-180l-508 -954h536l-6 -216h-854z" />
<glyph unicode="[" horiz-adv-x="720" d="M198 -346v1824h402v-156h-182v-1512h182v-156h-402z" />
<glyph unicode="\" d="M16 1418h228l756 -1626h-228z" />
<glyph unicode="]" horiz-adv-x="720" d="M120 -190h182v1512h-182v156h402v-1824h-402v156z" />
<glyph unicode="^" d="M52 796l346 622h206l346 -624l-200 -70l-250 484l-252 -484z" />
<glyph unicode="_" d="M0 -170h1000v-188h-1000v188z" />
<glyph unicode="`" horiz-adv-x="630" d="M64 1350l180 100l260 -270l-128 -70z" />
<glyph unicode="a" horiz-adv-x="1024" d="M62 264q0 156 126 251t390 95h62v76q0 76 -44 114t-142 38q-78 0 -157 -18t-147 -42l-34 156q90 40 189 65t213 25q194 0 286 -84t92 -228v-712h-200l-18 102q-64 -56 -136 -90t-168 -34q-154 0 -233 73t-79 213zM314 294q0 -62 35 -97t99 -35q46 0 96 23t96 63v204h-76 q-72 0 -121 -11t-77 -32t-40 -50t-12 -65z" />
<glyph unicode="b" horiz-adv-x="1068" d="M130 18v1400h258v-496q52 44 116 73t134 29q90 0 156 -38t111 -104t67 -154t22 -188q0 -150 -38 -256t-107 -174t-166 -100t-215 -32q-94 0 -180 12t-158 28zM388 180q20 -8 50 -13t68 -5q98 0 161 82t63 260q0 156 -44 239t-120 83q-34 0 -82 -21t-96 -63v-562z" />
<glyph unicode="c" horiz-adv-x="846" d="M74 488q0 120 30 218t86 169t136 110t178 39q178 0 288 -126l-90 -132q-72 66 -166 66q-90 0 -142 -80t-52 -238q0 -184 47 -262t135 -78q116 0 212 84l78 -132v0q-58 -60 -142 -103t-198 -43q-400 0 -400 508z" />
<glyph unicode="d" horiz-adv-x="1068" d="M74 460q0 152 38 259t105 175t157 99t194 31q30 0 61 -2t51 -4v400h258v-1418h-210l-20 102q-64 -54 -133 -89t-149 -35q-88 0 -154 38t-110 103t-66 153t-22 188zM338 496q0 -160 44 -240t120 -80q36 0 82 21t96 63v560q-28 10 -58 15t-64 5q-98 0 -159 -82t-61 -262z " />
<glyph unicode="e" horiz-adv-x="1018" d="M74 474q0 270 121 410t333 140q96 0 175 -29t132 -97t78 -177t15 -271h-590v-14q0 -138 58 -200t166 -62q68 0 152 15t172 43l38 -148q-92 -48 -197 -77t-217 -29q-98 0 -179 26t-138 85t-88 153t-31 232zM338 610h342v4q0 238 -162 238q-84 0 -129 -67t-51 -175z" />
<glyph unicode="f" horiz-adv-x="608" d="M24 822v180h128v120q0 150 64 234t216 84q76 0 135 -19t105 -43l-38 -148q-64 24 -118 24q-58 0 -83 -30t-25 -94v-128h180v-180h-180v-822h-256v822h-128z" />
<glyph unicode="g" horiz-adv-x="1074" d="M74 482q0 140 39 243t108 169t164 98t207 32q88 0 181 -13t165 -29v-944v0q0 -120 -34 -198t-92 -123t-136 -63t-166 -18q-160 0 -356 80l20 144q82 -14 161 -24t147 -10q102 0 150 37t48 133v118q-52 -40 -116 -70t-138 -30q-86 0 -152 37t-110 101t-67 149t-23 181z M338 520q0 -156 45 -235t121 -79q40 0 88 25t88 59v530q-28 10 -60 15t-64 5q-96 0 -157 -81t-61 -239z" />
<glyph unicode="h" horiz-adv-x="1092" d="M130 0v1418h258v-502q52 46 121 77t153 31q74 0 132 -25t97 -79t59 -140t20 -210q0 -46 -1 -109t-3 -138t-3 -157t-1 -166h-256q0 76 1 152l2 145t2 127t1 100q0 90 -9 147t-27 90t-44 45t-60 12q-38 0 -85 -21t-99 -61v-736h-258z" />
<glyph unicode="i" horiz-adv-x="518" d="M106 1266q0 76 31 105t123 29t122 -28t30 -106q0 -76 -30 -105t-122 -29q-46 0 -76 7t-47 22t-24 41t-7 64zM130 0v1002h258v-1002h-258z" />
<glyph unicode="j" horiz-adv-x="518" d="M2 -288q58 70 93 151t35 177v962h258v-912v0q0 -146 -51 -251t-167 -203zM106 1266q0 76 31 105t123 29t122 -28t30 -106q0 -76 -30 -105t-122 -29q-46 0 -76 7t-47 22t-24 41t-7 64z" />
<glyph unicode="k" horiz-adv-x="974" d="M130 0v1418h258v-802l230 386h300l-298 -418l338 -584h-302l-268 496v-496h-258z" />
<glyph unicode="l" horiz-adv-x="550" d="M130 186v1232h258v-1130q0 -42 3 -67t10 -39t20 -18t33 -4q12 0 26 1t24 1l10 -152v0q-36 -12 -82 -19t-104 -7q-48 0 -85 9t-62 31t-38 62t-13 100z" />
<glyph unicode="m" horiz-adv-x="1642" d="M130 0v1002h212l18 -106q60 56 135 92t161 36q94 0 155 -41t89 -103q72 64 151 104t169 40q146 0 223 -105t77 -347q0 -46 -1 -111t-3 -140t-3 -157t-1 -164h-256q0 76 1 151l2 143t2 127t1 103q0 90 -8 147t-25 90t-41 45t-56 12q-40 0 -90 -25t-100 -65q4 -24 7 -60 t3 -90v-578h-256v524q0 88 -8 145t-24 90t-40 46t-56 13q-36 0 -83 -22t-97 -60v-736h-258z" />
<glyph unicode="n" horiz-adv-x="1092" d="M130 0v1002h212l18 -106q64 58 140 93t164 35q152 0 229 -105t77 -349q0 -46 -1 -110t-3 -139t-3 -157t-1 -164h-256q0 76 1 151l2 144t2 128t1 103q0 90 -9 146t-26 89t-43 45t-60 12q-40 0 -88 -22t-98 -60v-736h-258z" />
<glyph unicode="o" horiz-adv-x="1076" d="M74 482q0 278 130 410t354 132q106 0 189 -28t140 -89t86 -157t29 -230q0 -276 -130 -409t-354 -133q-214 0 -329 117t-115 387zM338 524q0 -106 14 -175t39 -109t63 -56t86 -16q44 0 80 16t62 53t41 96t15 145q0 106 -14 175t-39 109t-62 56t-85 16q-44 0 -81 -16 t-63 -53t-41 -96t-15 -145z" />
<glyph unicode="p" horiz-adv-x="1068" d="M130 -346v1348h210l20 -102q62 56 132 90t146 34q90 0 157 -38t111 -103t66 -153t22 -188q0 -148 -38 -255t-104 -176t-158 -101t-200 -32q-22 0 -52 1t-54 5v-330h-258zM388 182q26 -10 56 -15t64 -5q98 0 160 82t62 262q0 156 -44 238t-120 82q-36 0 -83 -21t-95 -63 v-560z" />
<glyph unicode="q" horiz-adv-x="1068" d="M74 460q0 148 38 255t107 176t167 101t216 32q84 0 172 -12t164 -30v-1328h-258v426q-46 -40 -113 -71t-137 -31q-90 0 -156 38t-111 103t-67 153t-22 188zM338 496q0 -156 44 -238t120 -82q40 0 87 24t91 60v560q-50 20 -120 20q-98 0 -160 -83t-62 -261z" />
<glyph unicode="r" horiz-adv-x="730" d="M130 0v1002h212l20 -156q76 102 132 139t110 37q22 0 47 -5t49 -17l-30 -226q-32 10 -52 12t-36 2q-42 0 -84 -33t-110 -119v-636h-258z" />
<glyph unicode="s" horiz-adv-x="832" d="M56 62l22 134q86 -20 142 -27t102 -7q100 0 141 32t41 78q0 24 -7 44t-27 37t-55 34t-89 37q-144 52 -205 119t-61 177q0 138 100 221t266 83q68 0 135 -17t145 -57l-28 -132q-64 16 -110 23t-88 7q-78 0 -114 -31t-36 -73q0 -22 8 -40t27 -34t53 -32t88 -36 q148 -50 209 -123t61 -181q0 -68 -27 -126t-80 -101t-129 -67t-172 -24q-164 0 -312 82z" />
<glyph unicode="t" horiz-adv-x="696" d="M24 822v180h136q18 68 32 138t28 154h188v-292h222v-180h-222v-516q0 -76 20 -105t70 -29q24 0 57 4t81 18l20 -148v0q-70 -36 -132 -51t-120 -15q-138 0 -196 59t-58 203v580h-126z" />
<glyph unicode="u" horiz-adv-x="1092" d="M122 432q0 46 1 110t3 139t3 157t1 164h258q0 -76 -1 -151t-3 -143t-3 -128t-1 -104q0 -88 9 -145t26 -90t43 -45t60 -12q42 0 90 23t96 59v736h258v-1002h-210l-20 106q-64 -58 -140 -93t-162 -35q-154 0 -231 105t-77 349z" />
<glyph unicode="v" horiz-adv-x="966" d="M22 1002h278l162 -566l40 -200q64 206 106 393t60 373h266v0q-40 -260 -112 -513t-178 -489h-336z" />
<glyph unicode="w" horiz-adv-x="1520" d="M32 1002h274l130 -554l36 -168h2l26 154l122 568h298l148 -582l26 -138h2q48 194 85 369t51 351h250v0q-34 -252 -98 -499t-156 -503h-304l-150 588l-22 126h-2l-14 -122l-134 -592h-310z" />
<glyph unicode="x" horiz-adv-x="964" d="M26 0l282 526l-244 476h288l146 -330q18 36 38 81t38 90l34 87t26 72h260l-244 -450l288 -552h-294l-180 380l-90 -197t-74 -183h-274z" />
<glyph unicode="y" horiz-adv-x="962" d="M14 -168q22 -4 52 -5t48 -1q92 0 144 44q32 28 45 55t13 63q0 30 -10 77t-36 121l-248 816h276l156 -562q22 -72 35 -137t9 -111q28 88 55 188t49 205t38 211t24 206h266v0q-60 -392 -148 -654t-190 -419t-212 -222t-214 -65q-34 0 -73 10t-79 32v148z" />
<glyph unicode="z" horiz-adv-x="800" d="M60 0v160l354 650h-340l10 192h628v-158l-358 -650h386l-8 -194h-672z" />
<glyph unicode="{" horiz-adv-x="776" d="M86 484v184h56q66 0 89 38t23 102v398q0 130 67 201t211 71h102v-152h-62q-100 0 -100 -124v-354q0 -114 -38 -179t-122 -93q84 -26 122 -93t38 -181v-372q0 -70 22 -97t80 -27h60v-152h-106q-76 0 -129 19t-85 54t-46 86t-14 115v410q0 66 -23 106t-89 40h-56z" />
<glyph unicode="|" horiz-adv-x="506" d="M140 -346v1852h226v-1852h-226z" />
<glyph unicode="}" horiz-adv-x="776" d="M140 -194h62q100 0 100 124v374q0 114 38 179t122 93q-84 26 -122 93t-38 181v352q0 70 -22 97t-80 27h-60v152h106q76 0 129 -19t85 -54t46 -86t14 -115v-390q0 -66 23 -106t89 -40h56v-184h-56q-66 0 -89 -38t-23 -102v-418q0 -130 -67 -201t-211 -71h-102v152z" />
<glyph unicode="~" d="M42 892v44q0 148 79 235t217 87q86 0 135 -33t81 -72t56 -72t58 -33q46 0 64 38t18 132h196v-46v0q0 -144 -78 -233t-220 -89q-86 0 -135 33t-81 74t-55 74t-55 33q-42 0 -63 -37t-21 -135h-196z" />
<glyph unicode="&#xa1;" horiz-adv-x="718" d="M162 -208l44 996h226l44 -996h-314zM162 1022q0 78 32 107t126 29q92 0 124 -29t32 -107q0 -76 -32 -107t-124 -31q-94 0 -126 30t-32 108z" />
<glyph unicode="&#xa2;" d="M104 664q0 98 26 179t72 141t110 99t142 57l18 216h154l20 -216q62 -10 113 -36t101 -72l-88 -132q-90 68 -180 68q-42 0 -82 -16t-71 -50t-50 -86t-19 -124q0 -88 17 -146t46 -92t68 -49t83 -15q118 0 222 84l78 -132v0q-50 -42 -107 -74t-131 -46l-20 -230h-154 l-18 216q-82 8 -147 39t-110 86t-69 137t-24 194z" />
<glyph unicode="&#xa3;" d="M60 594v172h136q-12 46 -23 103t-11 115q0 200 108 291t290 91q90 0 179 -23t157 -59l-26 -140q-70 18 -128 25t-104 7q-62 0 -102 -12t-62 -36t-31 -59t-9 -79q0 -58 11 -112l23 -112h320v-172h-296q10 -124 -11 -216t-99 -174h542v-204h-846v168q48 50 80 99t49 100 t21 106t-2 121h-166z" />
<glyph unicode="&#xa4;" d="M52 120l130 140q-30 42 -47 104t-17 144q0 170 76 268l-142 154l166 102l122 -164q74 38 176 38q88 0 152 -30l116 156l168 -102l-136 -146q66 -88 66 -238q0 -170 -76 -268l146 -158l-170 -102l-120 164q-80 -40 -180 -40q-44 0 -81 8t-67 22l-114 -154zM336 544 q0 -78 11 -128t32 -79t52 -40t71 -11q70 0 114 49t44 171q0 76 -11 126t-32 79t-51 40t-70 11q-72 0 -116 -48t-44 -170z" />
<glyph unicode="&#xa5;" d="M18 1350h282q52 -138 104 -255t114 -221q64 100 115 225t93 251h260v0q-80 -184 -168 -356t-190 -322v-30h260v-168h-260v-142h260v-166h-260v-166h-256v166h-260v166h260v142h-260v168h260v30q-102 160 -187 324t-167 354z" />
<glyph unicode="&#xa6;" horiz-adv-x="506" d="M144 -346v748h220v-748h-220zM144 726v786h220v-786h-220z" />
<glyph unicode="&#xa7;" horiz-adv-x="1012" d="M66 712q0 122 47 240t122 211t170 149t191 56q64 0 123 -19t105 -49l-48 -146q-90 28 -176 28q-76 0 -104 -33t-28 -89q0 -52 36 -98t90 -94l116 -101t116 -120t90 -153t36 -196q0 -120 -46 -237t-121 -209t-171 -148t-196 -56q-74 0 -131 18t-115 58l50 142 q98 -32 188 -32q84 0 112 33t28 89q0 52 -36 98t-90 93l-116 100t-116 120t-90 151t-36 194zM276 748q0 -82 34 -146t83 -117t106 -100t102 -96t70 -105t13 -126q26 42 43 90t17 116q0 82 -34 147t-84 119t-108 101t-103 96t-70 102t-11 119q-58 -82 -58 -200z" />
<glyph unicode="&#xa8;" horiz-adv-x="852" d="M100 1268q0 66 27 92t97 26t97 -24t27 -94q0 -64 -27 -90t-97 -26t-97 24t-27 92zM498 1268q0 66 27 92t97 26t97 -24t27 -94q0 -64 -27 -90t-97 -26t-97 24t-27 92z" />
<glyph unicode="&#xa9;" horiz-adv-x="1550" d="M72 670q0 146 53 275t147 225t223 151t279 55q156 0 285 -53t222 -146t145 -221t52 -276t-53 -277t-147 -225t-223 -151t-279 -55q-154 0 -283 53t-222 146t-146 221t-53 278zM264 674q0 -114 39 -212t108 -169t163 -112t202 -41t201 41t162 113t108 169t39 211 q0 116 -39 214t-107 169t-161 111t-203 40q-108 0 -201 -41t-162 -113t-109 -169t-40 -211zM448 666q0 88 24 161t69 126t109 82t144 29q142 0 232 -94l-78 -102q-58 46 -128 46q-64 0 -105 -59t-41 -167q0 -130 37 -188t101 -58q88 0 164 58l66 -104v0q-46 -44 -113 -74 t-159 -30q-322 0 -322 374z" />
<glyph unicode="&#xaa;" horiz-adv-x="918" d="M108 878q0 110 91 179t289 69h52v50q0 54 -34 77t-100 23q-96 0 -228 -40l-28 128q76 32 156 50t158 18q156 0 221 -62t65 -180v-512h-166l-14 76q-58 -46 -113 -68t-117 -22q-102 0 -167 58t-65 156zM138 406v142h620v-142h-620zM310 896q0 -40 23 -65t69 -25 q30 0 66 18t72 42v136h-60q-100 0 -135 -28t-35 -78z" />
<glyph unicode="&#xab;" horiz-adv-x="1016" d="M68 574l264 408l170 -60l-186 -348l186 -350l-170 -58zM482 574l248 386l164 -56l-166 -330l166 -332l-166 -54z" />
<glyph unicode="&#xac;" d="M74 506v184h828v-452h-210v268h-618z" />
<glyph unicode="&#xad;" horiz-adv-x="474" d="M52 478v190h420v-190h-420z" />
<glyph unicode="&#x2010;" horiz-adv-x="474" d="M52 478v190h420v-190h-420z" />
<glyph unicode="&#xae;" horiz-adv-x="1134" d="M90 966q0 100 36 186t101 149t152 99t189 36q104 0 192 -35t151 -97t98 -147t35 -185t-37 -186t-101 -149t-152 -98t-190 -35q-104 0 -191 35t-150 96t-98 146t-35 185zM232 970q0 -72 24 -134t68 -109t105 -74t137 -27q74 0 136 27t106 74t68 109t24 134q0 70 -24 132 t-68 109t-106 74t-136 27q-76 0 -137 -27t-105 -74t-68 -109t-24 -132zM398 746v460q52 0 92 2t74 2q90 0 138 -36t48 -102q0 -44 -24 -78t-64 -52l102 -196h-144l-76 176h-20v-176h-126zM524 1006h34q32 0 48 18t16 40q0 28 -15 43t-55 15h-28v-116z" />
<glyph unicode="&#xaf;" horiz-adv-x="674" d="M52 1174v180h560v-180h-560z" />
<glyph unicode="&#x2c9;" horiz-adv-x="674" d="M52 1174v180h560v-180h-560z" />
<glyph unicode="&#xb0;" horiz-adv-x="902" d="M138 1112q0 144 82 217t238 73q160 0 235 -66t75 -218q0 -144 -81 -217t-235 -73q-162 0 -238 67t-76 217zM332 1116q0 -76 25 -107t97 -31q66 0 93 32t27 106q0 78 -27 107t-93 29q-68 0 -95 -32t-27 -104z" />
<glyph unicode="&#xb1;" d="M80 0v174h838v-174h-838zM80 620v174h314v322h210v-322h314v-174h-314v-330h-210v330h-314z" />
<glyph unicode="&#xb2;" d="M254 754v134q88 54 141 92t81 67t37 53t9 48q0 40 -18 59t-64 19q-38 0 -77 -10t-71 -24l-24 122q58 26 119 42t131 16q120 0 179 -51t59 -141q0 -46 -17 -83t-47 -70t-71 -63t-91 -62h254v-148h-530z" />
<glyph unicode="&#xb3;" d="M236 786l22 102q56 -16 103 -23t89 -7q60 0 84 18t24 52q0 36 -23 54t-93 18h-86v114h82q54 0 75 18t21 52t-18 49t-70 15q-80 0 -150 -22l-22 98q46 22 110 35t122 13q118 0 175 -42t57 -118q0 -48 -18 -79t-68 -57q62 -14 93 -48t31 -94q0 -90 -71 -146t-213 -56 q-68 0 -135 15t-121 39z" />
<glyph unicode="&#xb4;" horiz-adv-x="630" d="M50 1180l260 270l180 -100l-312 -240z" />
<glyph unicode="&#xb5;" horiz-adv-x="1100" d="M130 -346v1348h256v-556q0 -142 28 -202t110 -60q40 0 88 23t98 59v736h256v-1002h-210l-18 106q-56 -50 -120 -84t-128 -34q-38 0 -66 16t-44 40l8 -390h-258z" />
<glyph unicode="&#x3bc;" horiz-adv-x="1100" d="M130 -346v1348h256v-556q0 -142 28 -202t110 -60q40 0 88 23t98 59v736h256v-1002h-210l-18 106q-56 -50 -120 -84t-128 -34q-38 0 -66 16t-44 40l8 -390h-258z" />
<glyph unicode="&#xb6;" horiz-adv-x="1288" d="M98 950q0 90 28 164t82 126t133 81t181 29h600v-1560h-200v1400h-190v-1400h-198v770q-94 -10 -174 15t-138 76t-91 127t-33 172z" />
<glyph unicode="&#xb7;" horiz-adv-x="548" d="M126 596q0 44 6 73t23 46t46 24t75 7q44 0 73 -7t45 -24t22 -45t6 -72t-6 -72t-22 -45t-45 -24t-73 -7q-46 0 -75 7t-46 23t-23 45t-6 71z" />
<glyph unicode="&#x2219;" horiz-adv-x="548" d="M126 596q0 44 6 73t23 46t46 24t75 7q44 0 73 -7t45 -24t22 -45t6 -72t-6 -72t-22 -45t-45 -24t-73 -7q-46 0 -75 7t-46 23t-23 45t-6 71z" />
<glyph unicode="&#xb8;" horiz-adv-x="618" d="M100 -308q68 62 87 109t7 115h220v0q14 -90 -28 -158t-138 -124z" />
<glyph unicode="&#xb9;" d="M258 1234l224 116h150v-452h130v-144h-484v144h150v274l-138 -52z" />
<glyph unicode="&#xba;" horiz-adv-x="870" d="M78 1036q0 100 28 175t77 124t114 73t139 24t137 -21t108 -66t71 -115t26 -166q0 -100 -28 -175t-76 -125t-114 -75t-144 -25q-74 0 -136 20t-107 64t-70 115t-25 173zM122 406v142h622v-142h-622zM290 1068q0 -76 10 -126t28 -78t44 -39t60 -11q60 0 98 46t38 166 q0 74 -10 124t-28 78t-44 40t-58 12q-64 0 -101 -49t-37 -163z" />
<glyph unicode="&#xbb;" horiz-adv-x="1016" d="M122 244l166 330l-166 330l166 56l246 -386l-248 -386zM514 226l186 348l-186 350l170 58l264 -408l-266 -408z" />
<glyph unicode="&#xbc;" horiz-adv-x="1410" d="M96 1234l224 116h150v-452h130v-144h-484v144h152v274l-140 -52zM140 34l998 1358l132 -76l-998 -1358zM714 96v122q52 98 112 190t130 188h264v-358h96v-142h-96v-96h-198v96h-308zM868 234h156v244q-46 -58 -87 -122t-69 -122z" />
<glyph unicode="&#xbd;" horiz-adv-x="1410" d="M96 1234l224 116h150v-452h130v-144h-484v144h152v274l-140 -52zM140 34l998 1358l132 -76l-998 -1358zM780 0v134q90 54 143 92t81 67t37 53t9 48q0 40 -19 59t-65 19q-36 0 -75 -10t-73 -24l-22 122q58 26 118 42t130 16q120 0 180 -51t60 -141q0 -46 -17 -83t-47 -70 t-72 -63l-90 -62h254v-148h-532z" />
<glyph unicode="&#xbe;" horiz-adv-x="1410" d="M68 786l22 102q58 -16 104 -23t88 -7q60 0 84 18t24 52q0 36 -23 54t-93 18h-86v114h82q54 0 75 18t21 52t-18 49t-70 15q-80 0 -150 -22l-20 98q46 22 109 35t121 13q118 0 175 -42t57 -118q0 -48 -18 -79t-68 -57q62 -14 93 -48t31 -94q0 -90 -71 -146t-213 -56 q-68 0 -135 15t-121 39zM140 34l998 1358l132 -76l-998 -1358zM714 96v122q52 98 112 190t130 188h264v-358h96v-142h-96v-96h-198v96h-308zM868 234h156v244q-46 -58 -87 -122t-69 -122z" />
<glyph unicode="&#xbf;" d="M108 104q0 74 22 128t55 96t72 77t73 72t58 82t26 107l4 122h224l8 -120q6 -76 -11 -131t-45 -98t-62 -77t-64 -68t-50 -70t-20 -84q0 -70 44 -115t138 -45q58 0 117 12t111 32l70 -156v0q-88 -46 -183 -71t-193 -25q-200 0 -297 88t-97 244zM374 1022q0 78 31 107 t125 29t126 -29t32 -107q0 -76 -33 -107t-127 -31q-46 0 -76 7t-47 23t-24 42t-7 66z" />
<glyph unicode="&#xc0;" horiz-adv-x="1148" d="M20 0q76 340 171 681t203 669h354q118 -348 209 -678t173 -672h-292l-28 132t-30 134h-446q-14 -58 -29 -127t-27 -139h-258zM376 468h360v0l-89 322t-97 322q-22 -72 -44 -153l-45 -165l-45 -167t-40 -159zM236 1560l116 156l360 -166l-78 -112z" />
<glyph unicode="&#xc1;" horiz-adv-x="1148" d="M20 0q76 340 171 681t203 669h354q118 -348 209 -678t173 -672h-292l-28 132t-30 134h-446q-14 -58 -29 -127t-27 -139h-258zM376 468h360v0l-89 322t-97 322q-22 -72 -44 -153l-45 -165l-45 -167t-40 -159zM418 1550l360 166l116 -156l-398 -122z" />
<glyph unicode="&#xc2;" horiz-adv-x="1148" d="M20 0q76 340 171 681t203 669h354q118 -348 209 -678t173 -672h-292l-28 132t-30 134h-446q-14 -58 -29 -127t-27 -139h-258zM376 468h360v0l-89 322t-97 322q-22 -72 -44 -153l-45 -165l-45 -167t-40 -159zM264 1542l308 174l304 -170l-68 -108l-240 104l-238 -104z" />
<glyph unicode="&#xc3;" horiz-adv-x="1148" d="M20 0q76 340 171 681t203 669h354q118 -348 209 -678t173 -672h-292l-28 132t-30 134h-446q-14 -58 -29 -127t-27 -139h-258zM376 468h360v0l-89 322t-97 322q-22 -72 -44 -153l-45 -165l-45 -167t-40 -159zM214 1522q46 88 103 134t141 46q50 0 84 -15t60 -34l48 -34 t46 -15q28 0 51 21t61 75l106 -74v0q-46 -90 -103 -135t-143 -45q-48 0 -82 15t-60 33l-48 33t-46 15q-28 0 -51 -20t-61 -74z" />
<glyph unicode="&#xc4;" horiz-adv-x="1148" d="M20 0q76 340 171 681t203 669h354q118 -348 209 -678t173 -672h-292l-28 132t-30 134h-446q-14 -58 -29 -127t-27 -139h-258zM376 468h360v0l-89 322t-97 322q-22 -72 -44 -153l-45 -165l-45 -167t-40 -159zM242 1564q0 62 28 87t98 25t96 -24t26 -88q0 -62 -26 -87 t-96 -25t-98 24t-28 88zM654 1564q0 62 27 87t97 25t97 -24t27 -88q0 -62 -27 -87t-97 -25t-97 24t-27 88z" />
<glyph unicode="&#xc5;" horiz-adv-x="1148" d="M20 0q76 340 171 681t203 669h354q118 -348 209 -678t173 -672h-292l-28 132t-30 134h-446q-14 -58 -29 -127t-27 -139h-258zM376 468h360v0l-89 322t-97 322q-22 -72 -44 -153l-45 -165l-45 -167t-40 -159zM336 1546q0 78 63 124t173 46q120 0 173 -43t53 -119 q0 -82 -64 -127t-172 -45q-120 0 -173 41t-53 123zM488 1548q0 -36 18 -54t62 -18q76 0 76 72q0 74 -76 74q-80 0 -80 -74z" />
<glyph unicode="&#xc6;" horiz-adv-x="1470" d="M-42 0q130 354 269 689t293 661h848v-206h-428v-356h356v-198h-356v-382h436v-208h-706v266h-354l-47 -130t-45 -136h-266zM382 468h288v678h-2q-84 -182 -155 -353z" />
<glyph unicode="&#xc7;" horiz-adv-x="1032" d="M82 650q0 356 139 539t383 183q118 0 214 -52t158 -168l-124 -120q-84 124 -214 124q-72 0 -123 -37t-85 -100t-50 -148t-16 -183q0 -134 18 -228t54 -152t87 -85t117 -27q70 0 130 32t118 96l112 -138v0q-70 -100 -175 -154t-231 -54q-512 0 -512 672zM384 -308 q68 62 87 109t7 115h220v0q14 -90 -28 -158t-138 -124z" />
<glyph unicode="&#xc8;" horiz-adv-x="948" d="M148 0v1350h700v-206h-430v-356h356v-198h-356v-382h438v-208h-708zM160 1560l116 156l360 -166l-78 -112z" />
<glyph unicode="&#xc9;" horiz-adv-x="948" d="M148 0v1350h700v-206h-430v-356h356v-198h-356v-382h438v-208h-708zM360 1550l360 166l116 -156l-398 -122z" />
<glyph unicode="&#xca;" horiz-adv-x="948" d="M148 0v1350h700v-206h-430v-356h356v-198h-356v-382h438v-208h-708zM190 1542l308 174l304 -170l-68 -108l-240 104l-238 -104z" />
<glyph unicode="&#xcb;" horiz-adv-x="948" d="M148 0v1350h700v-206h-430v-356h356v-198h-356v-382h438v-208h-708zM166 1564q0 62 28 87t98 25t96 -24t26 -88q0 -62 -26 -87t-96 -25t-98 24t-28 88zM578 1564q0 62 27 87t97 25t97 -24t27 -88q0 -62 -27 -87t-97 -25t-97 24t-27 88z" />
<glyph unicode="&#xcc;" horiz-adv-x="566" d="M148 0v1350h270v-1350h-270zM-53 1560l116 156l360 -166l-78 -112z" />
<glyph unicode="&#xcd;" horiz-adv-x="566" d="M148 0v1350h270v-1350h-270zM127 1550l360 166l116 -156l-398 -122z" />
<glyph unicode="&#xce;" horiz-adv-x="566" d="M148 0v1350h270v-1350h-270zM-23 1542l308 174l304 -170l-68 -108l-240 104l-238 -104z" />
<glyph unicode="&#xcf;" horiz-adv-x="566" d="M148 0v1350h270v-1350h-270zM-45 1564q0 62 28 87t98 25t96 -24t26 -88q0 -62 -26 -87t-96 -25t-98 24t-28 88zM367 1564q0 62 27 87t97 25t97 -24t27 -88q0 -62 -27 -87t-97 -25t-97 24t-27 88z" />
<glyph unicode="&#xd0;" horiz-adv-x="1210" d="M44 600v182h124v568q102 0 194 2t186 2q160 0 271 -49t180 -136t100 -204t31 -253q0 -170 -38 -303t-117 -225t-200 -141t-287 -49q-78 0 -161 2l-159 4v600h-124zM438 204q24 -2 48 -3t46 -1q162 0 238 123t76 359q0 230 -74 350t-242 120h-46q-22 0 -46 -2v-368h190 v-182h-190v-396z" />
<glyph unicode="&#xd1;" horiz-adv-x="1300" d="M148 0v1350h330l450 -842v842h224v-1350h-284l-496 962v-962h-224zM318 1522q46 88 103 134t141 46q50 0 84 -15t60 -34l48 -34t46 -15q28 0 51 21t61 75l106 -74v0q-46 -90 -103 -135t-143 -45q-48 0 -82 15t-60 33l-48 33t-46 15q-28 0 -51 -20t-61 -74z" />
<glyph unicode="&#xd2;" horiz-adv-x="1282" d="M82 652q0 188 40 324t115 224t181 130t238 42t233 -37t170 -117t105 -208t36 -308q0 -190 -41 -327t-116 -225t-181 -130t-236 -42t-231 36t-171 115t-106 208t-36 315zM366 696q0 -148 18 -246t54 -157t88 -84t120 -25q60 0 110 23t86 78t55 146t19 227q0 146 -19 243 t-55 156t-88 84t-120 25q-60 0 -109 -23t-85 -77t-55 -144t-19 -226zM258 1560l116 156l360 -166l-78 -112z" />
<glyph unicode="&#xd3;" horiz-adv-x="1282" d="M82 652q0 188 40 324t115 224t181 130t238 42t233 -37t170 -117t105 -208t36 -308q0 -190 -41 -327t-116 -225t-181 -130t-236 -42t-231 36t-171 115t-106 208t-36 315zM366 696q0 -148 18 -246t54 -157t88 -84t120 -25q60 0 110 23t86 78t55 146t19 227q0 146 -19 243 t-55 156t-88 84t-120 25q-60 0 -109 -23t-85 -77t-55 -144t-19 -226zM516 1550l360 166l116 -156l-398 -122z" />
<glyph unicode="&#xd4;" horiz-adv-x="1282" d="M82 652q0 188 40 324t115 224t181 130t238 42t233 -37t170 -117t105 -208t36 -308q0 -190 -41 -327t-116 -225t-181 -130t-236 -42t-231 36t-171 115t-106 208t-36 315zM366 696q0 -148 18 -246t54 -157t88 -84t120 -25q60 0 110 23t86 78t55 146t19 227q0 146 -19 243 t-55 156t-88 84t-120 25q-60 0 -109 -23t-85 -77t-55 -144t-19 -226zM336 1542l308 174l304 -170l-68 -108l-240 104l-238 -104z" />
<glyph unicode="&#xd5;" horiz-adv-x="1282" d="M82 652q0 188 40 324t115 224t181 130t238 42t233 -37t170 -117t105 -208t36 -308q0 -190 -41 -327t-116 -225t-181 -130t-236 -42t-231 36t-171 115t-106 208t-36 315zM366 696q0 -148 18 -246t54 -157t88 -84t120 -25q60 0 110 23t86 78t55 146t19 227q0 146 -19 243 t-55 156t-88 84t-120 25q-60 0 -109 -23t-85 -77t-55 -144t-19 -226zM292 1522q46 88 103 134t141 46q50 0 84 -15t60 -34l48 -34t46 -15q28 0 51 21t61 75l106 -74v0q-46 -90 -103 -135t-143 -45q-48 0 -82 15t-60 33l-48 33t-46 15q-28 0 -51 -20t-61 -74z" />
<glyph unicode="&#xd6;" horiz-adv-x="1282" d="M82 652q0 188 40 324t115 224t181 130t238 42t233 -37t170 -117t105 -208t36 -308q0 -190 -41 -327t-116 -225t-181 -130t-236 -42t-231 36t-171 115t-106 208t-36 315zM366 696q0 -148 18 -246t54 -157t88 -84t120 -25q60 0 110 23t86 78t55 146t19 227q0 146 -19 243 t-55 156t-88 84t-120 25q-60 0 -109 -23t-85 -77t-55 -144t-19 -226zM310 1564q0 62 28 87t98 25t96 -24t26 -88q0 -62 -26 -87t-96 -25t-98 24t-28 88zM722 1564q0 62 27 87t97 25t97 -24t27 -88q0 -62 -27 -87t-97 -25t-97 24t-27 88z" />
<glyph unicode="&#xd7;" d="M106 340l258 258l-256 256l136 138l258 -256l258 256l136 -136l-258 -258l258 -258l-136 -136l-258 258l-258 -258z" />
<glyph unicode="&#xd8;" horiz-adv-x="1282" d="M82 652q0 188 40 324t115 224t181 130t238 42q80 0 149 -15t127 -49l120 202l138 -74l-130 -216q68 -80 104 -207t36 -311q0 -190 -41 -327t-116 -225t-181 -130t-236 -42q-78 0 -148 15t-128 49l-120 -200l-138 74l130 216q-68 78 -104 205t-36 315zM348 698 q0 -176 48 -278l418 698v0q-68 62 -180 62q-64 0 -117 -23t-90 -79t-58 -149t-21 -231zM466 234q36 -34 81 -48t101 -14q64 0 116 23t90 79t58 149t20 235q0 174 -48 274z" />
<glyph unicode="&#xd9;" horiz-adv-x="1304" d="M146 458v892h270v-864q0 -172 57 -241t181 -69q56 0 101 14t76 49t47 91t16 140v880h264v-862v0q0 -138 -39 -235t-109 -158t-167 -89t-213 -28q-240 0 -362 110t-122 370zM274 1560l116 156l360 -166l-78 -112z" />
<glyph unicode="&#xda;" horiz-adv-x="1304" d="M146 458v892h270v-864q0 -172 57 -241t181 -69q56 0 101 14t76 49t47 91t16 140v880h264v-862v0q0 -138 -39 -235t-109 -158t-167 -89t-213 -28q-240 0 -362 110t-122 370zM554 1550l360 166l116 -156l-398 -122z" />
<glyph unicode="&#xdb;" horiz-adv-x="1304" d="M146 458v892h270v-864q0 -172 57 -241t181 -69q56 0 101 14t76 49t47 91t16 140v880h264v-862v0q0 -138 -39 -235t-109 -158t-167 -89t-213 -28q-240 0 -362 110t-122 370zM348 1542l308 174l304 -170l-68 -108l-240 104l-238 -104z" />
<glyph unicode="&#xdc;" horiz-adv-x="1304" d="M146 458v892h270v-864q0 -172 57 -241t181 -69q56 0 101 14t76 49t47 91t16 140v880h264v-862v0q0 -138 -39 -235t-109 -158t-167 -89t-213 -28q-240 0 -362 110t-122 370zM322 1564q0 62 28 87t98 25t96 -24t26 -88q0 -62 -26 -87t-96 -25t-98 24t-28 88zM734 1564 q0 62 27 87t97 25t97 -24t27 -88q0 -62 -27 -87t-97 -25t-97 24t-27 88z" />
<glyph unicode="&#xdd;" horiz-adv-x="978" d="M-10 1350h296q52 -150 105 -280t117 -258q64 122 117 261t95 277h268v0q-82 -228 -170 -425t-194 -361v-564h-270v564q-52 88 -100 178t-93 186t-87 201zM388 1550l360 166l116 -156l-398 -122z" />
<glyph unicode="&#xde;" horiz-adv-x="1082" d="M148 0v1350h272v-206h120q138 0 233 -30t154 -85t86 -133t27 -174q0 -102 -30 -189t-97 -151t-176 -100t-267 -36h-52v-246h-270zM418 444h82q134 0 196 66t62 186q0 122 -59 186t-201 64h-80v-502z" />
<glyph unicode="&#xdf;" horiz-adv-x="1132" d="M130 0v996q0 218 115 331t327 113q202 0 297 -80t95 -210q0 -70 -15 -116t-37 -77t-47 -51t-47 -40t-37 -44t-15 -62t23 -67t59 -56l76 -56t76 -68t59 -90t23 -123q0 -66 -20 -123t-60 -100t-101 -68t-143 -25q-140 0 -254 66l22 130q36 -10 80 -15t82 -5q70 0 102 33 t32 79t-23 78t-58 59t-75 53t-75 61t-58 83t-23 118q0 54 15 92t39 67t50 52t50 48t39 56t15 75q0 66 -38 104t-114 38q-102 0 -140 -63t-38 -187v-1006h-258z" />
<glyph unicode="&#xe0;" horiz-adv-x="1020" d="M62 264q0 156 126 251t390 95h62v76q0 76 -44 114t-142 38q-78 0 -157 -18t-147 -42l-34 156q90 40 189 65t213 25q194 0 286 -84t92 -228v-712h-200l-18 102q-64 -56 -136 -90t-168 -34q-154 0 -233 73t-79 213zM314 294q0 -62 35 -97t99 -35q46 0 96 23t96 63v204h-76 q-72 0 -121 -11t-77 -32t-40 -50t-12 -65zM188 1350l180 100l260 -270l-128 -70z" />
<glyph unicode="&#xe1;" horiz-adv-x="1020" d="M62 264q0 156 126 251t390 95h62v76q0 76 -44 114t-142 38q-78 0 -157 -18t-147 -42l-34 156q90 40 189 65t213 25q194 0 286 -84t92 -228v-712h-200l-18 102q-64 -56 -136 -90t-168 -34q-154 0 -233 73t-79 213zM314 294q0 -62 35 -97t99 -35q46 0 96 23t96 63v204h-76 q-72 0 -121 -11t-77 -32t-40 -50t-12 -65zM374 1180l260 270l180 -100l-312 -240z" />
<glyph unicode="&#xe2;" horiz-adv-x="1020" d="M62 264q0 156 126 251t390 95h62v76q0 76 -44 114t-142 38q-78 0 -157 -18t-147 -42l-34 156q90 40 189 65t213 25q194 0 286 -84t92 -228v-712h-200l-18 102q-64 -56 -136 -90t-168 -34q-154 0 -233 73t-79 213zM314 294q0 -62 35 -97t99 -35q46 0 96 23t96 63v204h-76 q-72 0 -121 -11t-77 -32t-40 -50t-12 -65zM210 1214l298 248l288 -246l-80 -104l-214 144l-214 -144z" />
<glyph unicode="&#xe3;" horiz-adv-x="1020" d="M62 264q0 156 126 251t390 95h62v76q0 76 -44 114t-142 38q-78 0 -157 -18t-147 -42l-34 156q90 40 189 65t213 25q194 0 286 -84t92 -228v-712h-200l-18 102q-64 -56 -136 -90t-168 -34q-154 0 -233 73t-79 213zM314 294q0 -62 35 -97t99 -35q46 0 96 23t96 63v204h-76 q-72 0 -121 -11t-77 -32t-40 -50t-12 -65zM151 1214q46 90 100 136t138 46q48 0 81 -15t59 -33l46 -33t44 -15q28 0 50 20t60 74l102 -74v0q-46 -90 -100 -136t-138 -46q-48 0 -81 15t-59 34l-46 34t-44 15q-28 0 -50 -21t-60 -73z" />
<glyph unicode="&#xe4;" horiz-adv-x="1020" d="M62 264q0 156 126 251t390 95h62v76q0 76 -44 114t-142 38q-78 0 -157 -18t-147 -42l-34 156q90 40 189 65t213 25q194 0 286 -84t92 -228v-712h-200l-18 102q-64 -56 -136 -90t-168 -34q-154 0 -233 73t-79 213zM314 294q0 -62 35 -97t99 -35q46 0 96 23t96 63v204h-76 q-72 0 -121 -11t-77 -32t-40 -50t-12 -65zM184 1268q0 66 27 92t97 26t97 -24t27 -94q0 -64 -27 -90t-97 -26t-97 24t-27 92zM582 1268q0 66 27 92t97 26t97 -24t27 -94q0 -64 -27 -90t-97 -26t-97 24t-27 92z" />
<glyph unicode="&#xe5;" horiz-adv-x="1020" d="M62 264q0 156 126 251t390 95h62v76q0 76 -44 114t-142 38q-78 0 -157 -18t-147 -42l-34 156q90 40 189 65t213 25q194 0 286 -84t92 -228v-712h-200l-18 102q-64 -56 -136 -90t-168 -34q-154 0 -233 73t-79 213zM314 294q0 -62 35 -97t99 -35q46 0 96 23t96 63v204h-76 q-72 0 -121 -11t-77 -32t-40 -50t-12 -65zM259 1284q0 94 67 149t181 55q124 0 180 -51t56 -145q0 -96 -66 -151t-180 -55q-126 0 -182 50t-56 148zM421 1286q0 -82 80 -82q44 0 62 21t18 61q0 86 -80 86t-80 -86z" />
<glyph unicode="&#xe6;" horiz-adv-x="1570" d="M62 264q0 156 126 251t390 95h62v76q0 76 -44 114t-142 38q-78 0 -157 -18t-147 -42l-34 156q90 40 190 65t212 25q108 0 178 -34t104 -88q52 58 120 90t164 32t174 -29t131 -97t78 -177t15 -271h-592v-14q0 -138 59 -200t167 -62q68 0 151 15t173 43l38 -148 q-92 -48 -197 -77t-217 -29q-120 0 -209 40t-139 134q-64 -82 -149 -128t-193 -46q-154 0 -233 73t-79 213zM314 294q0 -62 35 -97t99 -35q58 0 108 33t84 89v168h-76q-72 0 -121 -11t-77 -32t-40 -50t-12 -65zM892 610h342v4q0 238 -164 238q-84 0 -128 -67t-50 -175z" />
<glyph unicode="&#xe7;" horiz-adv-x="846" d="M74 488q0 120 30 218t86 169t136 110t178 39q178 0 288 -126l-90 -132q-72 66 -166 66q-90 0 -142 -80t-52 -238q0 -184 47 -262t135 -78q116 0 212 84l78 -132v0q-58 -60 -142 -103t-198 -43q-400 0 -400 508zM264 -308q68 62 87 109t7 115h220v0q14 -90 -28 -158 t-138 -124z" />
<glyph unicode="&#xe8;" horiz-adv-x="1018" d="M74 474q0 270 121 410t333 140q96 0 175 -29t132 -97t78 -177t15 -271h-590v-14q0 -138 58 -200t166 -62q68 0 152 15t172 43l38 -148q-92 -48 -197 -77t-217 -29q-98 0 -179 26t-138 85t-88 153t-31 232zM338 610h342v4q0 238 -162 238q-84 0 -129 -67t-51 -175z M206 1350l180 100l260 -270l-128 -70z" />
<glyph unicode="&#xe9;" horiz-adv-x="1018" d="M74 474q0 270 121 410t333 140q96 0 175 -29t132 -97t78 -177t15 -271h-590v-14q0 -138 58 -200t166 -62q68 0 152 15t172 43l38 -148q-92 -48 -197 -77t-217 -29q-98 0 -179 26t-138 85t-88 153t-31 232zM338 610h342v4q0 238 -162 238q-84 0 -129 -67t-51 -175z M388 1180l260 270l180 -100l-312 -240z" />
<glyph unicode="&#xea;" horiz-adv-x="1018" d="M74 474q0 270 121 410t333 140q96 0 175 -29t132 -97t78 -177t15 -271h-590v-14q0 -138 58 -200t166 -62q68 0 152 15t172 43l38 -148q-92 -48 -197 -77t-217 -29q-98 0 -179 26t-138 85t-88 153t-31 232zM338 610h342v4q0 238 -162 238q-84 0 -129 -67t-51 -175z M228 1214l298 248l288 -246l-80 -104l-214 144l-214 -144z" />
<glyph unicode="&#xeb;" horiz-adv-x="1018" d="M74 474q0 270 121 410t333 140q96 0 175 -29t132 -97t78 -177t15 -271h-590v-14q0 -138 58 -200t166 -62q68 0 152 15t172 43l38 -148q-92 -48 -197 -77t-217 -29q-98 0 -179 26t-138 85t-88 153t-31 232zM338 610h342v4q0 238 -162 238q-84 0 -129 -67t-51 -175z M198 1268q0 66 27 92t97 26t97 -24t27 -94q0 -64 -27 -90t-97 -26t-97 24t-27 92zM596 1268q0 66 27 92t97 26t97 -24t27 -94q0 -64 -27 -90t-97 -26t-97 24t-27 92z" />
<glyph unicode="&#xec;" horiz-adv-x="518" d="M130 0v1002h258v-1002h-258zM-23 1350l180 100l260 -270l-128 -70z" />
<glyph unicode="&#xed;" horiz-adv-x="518" d="M130 0v1002h258v-1002h-258zM118 1180l260 270l180 -100l-312 -240z" />
<glyph unicode="&#xee;" horiz-adv-x="518" d="M130 0v1002h258v-1002h-258zM-33 1214l298 248l288 -246l-80 -104l-214 144l-214 -144z" />
<glyph unicode="&#xef;" horiz-adv-x="518" d="M130 0v1002h258v-1002h-258zM-31 1268q0 33 6 55.5t20 36.5t37.5 20t58.5 6t57.5 -5.5t36 -19t19 -36.5t5.5 -57q0 -32 -5.5 -54.5t-19 -36t-36 -19.5t-57.5 -6t-58.5 5.5t-37.5 19t-20 35.5t-6 56zM313 1268q0 33 6 55.5t19.5 36.5t36.5 20t58 6t58.5 -5.5t37 -19 t19 -36.5t5.5 -57q0 -32 -5.5 -54.5t-19 -36t-37 -19.5t-58.5 -6t-58 5.5t-36.5 19t-19.5 35.5t-6 56z" />
<glyph unicode="&#xf0;" horiz-adv-x="1066" d="M64 460q0 126 32 228t92 173t147 110t199 39q26 0 56 -4t40 -8q-16 34 -42 73t-60 79l-186 -74l-100 120l182 72q-38 38 -79 75t-93 75h316q28 -18 57 -44t51 -50l168 68l100 -120l-166 -66q92 -116 150 -265t58 -329q0 -176 -37 -297t-102 -195t-154 -107t-195 -33 q-218 0 -326 128t-108 352zM342 504q0 -174 48 -250t138 -76q38 0 70 13t56 53t38 114t14 194q0 86 -9 152t-23 112q-18 6 -53 11t-67 5q-102 0 -157 -81t-55 -247z" />
<glyph unicode="&#xf1;" horiz-adv-x="1092" d="M130 0v1002h212l18 -106q64 58 140 93t164 35q152 0 229 -105t77 -349q0 -46 -1 -110t-3 -139t-3 -157t-1 -164h-256q0 76 1 151l2 144t2 128t1 103q0 90 -9 146t-26 89t-43 45t-60 12q-40 0 -88 -22t-98 -60v-736h-258zM214 1214q46 90 100 136t138 46q48 0 81 -15 t59 -33l46 -33t44 -15q28 0 50 20t60 74l102 -74v0q-46 -90 -100 -136t-138 -46q-48 0 -81 15t-59 34l-46 34t-44 15q-28 0 -50 -21t-60 -73z" />
<glyph unicode="&#xf2;" horiz-adv-x="1076" d="M74 482q0 278 130 410t354 132q106 0 189 -28t140 -89t86 -157t29 -230q0 -276 -130 -409t-354 -133q-214 0 -329 117t-115 387zM338 524q0 -106 14 -175t39 -109t63 -56t86 -16q44 0 80 16t62 53t41 96t15 145q0 106 -14 175t-39 109t-62 56t-85 16q-44 0 -81 -16 t-63 -53t-41 -96t-15 -145zM224 1350l180 100l260 -270l-128 -70z" />
<glyph unicode="&#xf3;" horiz-adv-x="1076" d="M74 482q0 278 130 410t354 132q106 0 189 -28t140 -89t86 -157t29 -230q0 -276 -130 -409t-354 -133q-214 0 -329 117t-115 387zM338 524q0 -106 14 -175t39 -109t63 -56t86 -16q44 0 80 16t62 53t41 96t15 145q0 106 -14 175t-39 109t-62 56t-85 16q-44 0 -81 -16 t-63 -53t-41 -96t-15 -145zM400 1180l260 270l180 -100l-312 -240z" />
<glyph unicode="&#xf4;" horiz-adv-x="1076" d="M74 482q0 278 130 410t354 132q106 0 189 -28t140 -89t86 -157t29 -230q0 -276 -130 -409t-354 -133q-214 0 -329 117t-115 387zM338 524q0 -106 14 -175t39 -109t63 -56t86 -16q44 0 80 16t62 53t41 96t15 145q0 106 -14 175t-39 109t-62 56t-85 16q-44 0 -81 -16 t-63 -53t-41 -96t-15 -145zM250 1214l298 248l288 -246l-80 -104l-214 144l-214 -144z" />
<glyph unicode="&#xf5;" horiz-adv-x="1076" d="M74 482q0 278 130 410t354 132q106 0 189 -28t140 -89t86 -157t29 -230q0 -276 -130 -409t-354 -133q-214 0 -329 117t-115 387zM338 524q0 -106 14 -175t39 -109t63 -56t86 -16q44 0 80 16t62 53t41 96t15 145q0 106 -14 175t-39 109t-62 56t-85 16q-44 0 -81 -16 t-63 -53t-41 -96t-15 -145zM200 1214q46 90 100 136t138 46q48 0 81 -15t59 -33l46 -33t44 -15q28 0 50 20t60 74l102 -74v0q-46 -90 -100 -136t-138 -46q-48 0 -81 15t-59 34l-46 34t-44 15q-28 0 -50 -21t-60 -73z" />
<glyph unicode="&#xf6;" horiz-adv-x="1076" d="M74 482q0 278 130 410t354 132q106 0 189 -28t140 -89t86 -157t29 -230q0 -276 -130 -409t-354 -133q-214 0 -329 117t-115 387zM338 524q0 -106 14 -175t39 -109t63 -56t86 -16q44 0 80 16t62 53t41 96t15 145q0 106 -14 175t-39 109t-62 56t-85 16q-44 0 -81 -16 t-63 -53t-41 -96t-15 -145zM220 1268q0 66 27 92t97 26t97 -24t27 -94q0 -64 -27 -90t-97 -26t-97 24t-27 92zM618 1268q0 66 27 92t97 26t97 -24t27 -94q0 -64 -27 -90t-97 -26t-97 24t-27 92z" />
<glyph unicode="&#xf7;" d="M74 508v182h850v-182h-850zM360 212q0 40 6 66t22 41t43 21t71 6q82 0 109 -27t27 -105q0 -76 -27 -104t-111 -28q-86 0 -113 27t-27 103zM360 982q0 78 27 106t113 28q84 0 111 -28t27 -108q0 -76 -27 -103t-109 -27q-44 0 -71 6t-43 21t-22 41t-6 64z" />
<glyph unicode="&#xf8;" horiz-adv-x="1070" d="M74 482q0 278 129 410t353 132q54 0 101 -8t85 -26l104 172l138 -74l-104 -174q58 -62 90 -158t32 -236q0 -276 -129 -409t-353 -133q-110 0 -192 34l-102 -170l-138 76l106 172q-58 60 -89 155t-31 237zM322 526q0 -64 8 -108t28 -78l284 482v0q-44 26 -106 26 q-48 0 -87 -17t-67 -55t-44 -99t-16 -151zM432 178q20 -12 48 -18t60 -6q48 0 87 17t67 55t44 99t16 151q0 60 -8 107t-28 81z" />
<glyph unicode="&#xf9;" horiz-adv-x="1092" d="M122 432q0 46 1 110t3 139t3 157t1 164h258q0 -76 -1 -151t-3 -143t-3 -128t-1 -104q0 -88 9 -145t26 -90t43 -45t60 -12q42 0 90 23t96 59v736h258v-1002h-210l-20 106q-64 -58 -140 -93t-162 -35q-154 0 -231 105t-77 349zM246 1350l180 100l260 -270l-128 -70z" />
<glyph unicode="&#xfa;" horiz-adv-x="1092" d="M122 432q0 46 1 110t3 139t3 157t1 164h258q0 -76 -1 -151t-3 -143t-3 -128t-1 -104q0 -88 9 -145t26 -90t43 -45t60 -12q42 0 90 23t96 59v736h258v-1002h-210l-20 106q-64 -58 -140 -93t-162 -35q-154 0 -231 105t-77 349zM412 1180l260 270l180 -100l-312 -240z" />
<glyph unicode="&#xfb;" horiz-adv-x="1092" d="M122 432q0 46 1 110t3 139t3 157t1 164h258q0 -76 -1 -151t-3 -143t-3 -128t-1 -104q0 -88 9 -145t26 -90t43 -45t60 -12q42 0 90 23t96 59v736h258v-1002h-210l-20 106q-64 -58 -140 -93t-162 -35q-154 0 -231 105t-77 349zM254 1214l298 248l288 -246l-80 -104 l-214 144l-214 -144z" />
<glyph unicode="&#xfc;" horiz-adv-x="1092" d="M122 432q0 46 1 110t3 139t3 157t1 164h258q0 -76 -1 -151t-3 -143t-3 -128t-1 -104q0 -88 9 -145t26 -90t43 -45t60 -12q42 0 90 23t96 59v736h258v-1002h-210l-20 106q-64 -58 -140 -93t-162 -35q-154 0 -231 105t-77 349zM224 1268q0 66 27 92t97 26t97 -24t27 -94 q0 -64 -27 -90t-97 -26t-97 24t-27 92zM622 1268q0 66 27 92t97 26t97 -24t27 -94q0 -64 -27 -90t-97 -26t-97 24t-27 92z" />
<glyph unicode="&#xfd;" horiz-adv-x="962" d="M14 -168q22 -4 52 -5t48 -1q92 0 144 44q32 28 45 55t13 63q0 30 -10 77t-36 121l-248 816h276l156 -562q22 -72 35 -137t9 -111q28 88 55 188t49 205t38 211t24 206h266v0q-60 -392 -148 -654t-190 -419t-212 -222t-214 -65q-34 0 -73 10t-79 32v148zM372 1180l260 270 l180 -100l-312 -240z" />
<glyph unicode="&#xfe;" horiz-adv-x="1068" d="M130 -346v1764h258v-496q52 42 116 72t134 30q90 0 156 -38t111 -103t67 -153t22 -188q0 -150 -38 -256t-104 -175t-157 -101t-199 -32q-26 0 -57 1t-51 5v-330h-258zM388 180q22 -8 54 -13t64 -5q100 0 162 82t62 260q0 158 -44 240t-120 82q-34 0 -82 -22t-96 -66v-558 z" />
<glyph unicode="&#xff;" horiz-adv-x="962" d="M14 -168q22 -4 52 -5t48 -1q92 0 144 44q32 28 45 55t13 63q0 30 -10 77t-36 121l-248 816h276l156 -562q22 -72 35 -137t9 -111q28 88 55 188t49 205t38 211t24 206h266v0q-60 -392 -148 -654t-190 -419t-212 -222t-214 -65q-34 0 -73 10t-79 32v148zM162 1268 q0 66 27 92t97 26t97 -24t27 -94q0 -64 -27 -90t-97 -26t-97 24t-27 92zM560 1268q0 66 27 92t97 26t97 -24t27 -94q0 -64 -27 -90t-97 -26t-97 24t-27 92z" />
<glyph unicode="&#x100;" horiz-adv-x="1148" d="M20 0q76 340 171 681t203 669h354q118 -348 209 -678t173 -672h-292l-28 132t-30 134h-446q-14 -58 -29 -127t-27 -139h-258zM376 468h360v0l-89 322t-97 322q-22 -72 -44 -153l-45 -165l-45 -167t-40 -159zM283 1484v168h570v-168h-570z" />
<glyph unicode="&#x101;" horiz-adv-x="1020" d="M62 264q0 156 126 251t390 95h62v76q0 76 -44 114t-142 38q-78 0 -157 -18t-147 -42l-34 156q90 40 189 65t213 25q194 0 286 -84t92 -228v-712h-200l-18 102q-64 -56 -136 -90t-168 -34q-154 0 -233 73t-79 213zM314 294q0 -62 35 -97t99 -35q46 0 96 23t96 63v204h-76 q-72 0 -121 -11t-77 -32t-40 -50t-12 -65zM228 1174v180h560v-180h-560z" />
<glyph unicode="&#x102;" horiz-adv-x="1148" d="M20 0q76 340 171 681t203 669h354q118 -348 209 -678t173 -672h-292l-28 132t-30 134h-446q-14 -58 -29 -127t-27 -139h-258zM376 468h360v0l-89 322t-97 322q-22 -72 -44 -153l-45 -165l-45 -167t-40 -159zM280 1726h156q0 -54 32 -93t104 -39q70 0 103 39t33 93h154v0 q0 -134 -77 -216t-215 -82q-140 0 -215 79t-75 219z" />
<glyph unicode="&#x103;" horiz-adv-x="1020" d="M62 264q0 156 126 251t390 95h62v76q0 76 -44 114t-142 38q-78 0 -157 -18t-147 -42l-34 156q90 40 189 65t213 25q194 0 286 -84t92 -228v-712h-200l-18 102q-64 -56 -136 -90t-168 -34q-154 0 -233 73t-79 213zM314 294q0 -62 35 -97t99 -35q46 0 96 23t96 63v204h-76 q-72 0 -121 -11t-77 -32t-40 -50t-12 -65zM212 1444h156q0 -84 33 -118t103 -34t104 34t34 118h158v0q0 -162 -79 -245t-217 -83q-142 0 -217 81t-75 247z" />
<glyph unicode="&#x104;" horiz-adv-x="1148" d="M20 0q76 340 171 681t203 669h354q118 -348 209 -678t173 -672q-54 -10 -88 -29t-55 -42t-29 -48t-8 -45q0 -60 58 -60q22 0 46 7t44 17l32 -112q-42 -26 -94 -39t-100 -13q-192 0 -192 150q0 56 27 112t69 102h-2l-28 132t-30 134h-446q-14 -58 -29 -127t-27 -139h-258z M376 468h360v0l-89 322t-97 322q-22 -72 -44 -153l-45 -165l-45 -167t-40 -159z" />
<glyph unicode="&#x105;" horiz-adv-x="1020" d="M58 264q0 156 126 251t390 95h62v76q0 76 -45 114t-141 38q-78 0 -157 -18t-147 -42l-34 156q90 40 190 65t214 25q192 0 283 -85t91 -227v-712q-40 -28 -64 -77t-24 -87q0 -60 58 -60q22 0 46 7t44 17l32 -112q-42 -26 -94 -39t-100 -13q-192 0 -192 150q0 56 27 113 t69 101l-18 102q-64 -56 -137 -90t-169 -34q-152 0 -231 73t-79 213zM310 296q0 -64 34 -100t100 -36q46 0 96 24t96 64v206h-76q-74 0 -122 -12t-77 -33t-40 -50t-11 -63z" />
<glyph unicode="&#x106;" horiz-adv-x="1032" d="M82 650q0 356 139 539t383 183q118 0 214 -52t158 -168l-124 -120q-84 124 -214 124q-72 0 -123 -37t-85 -100t-50 -148t-16 -183q0 -134 18 -228t54 -152t87 -85t117 -27q70 0 130 32t118 96l112 -138v0q-70 -100 -175 -154t-231 -54q-512 0 -512 672zM493 1550l360 166 l116 -156l-398 -122z" />
<glyph unicode="&#x107;" horiz-adv-x="846" d="M74 488q0 120 30 218t86 169t136 110t178 39q178 0 288 -126l-90 -132q-72 66 -166 66q-90 0 -142 -80t-52 -238q0 -184 47 -262t135 -78q116 0 212 84l78 -132v0q-58 -60 -142 -103t-198 -43q-400 0 -400 508zM397 1180l260 270l180 -100l-312 -240z" />
<glyph unicode="&#x10c;" horiz-adv-x="1032" d="M82 650q0 356 139 539t383 183q118 0 214 -52t158 -168l-124 -120q-84 124 -214 124q-72 0 -123 -37t-85 -100t-50 -148t-16 -183q0 -134 18 -228t54 -152t87 -85t117 -27q70 0 130 32t118 96l112 -138v0q-70 -100 -175 -154t-231 -54q-512 0 -512 672zM301 1610l66 106 l240 -104l240 104l64 -104l-306 -174z" />
<glyph unicode="&#x10d;" horiz-adv-x="846" d="M74 488q0 120 30 218t86 169t136 110t178 39q178 0 288 -126l-90 -132q-72 66 -166 66q-90 0 -142 -80t-52 -238q0 -184 47 -262t135 -78q116 0 212 84l78 -132v0q-58 -60 -142 -103t-198 -43q-400 0 -400 508zM196 1356l80 104l214 -144l214 144l78 -102l-298 -248z" />
<glyph unicode="&#x10e;" horiz-adv-x="1190" d="M148 0v1350q102 0 194 2t186 2q160 0 271 -49t180 -136t100 -204t31 -253q0 -170 -38 -303t-117 -225t-200 -141t-287 -49q-80 0 -162 2zM418 204q24 -2 48 -3t46 -1q162 0 238 123t76 359q0 230 -74 350t-242 120q-44 0 -92 -2v-946zM252 1610l66 106l240 -104l240 104 l64 -104l-306 -174z" />
<glyph unicode="&#x10f;" horiz-adv-x="1190" d="M74 460q0 152 38 259t105 175t157 99t194 31q30 0 61 -2t51 -4v400h258v-1418h-210l-20 102q-64 -54 -133 -89t-149 -35q-88 0 -154 38t-110 103t-66 153t-22 188zM338 496q0 -160 44 -240t120 -80q36 0 82 21t96 63v560q-28 10 -58 15t-64 5q-98 0 -159 -82t-61 -262z M998 1154q42 38 60 69t18 61q0 16 -6 26t-13 19t-13 21t-6 36q0 62 24 83t80 21q58 0 81 -21t23 -81q0 -48 -9 -86t-30 -72t-55 -66t-84 -68z" />
<glyph unicode="&#x110;" horiz-adv-x="1210" d="M44 600v182h124v568q102 0 194 2t186 2q160 0 271 -49t180 -136t100 -204t31 -253q0 -170 -38 -303t-117 -225t-200 -141t-287 -49q-78 0 -161 2l-159 4v600h-124zM438 204q24 -2 48 -3t46 -1q162 0 238 123t76 359q0 230 -74 350t-242 120h-46q-22 0 -46 -2v-368h190 v-182h-190v-396z" />
<glyph unicode="&#x111;" horiz-adv-x="1068" d="M74 460q0 152 38 259t105 175t157 99t194 31q30 0 61 -2t51 -4v110h-190v142h190v148h258v-148h132v-142h-132v-1128h-210l-20 102q-64 -54 -133 -89t-149 -35q-88 0 -154 38t-110 103t-66 153t-22 188zM338 496q0 -160 44 -240t120 -80q36 0 82 21t96 63v560 q-28 10 -58 15t-64 5q-98 0 -159 -82t-61 -262z" />
<glyph unicode="&#x112;" horiz-adv-x="948" d="M148 0v1350h700v-206h-430v-356h356v-198h-356v-382h438v-208h-708zM210 1484v168h570v-168h-570z" />
<glyph unicode="&#x113;" horiz-adv-x="1018" d="M74 474q0 270 121 410t333 140q96 0 175 -29t132 -97t78 -177t15 -271h-590v-14q0 -138 58 -200t166 -62q68 0 152 15t172 43l38 -148q-92 -48 -197 -77t-217 -29q-98 0 -179 26t-138 85t-88 153t-31 232zM338 610h342v4q0 238 -162 238q-84 0 -129 -67t-51 -175z M234 1174v180h560v-180h-560z" />
<glyph unicode="&#x116;" horiz-adv-x="948" d="M148 0v1350h700v-206h-430v-356h356v-198h-356v-382h438v-208h-708zM344 1564q0 70 32 96t122 26q46 0 76 -5t47 -19t23 -38t6 -60q0 -68 -31 -94t-121 -26q-46 0 -76 6t-47 19t-24 36t-7 59z" />
<glyph unicode="&#x117;" horiz-adv-x="1018" d="M74 474q0 270 121 410t333 140q96 0 175 -29t132 -97t78 -177t15 -271h-590v-14q0 -138 58 -200t166 -62q68 0 152 15t172 43l38 -148q-92 -48 -197 -77t-217 -29q-98 0 -179 26t-138 85t-88 153t-31 232zM338 610h342v4q0 238 -162 238q-84 0 -129 -67t-51 -175z M360 1273.1q0 73.1846 31 101.11t123 27.9258t122 -26.9629t30 -102.073q0 -73.1846 -30 -101.109q-30 -27.9258 -122 -27.9258q-46 0 -76 6.74023q-30 6.74121 -47 21.1855t-24 39.4805q-7 25.0371 -7 61.6289z" />
<glyph unicode="&#x118;" horiz-adv-x="948" d="M148 0v1350h700v-206h-430v-356h356v-198h-356v-382h438v-208v0q-28 -40 -47 -85t-19 -79q0 -60 58 -60q22 0 47 7t45 17l32 -112q-42 -26 -94 -39t-102 -13q-192 0 -192 150q0 56 27 113t69 101h-532z" />
<glyph unicode="&#x119;" horiz-adv-x="1018" d="M74 474q0 270 121 410t333 140q96 0 174 -29t132 -97t79 -177t15 -271h-592v-14q0 -138 58 -200t166 -62q68 0 152 14t174 44l36 -148v0q-28 -20 -53 -52t-44 -67t-28.5 -70t-9.5 -59q0 -60 56 -60q22 0 47 7t45 17l32 -112q-42 -26 -94 -39t-102 -13q-192 0 -192 150 q0 52 24.5 111t68.5 101q-36 -10 -77 -15t-85 -5q-100 0 -180 26t-137 85t-88 153t-31 232zM338 610h342v4q0 238 -164 238q-84 0 -128 -68t-50 -174z" />
<glyph unicode="&#x11a;" horiz-adv-x="948" d="M148 0v1350h700v-206h-430v-356h356v-198h-356v-382h438v-208h-708zM188 1610l66 106l240 -104l240 104l64 -104l-306 -174z" />
<glyph unicode="&#x11b;" horiz-adv-x="1018" d="M74 474q0 270 121 410t333 140q96 0 175 -29t132 -97t78 -177t15 -271h-590v-14q0 -138 58 -200t166 -62q68 0 152 15t172 43l38 -148q-92 -48 -197 -77t-217 -29q-98 0 -179 26t-138 85t-88 153t-31 232zM338 610h342v4q0 238 -162 238q-84 0 -129 -67t-51 -175z M228 1356l80 104l214 -144l214 144l78 -102l-298 -248z" />
<glyph unicode="&#x11e;" horiz-adv-x="1152" d="M82 648q0 180 41 316t114 227t175 136t224 45q126 0 224 -56t160 -146l-118 -112q-64 48 -123 74t-129 26q-134 0 -210 -112t-76 -354q0 -138 17 -233t50 -154t79 -85t104 -26q52 0 90 14t60 30v340h-160v198h426v-638v0q-84 -70 -197 -115t-263 -45q-238 0 -363 165 t-125 505zM308 1726h156q0 -54 32 -93t104 -39q70 0 103 39t33 93h154v0q0 -134 -77 -216t-215 -82q-140 0 -215 79t-75 219z" />
<glyph unicode="&#x11f;" horiz-adv-x="1069" d="M74 482q0 140 39 243t108 169t164 98t207 32q88 0 181 -13t165 -29v-944v0q0 -120 -34 -198t-92 -123t-136 -63t-166 -18q-160 0 -356 80l20 144q82 -14 161 -24t147 -10q102 0 150 37t48 133v118q-52 -40 -116 -70t-138 -30q-86 0 -152 37t-110 101t-67 149t-23 181z M338 520q0 -156 45 -235t121 -79q40 0 88 25t88 59v530q-28 10 -60 15t-64 5q-96 0 -157 -81t-61 -239zM258 1444h156q0 -84 33 -118t103 -34t104 34t34 118h158v0q0 -162 -79 -245t-217 -83q-142 0 -217 81t-75 247z" />
<glyph unicode="&#x122;" horiz-adv-x="1152" d="M82 648q0 180 41 316t114 227t175 136t224 45q126 0 224 -56t160 -146l-118 -112q-64 48 -123 74t-129 26q-134 0 -210 -112t-76 -354q0 -138 17 -233t50 -154t79 -85t104 -26q52 0 90 14t60 30v340h-160v198h426v-638v0q-84 -70 -197 -115t-263 -45q-238 0 -363 165 t-125 505zM394 -278q54 15 82 33.5t28 42.5q0 7 -2 12l-4 10t-4 12t-2 20q0 35 26.5 57.5t79.5 22.5q51 0 78.5 -26t27.5 -76q0 -91 -70.5 -137.5t-209.5 -54.5z" />
<glyph unicode="&#x123;" horiz-adv-x="1068" d="M74 482q0 140 39 243t108 169t164 98t207 32q88 0 181 -13t165 -29v-944v0q0 -120 -34 -198t-92 -123t-136 -63t-166 -18q-160 0 -356 80l20 144q82 -14 161 -24t147 -10q102 0 150 37t48 133v118q-52 -40 -116 -70t-138 -30q-86 0 -152 37t-110 101t-67 149t-23 181z M338 520q0 -156 45 -235t121 -79q40 0 88 25t88 59v530q-28 10 -60 15t-64 5q-96 0 -157 -81t-61 -239zM495 1226q0 94 73.5 148.5t224.5 59.5l28 -86q-65 -14 -95.5 -39t-30.5 -51q0 -8 2 -12t5 -9t5 -12.5t2 -20.5q0 -36 -27.5 -59t-80.5 -23q-51 0 -78.5 27t-27.5 77z " />
<glyph unicode="&#x12a;" horiz-adv-x="566" d="M148 0v1350h270v-1350h-270zM-1 1484v168h570v-168h-570z" />
<glyph unicode="&#x12b;" horiz-adv-x="518" d="M130 0v1002h258v-1002h-258zM-19 1174v180h560v-180h-560z" />
<glyph unicode="&#x12e;" horiz-adv-x="566" d="M54 -214q0 56 26 112t68 102v1350h270v-1350q-42 -8 -71 -26t-49 -41t-29 -48t-9 -49q0 -60 58 -60q22 0 46 7t44 17l34 -112q-44 -26 -96 -39t-100 -13q-192 0 -192 150z" />
<glyph unicode="&#x12f;" horiz-adv-x="518" d="M34 -214q0 56 28 114t68 100v1002h258v-1002q-44 -8 -72 -27t-45 -42t-24 -49t-7 -46q0 -60 58 -60q22 0 46 7t44 17l34 -112q-44 -26 -96 -39t-100 -13q-192 0 -192 150zM106 1266q0 76 31 105t123 29t122 -28t30 -106q0 -76 -30 -105t-122 -29q-46 0 -76 7t-47 22 t-24 41t-7 64z" />
<glyph unicode="&#x130;" horiz-adv-x="566" d="M148 0v1350h270v-1350h-270zM128 1560.77q0 68.333 32 93.7148q32 25.3809 122 25.3809q46 0 76 -4.88086t47 -18.5479t23 -37.0957t6 -58.5713q0 -66.3818 -31 -91.7627q-31 -25.3818 -121 -25.3818q-46 0 -76 5.85742t-47 18.5479t-24 35.1436q-7 22.4521 -7 57.5957z " />
<glyph unicode="&#x131;" horiz-adv-x="518" d="M130 0v1002h258v-1002h-258z" />
<glyph unicode="&#x136;" horiz-adv-x="1093" d="M148 0v1350h270v-570l322 570h290l-378 -602l408 -748h-308l-334 620v-620h-270zM370 -278q54 15 82 33.5t28 42.5q0 7 -2 12l-4 10t-4 12t-2 20q0 35 26.5 57.5t79.5 22.5q51 0 78.5 -26t27.5 -76q0 -91 -70.5 -137.5t-209.5 -54.5z" />
<glyph unicode="&#x137;" horiz-adv-x="981" d="M130 0v1418h258v-802l230 386h300l-298 -418l338 -584h-302l-268 496v-496h-258zM306 -278q54 15 82 33.5t28 42.5q0 7 -2 12l-4 10t-4 12t-2 20q0 35 26.5 57.5t79.5 22.5q51 0 78.5 -26t27.5 -76q0 -91 -70.5 -137.5t-209.5 -54.5z" />
<glyph unicode="&#x139;" horiz-adv-x="842" d="M148 0v1350h270v-1146h392v-204h-662zM218 1550l360 166l116 -156l-398 -122z" />
<glyph unicode="&#x13a;" horiz-adv-x="550" d="M130 186v1232h258v-1130q0 -42 3 -67t10 -39t20 -18t33 -4q12 0 26 1t24 1l10 -152v0q-36 -12 -82 -19t-104 -7q-48 0 -85 9t-62 31t-38 62t-13 100zM173 1575l360 166l116 -156l-398 -122z" />
<glyph unicode="&#x13b;" horiz-adv-x="842" d="M148 0v1350h270v-1146h392v-204h-662zM268 -278q54 15 82 33.5t28 42.5q0 7 -2 12l-4 10t-4 12t-2 20q0 35 26.5 57.5t79.5 22.5q51 0 78.5 -26t27.5 -76q0 -91 -70.5 -137.5t-209.5 -54.5z" />
<glyph unicode="&#x13c;" horiz-adv-x="550" d="M130 186v1232h258v-1130q0 -42 3 -67t10 -39t20 -18t33 -4q12 0 26 1t24 1l10 -152v0q-36 -12 -82 -19t-104 -7q-48 0 -85 9t-62 31t-38 62t-13 100zM150 -278q54 15 82 33.5t28 42.5q0 7 -2 12l-4 10t-4 12t-2 20q0 35 26.5 57.5t79.5 22.5q51 0 78.5 -26t27.5 -76 q0 -91 -70.5 -137.5t-209.5 -54.5z" />
<glyph unicode="&#x13d;" horiz-adv-x="842" d="M148 0v1350h270v-1140h392v-210h-662zM537 1155q42 38 60 69t18 61q0 16 -6 26t-13 19t-13 21t-6 36q0 62 24 83t80 21q58 0 81 -21t23 -81q0 -48 -9 -86t-30 -72t-55 -66t-84 -68z" />
<glyph unicode="&#x13e;" horiz-adv-x="660" d="M130 186v1232h258v-1130q0 -42 3 -67t10 -39t20 -18t33 -4q12 0 26 1t24 1l10 -152v0q-36 -12 -82 -19t-104 -7q-48 0 -85 9t-62 31t-38 62t-13 100zM449 1154q42 38 60 69t18 61q0 16 -6 26t-13 19t-13 21t-6 36q0 62 24 83t80 21q58 0 81 -21t23 -81q0 -48 -9 -86 t-30 -72t-55 -66t-84 -68z" />
<glyph unicode="&#x141;" horiz-adv-x="856" d="M40 556v186l122 64v544h270v-408l202 108v-186l-202 -106v-548h392v-210h-662v620z" />
<glyph unicode="&#x142;" horiz-adv-x="566" d="M24 539v188l122 66v625h256v-487l122 68v-188l-122 -66v-457q0 -84 14 -106t54 -22q10 0 24 1t24 1l10 -152v0q-74 -26 -186 -26q-48 0 -85 9t-62 31t-37 62t-12 100v419z" />
<glyph unicode="&#x143;" horiz-adv-x="1300" d="M148 0v1350h330l450 -842v842h224v-1350h-284l-496 962v-962h-224zM556 1550l360 166l116 -156l-398 -122z" />
<glyph unicode="&#x144;" horiz-adv-x="1092" d="M130 0v1002h212l18 -106q64 58 140 93t164 35q152 0 229 -105t77 -349q0 -46 -1 -110t-3 -139t-3 -157t-1 -164h-256q0 76 1 151l2 144t2 128t1 103q0 90 -9 146t-26 89t-43 45t-60 12q-40 0 -88 -22t-98 -60v-736h-258zM427 1180l260 270l180 -100l-312 -240z" />
<glyph unicode="&#x145;" horiz-adv-x="1300" d="M148 0v1350h330l450 -842v842h224v-1350h-284l-496 962v-962h-224zM430 -278q54 15 82 33.5t28 42.5q0 7 -2 12l-4 10t-4 12t-2 20q0 35 26.5 57.5t79.5 22.5q51 0 78.5 -26t27.5 -76q0 -91 -70.5 -137.5t-209.5 -54.5z" />
<glyph unicode="&#x146;" horiz-adv-x="1092" d="M130 0v1002h212l18 -106q64 58 140 93t164 35q152 0 229 -105t77 -349q0 -46 -1 -110t-3 -139t-3 -157t-1 -164h-256q0 76 1 151l2 144t2 128t1 103q0 90 -9 146t-26 89t-43 45t-60 12q-40 0 -88 -22t-98 -60v-736h-258zM338 -278q54 15 82 33.5t28 42.5q0 7 -2 12l-4 10 t-4 12t-2 20q0 35 26.5 57.5t79.5 22.5q51 0 78.5 -26t27.5 -76q0 -91 -70.5 -137.5t-209.5 -54.5z" />
<glyph unicode="&#x147;" horiz-adv-x="1300" d="M148 0v1350h330l450 -842v842h224v-1350h-284l-496 962v-962h-224zM378 1610l66 106l240 -104l240 104l64 -104l-306 -174z" />
<glyph unicode="&#x148;" horiz-adv-x="1092" d="M130 0v1002h212l18 -106q64 58 140 93t164 35q152 0 229 -105t77 -349q0 -46 -1 -110t-3 -139t-3 -157t-1 -164h-256q0 76 1 151l2 144t2 128t1 103q0 90 -9 146t-26 89t-43 45t-60 12q-40 0 -88 -22t-98 -60v-736h-258zM258 1356l80 104l214 -144l214 144l78 -102 l-298 -248z" />
<glyph unicode="&#x14c;" horiz-adv-x="1281" d="M82 652q0 188 40 324t115 224t181 130t238 42t233 -37t170 -117t105 -208t36 -308q0 -190 -41 -327t-116 -225t-181 -130t-236 -42t-231 36t-171 115t-106 208t-36 315zM366 696q0 -148 18 -246t54 -157t88 -84t120 -25q60 0 110 23t86 78t55 146t19 227q0 146 -19 243 t-55 156t-88 84t-120 25q-60 0 -109 -23t-85 -77t-55 -144t-19 -226zM356 1484v168h570v-168h-570z" />
<glyph unicode="&#x14d;" horiz-adv-x="1076" d="M74 482q0 278 130 410t354 132q106 0 189 -28t140 -89t86 -157t29 -230q0 -276 -130 -409t-354 -133q-214 0 -329 117t-115 387zM338 524q0 -106 14 -175t39 -109t63 -56t86 -16q44 0 80 16t62 53t41 96t15 145q0 106 -14 175t-39 109t-62 56t-85 16q-44 0 -81 -16 t-63 -53t-41 -96t-15 -145zM260 1174v180h560v-180h-560z" />
<glyph unicode="&#x150;" horiz-adv-x="1281" d="M82 652q0 188 40 324t115 224t181 130t238 42t233 -37t170 -117t105 -208t36 -308q0 -190 -41 -327t-116 -225t-181 -130t-236 -42t-231 36t-171 115t-106 208t-36 315zM366 696q0 -148 18 -246t54 -157t88 -84t120 -25q60 0 110 23t86 78t55 146t19 227q0 146 -19 243 t-55 156t-88 84t-120 25q-60 0 -109 -23t-85 -77t-55 -144t-19 -226zM344 1492l296 244l158 -106l-342 -206zM764 1508l346 220l148 -118l-390 -184z" />
<glyph unicode="&#x151;" horiz-adv-x="1076" d="M74 482q0 278 130 410t354 132q106 0 189 -28t140 -89t86 -157t29 -230q0 -276 -130 -409t-354 -133q-214 0 -329 117t-115 387zM338 524q0 -106 14 -175t39 -109t63 -56t86 -16q44 0 80 16t62 53t41 96t15 145q0 106 -14 175t-39 109t-62 56t-85 16q-44 0 -81 -16 t-63 -53t-41 -96t-15 -145zM236 1176l236 276l176 -98l-286 -248zM620 1180l258 262l180 -100l-308 -232z" />
<glyph unicode="&#x152;" horiz-adv-x="1564" d="M82 652q0 188 40 324t115 224t181 130t238 42q52 0 101 -5t95 -17h610v-206h-430v-356h356v-198h-356v-382h438v-208h-648q-94 -22 -196 -22q-130 0 -231 36t-171 115t-106 208t-36 315zM366 696q0 -148 18 -246t54 -157t88 -84t120 -25q34 0 63 5t53 17v930 q-26 16 -58 23t-70 7q-60 0 -109 -23t-85 -77t-55 -144t-19 -226z" />
<glyph unicode="&#x153;" horiz-adv-x="1674" d="M74 482q0 278 129 410t349 132q106 0 190 -34t138 -120q46 68 121 111t183 43q96 0 175 -29t132 -97t78 -177t15 -271h-590v-14q0 -138 58 -200t166 -62q68 0 152 15t172 43l38 -148q-92 -48 -197 -77t-217 -29q-102 0 -182 33t-134 117q-54 -80 -139 -115t-191 -35 q-104 0 -186 27t-140 87t-89 156t-31 234zM338 526q0 -106 13 -176t39 -110t64 -56t88 -16q88 0 142 69t54 239q0 106 -13 175t-39 110t-63 57t-85 16q-90 0 -145 -69t-55 -239zM996 610h340v4q0 238 -162 238q-84 0 -129 -67t-49 -175z" />
<glyph unicode="&#x154;" horiz-adv-x="1110" d="M148 0v1350l205 4t205 2q122 0 211 -26t146 -73t84 -112t27 -145q0 -88 -23 -150t-62 -106t-88 -70t-103 -42l342 -632h-310l-288 572h-76v-572h-270zM418 766h104q222 0 222 206q0 94 -52 143t-178 49h-96v-398zM404 1550l360 166l116 -156l-398 -122z" />
<glyph unicode="&#x155;" horiz-adv-x="730" d="M130 0v1002h212l20 -156q76 102 132 139t110 37q22 0 47 -5t49 -17l-30 -226q-32 10 -52 12t-36 2q-42 0 -84 -33t-110 -119v-636h-258zM278 1180l260 270l180 -100l-312 -240z" />
<glyph unicode="&#x156;" horiz-adv-x="1110" d="M148 0v1350l205 4t205 2q122 0 211 -26t146 -73t84 -112t27 -145q0 -88 -23 -150t-62 -106t-88 -70t-103 -42l342 -632h-310l-288 572h-76v-572h-270zM418 766h104q222 0 222 206q0 94 -52 143t-178 49h-96v-398zM376 -278q54 15 82 33.5t28 42.5q0 7 -2 12l-4 10t-4 12 t-2 20q0 35 26.5 57.5t79.5 22.5q51 0 78.5 -26t27.5 -76q0 -91 -70.5 -137.5t-209.5 -54.5z" />
<glyph unicode="&#x157;" horiz-adv-x="730" d="M130 0v1002h212l20 -156q76 102 132 139t110 37q22 0 47 -5t49 -17l-30 -226q-32 10 -52 12t-36 2q-42 0 -84 -33t-110 -119v-636h-258zM61 -278q54 15 82 33.5t28 42.5q0 7 -2 12l-4 10t-4 12t-2 20q0 35 26.5 57.5t79.5 22.5q51 0 78.5 -26t27.5 -76 q0 -91 -70.5 -137.5t-209.5 -54.5z" />
<glyph unicode="&#x158;" horiz-adv-x="1110" d="M148 0v1350l205 4t205 2q122 0 211 -26t146 -73t84 -112t27 -145q0 -88 -23 -150t-62 -106t-88 -70t-103 -42l342 -632h-310l-288 572h-76v-572h-270zM418 766h104q222 0 222 206q0 94 -52 143t-178 49h-96v-398zM242 1610l66 106l240 -104l240 104l64 -104l-306 -174z " />
<glyph unicode="&#x159;" horiz-adv-x="730" d="M130 0v1002h212l20 -156q76 102 132 139t110 37q22 0 47 -5t49 -17l-30 -226q-32 10 -52 12t-36 2q-42 0 -84 -33t-110 -119v-636h-258zM124 1356l80 104l214 -144l214 144l78 -102l-298 -248z" />
<glyph unicode="&#x15a;" horiz-adv-x="992" d="M62 108l64 142q82 -34 158 -53t134 -19q104 0 164 44t60 130q0 66 -42 109t-104 79t-136 70t-136 83t-104 119t-42 176q0 86 32 157t89 121t137 77t174 27q96 0 186 -26t176 -84l-64 -140q-64 26 -128 40t-120 14q-102 0 -149 -43t-47 -111q0 -66 43 -110t107 -80 t139 -71t139 -84t107 -118t43 -173q0 -86 -31 -160t-91 -128t-149 -85t-203 -31q-120 0 -220 35t-186 93zM380 1550l360 166l116 -156l-398 -122z" />
<glyph unicode="&#x15b;" horiz-adv-x="832" d="M56 62l22 134q86 -20 142 -27t102 -7q100 0 141 32t41 78q0 24 -7 44t-27 37t-55 34t-89 37q-144 52 -205 119t-61 177q0 138 100 221t266 83q68 0 135 -17t145 -57l-28 -132q-64 16 -110 23t-88 7q-78 0 -114 -31t-36 -73q0 -22 8 -40t27 -34t53 -32t88 -36 q148 -50 209 -123t61 -181q0 -68 -27 -126t-80 -101t-129 -67t-172 -24q-164 0 -312 82zM281 1180l260 270l180 -100l-312 -240z" />
<glyph unicode="&#x15e;" horiz-adv-x="992" d="M62 108l64 142q82 -34 158 -53t134 -19q104 0 164 44t60 130q0 66 -42 109t-104 79t-136 70t-136 83t-104 119t-42 176q0 86 32 157t89 121t137 77t174 27q96 0 186 -26t176 -84l-64 -140q-64 26 -128 40t-120 14q-102 0 -149 -43t-47 -111q0 -66 43 -110t107 -80 t139 -71t139 -84t107 -118t43 -173q0 -86 -31 -160t-91 -128t-149 -85t-203 -31q-120 0 -220 35t-186 93zM274 -308q68 62 87 109t7 115h220v0q14 -90 -28 -158t-138 -124z" />
<glyph unicode="&#x15f;" horiz-adv-x="832" d="M56 62l22 134q86 -20 142 -27t102 -7q100 0 141 32t41 78q0 24 -7 44t-27 37t-55 34t-89 37q-144 52 -205 119t-61 177q0 138 100 221t266 83q68 0 135 -17t145 -57l-28 -132q-64 16 -110 23t-88 7q-78 0 -114 -31t-36 -73q0 -22 8 -40t27 -34t53 -32t88 -36 q148 -50 209 -123t61 -181q0 -68 -27 -126t-80 -101t-129 -67t-172 -24q-164 0 -312 82zM182 -308q68 62 87 109t7 115h220v0q14 -90 -28 -158t-138 -124z" />
<glyph unicode="&#x160;" horiz-adv-x="992" d="M62 108l64 142q82 -34 158 -53t134 -19q104 0 164 44t60 130q0 66 -42 109t-104 79t-136 70t-136 83t-104 119t-42 176q0 86 32 157t89 121t137 77t174 27q96 0 186 -26t176 -84l-64 -140q-64 26 -128 40t-120 14q-102 0 -149 -43t-47 -111q0 -66 43 -110t107 -80 t139 -71t139 -84t107 -118t43 -173q0 -86 -31 -160t-91 -128t-149 -85t-203 -31q-120 0 -220 35t-186 93zM190 1610l66 106l240 -104l240 104l64 -104l-306 -174z" />
<glyph unicode="&#x161;" horiz-adv-x="832" d="M56 62l22 134q86 -20 142 -27t102 -7q100 0 141 32t41 78q0 24 -7 44t-27 37t-55 34t-89 37q-144 52 -205 119t-61 177q0 138 100 221t266 83q68 0 135 -17t145 -57l-28 -132q-64 16 -110 23t-88 7q-78 0 -114 -31t-36 -73q0 -22 8 -40t27 -34t53 -32t88 -36 q148 -50 209 -123t61 -181q0 -68 -27 -126t-80 -101t-129 -67t-172 -24q-164 0 -312 82zM124 1356l80 104l214 -144l214 144l78 -102l-298 -248z" />
<glyph unicode="&#x162;" horiz-adv-x="934" d="M28 1142v208h876v-208h-304v-1142h-270v1142h-302zM264 -278q54 15 82 33.5t28 42.5q0 7 -2 12l-4 10t-4 12t-2 20q0 35 26.5 57.5t79.5 22.5q51 0 78.5 -26t27.5 -76q0 -91 -70.5 -137.5t-209.5 -54.5z" />
<glyph unicode="&#x21a;" horiz-adv-x="934" d="M28 1142v208h876v-208h-304v-1142h-270v1142h-302zM264 -278q54 15 82 33.5t28 42.5q0 7 -2 12l-4 10t-4 12t-2 20q0 35 26.5 57.5t79.5 22.5q51 0 78.5 -26t27.5 -76q0 -91 -70.5 -137.5t-209.5 -54.5z" />
<glyph unicode="&#x163;" horiz-adv-x="696" d="M24 822v180h136q18 68 32 138t28 154h188v-292h222v-180h-222v-516q0 -76 20 -105t70 -29q24 0 57 4t81 18l20 -148v0q-70 -36 -132 -51t-120 -15q-138 0 -196 59t-58 203v580h-126zM205 -278q54 15 82 33.5t28 42.5q0 7 -2 12l-4 10t-4 12t-2 20q0 35 26.5 57.5 t79.5 22.5q51 0 78.5 -26t27.5 -76q0 -91 -70.5 -137.5t-209.5 -54.5z" />
<glyph unicode="&#x21b;" horiz-adv-x="696" d="M24 822v180h136q18 68 32 138t28 154h188v-292h222v-180h-222v-516q0 -76 20 -105t70 -29q24 0 57 4t81 18l20 -148v0q-70 -36 -132 -51t-120 -15q-138 0 -196 59t-58 203v580h-126zM205 -278q54 15 82 33.5t28 42.5q0 7 -2 12l-4 10t-4 12t-2 20q0 35 26.5 57.5 t79.5 22.5q51 0 78.5 -26t27.5 -76q0 -91 -70.5 -137.5t-209.5 -54.5z" />
<glyph unicode="&#x164;" horiz-adv-x="934" d="M28 1142v208h876v-208h-304v-1142h-270v1142h-302zM162 1610l66 106l240 -104l240 104l64 -104l-306 -174z" />
<glyph unicode="&#x165;" horiz-adv-x="758" d="M24 822v180h136q18 68 32 138t28 154h188v-292h222v-180h-222v-516q0 -76 20 -105t70 -29q24 0 57 4t81 18l20 -148v0q-70 -36 -132 -51t-120 -15q-138 0 -196 59t-58 203v580h-126zM496 1134l66 382l184 -36l-120 -368z" />
<glyph unicode="&#x16a;" horiz-adv-x="1304" d="M146 458v892h270v-864q0 -172 57 -241t181 -69q56 0 101 14t76 49t47 91t16 140v880h264v-862v0q0 -138 -39 -235t-109 -158t-167 -89t-213 -28q-240 0 -362 110t-122 370zM366 1484v168h570v-168h-570z" />
<glyph unicode="&#x16b;" horiz-adv-x="1092" d="M122 432q0 46 1 110t3 139t3 157t1 164h258q0 -76 -1 -151t-3 -143t-3 -128t-1 -104q0 -88 9 -145t26 -90t43 -45t60 -12q42 0 90 23t96 59v736h258v-1002h-210l-20 106q-64 -58 -140 -93t-162 -35q-154 0 -231 105t-77 349zM269 1174v180h560v-180h-560z" />
<glyph unicode="&#x16e;" horiz-adv-x="1304" d="M146 458v892h270v-864q0 -172 57 -241t181 -69q56 0 101 14t76 49t47 91t16 140v880h264v-862v0q0 -138 -39 -235t-109 -158t-167 -89t-213 -28q-240 0 -362 110t-122 370zM425 1546q0 78 63 124t173 46q120 0 173 -43t53 -119q0 -82 -64 -127t-172 -45q-120 0 -173 41 t-53 123zM577 1548q0 -36 18 -54t62 -18q76 0 76 72q0 74 -76 74q-80 0 -80 -74z" />
<glyph unicode="&#x16f;" horiz-adv-x="1092" d="M122 432q0 46 1 110t3 139t3 157t1 164h258q0 -76 -1 -151t-3 -143t-3 -128t-1 -104q0 -88 9 -145t26 -90t43 -45t60 -12q42 0 90 23t96 59v736h258v-1002h-210l-20 106q-64 -58 -140 -93t-162 -35q-154 0 -231 105t-77 349zM310 1284q0 94 67 149t181 55q124 0 180 -51 t56 -145q0 -96 -66 -151t-180 -55q-126 0 -182 50t-56 148zM472 1286q0 -82 80 -82q44 0 62 21t18 61q0 86 -80 86t-80 -86z" />
<glyph unicode="&#x170;" horiz-adv-x="1304" d="M146 458v892h270v-864q0 -172 57 -241t181 -69q56 0 101 14t76 49t47 91t16 140v880h264v-862v0q0 -138 -39 -235t-109 -158t-167 -89t-213 -28q-240 0 -362 110t-122 370zM340 1492l296 244l158 -106l-342 -206zM760 1508l346 220l148 -118l-390 -184z" />
<glyph unicode="&#x171;" horiz-adv-x="1092" d="M122 432q0 46 1 110t3 139t3 157t1 164h258q0 -76 -1 -151t-3 -143t-3 -128t-1 -104q0 -88 9 -145t26 -90t43 -45t60 -12q42 0 90 23t96 59v736h258v-1002h-210l-20 106q-64 -58 -140 -93t-162 -35q-154 0 -231 105t-77 349zM234 1176l236 276l176 -98l-286 -248z M618 1180l258 262l180 -100l-308 -232z" />
<glyph unicode="&#x172;" horiz-adv-x="1304" d="M146 458v892h270v-864q0 -172 57 -241t181 -69q56 0 101 14t76 49t47 91t16 140v880h264v-862q0 -142 -39 -238t-113 -160q-96 -84 -144 -143t-48 -111q0 -60 58 -60q22 0 46 7t44 17l32 -112q-42 -26 -94 -39t-100 -13q-192 0 -192 150q0 52 30 106t72 94q-20 -4 -38 -6 t-40 -2q-248 0 -367 112t-119 368z" />
<glyph unicode="&#x173;" horiz-adv-x="1092" d="M124 432q0 46 1 110t2 139l2 157t1 164h258q0 -76 -1 -151l-2 -143t-2 -128t-1 -104q0 -88 9 -145t26 -90t43 -45t60 -12q40 0 87 23t97 59v736h258v-1002q-44 -22 -72 -73t-28 -91q0 -60 58 -60q22 0 46 7t44 17l32 -112q-42 -26 -94 -39t-100 -13q-192 0 -192 150 q0 56 28 113t68 101l-18 106q-64 -58 -140 -93t-164 -35q-154 0 -230 105t-76 349z" />
<glyph unicode="&#x178;" horiz-adv-x="978" d="M-10 1350h296q52 -150 105 -280t117 -258q64 122 117 261t95 277h268v0q-82 -228 -170 -425t-194 -361v-564h-270v564q-52 88 -100 178t-93 186t-87 201zM170 1564q0 62 28 87t98 25t96 -24t26 -88q0 -62 -26 -87t-96 -25t-98 24t-28 88zM582 1564q0 62 27 87t97 25 t97 -24t27 -88q0 -62 -27 -87t-97 -25t-97 24t-27 88z" />
<glyph unicode="&#x179;" horiz-adv-x="981" d="M62 0v176l512 962h-492l6 212h806v-180l-508 -954h536l-6 -216h-854zM380 1550l360 166l116 -156l-398 -122z" />
<glyph unicode="&#x17a;" horiz-adv-x="800" d="M60 0v160l354 650h-340l10 192h628v-158l-358 -650h386l-8 -194h-672zM298 1180l260 270l180 -100l-312 -240z" />
<glyph unicode="&#x17b;" horiz-adv-x="981" d="M62 0v176l512 962h-492l6 212h806v-180l-508 -954h536l-6 -216h-854zM340 1564q0 70 32 96t122 26q46 0 76 -5t47 -19t23 -38t6 -60q0 -68 -31 -94t-121 -26q-46 0 -76 6t-47 19t-24 36t-7 59z" />
<glyph unicode="&#x17c;" horiz-adv-x="800" d="M60 0v160l354 650h-340l10 192h628v-158l-358 -650h386l-8 -194h-672zM253 1266q0 76 31 105t123 29t122 -28t30 -106q0 -76 -30 -105t-122 -29q-46 0 -76 7t-47 22t-24 41t-7 64z" />
<glyph unicode="&#x17d;" horiz-adv-x="981" d="M62 0v176l512 962h-492l6 212h806v-180l-508 -954h536l-6 -216h-854zM194 1610l66 106l240 -104l240 104l64 -104l-306 -174z" />
<glyph unicode="&#x17e;" horiz-adv-x="800" d="M60 0v160l354 650h-340l10 192h628v-158l-358 -650h386l-8 -194h-672zM110 1356l80 104l214 -144l214 144l78 -102l-298 -248z" />
<glyph unicode="&#x192;" d="M-10 -156l38 142q28 -10 64 -18t70 -8q68 0 98 35t38 113l50 488h-238v170h250l28 276q6 74 27 134t60 102t96 65t135 23q76 0 137 -19t109 -47l-38 -142q-28 10 -64 18t-70 8q-66 0 -96 -35t-38 -113l-28 -270h282v-170h-296l-48 -494q-14 -150 -89 -237t-231 -87 q-76 0 -136 19t-110 47z" />
<glyph unicode="&#x218;" horiz-adv-x="992" d="M62 108l64 142q82 -34 158 -53t134 -19q104 0 164 44t60 130q0 66 -42 109t-104 79t-136 70t-136 83t-104 119t-42 176q0 86 32 157t89 121t137 77t174 27q96 0 186 -26t176 -84l-64 -140q-64 26 -128 40t-120 14q-102 0 -149 -43t-47 -111q0 -66 43 -110t107 -80 t139 -71t139 -84t107 -118t43 -173q0 -86 -31 -160t-91 -128t-149 -85t-203 -31q-120 0 -220 35t-186 93zM296 -278q54 15 82 33.5t28 42.5q0 7 -2 12l-4 10t-4 12t-2 20q0 35 26.5 57.5t79.5 22.5q51 0 78.5 -26t27.5 -76q0 -91 -70.5 -137.5t-209.5 -54.5z" />
<glyph unicode="&#x219;" horiz-adv-x="832" d="M56 62l22 134q86 -20 142 -27t102 -7q100 0 141 32t41 78q0 24 -7 44t-27 37t-55 34t-89 37q-144 52 -205 119t-61 177q0 138 100 221t266 83q68 0 135 -17t145 -57l-28 -132q-64 16 -110 23t-88 7q-78 0 -114 -31t-36 -73q0 -22 8 -40t27 -34t53 -32t88 -36 q148 -50 209 -123t61 -181q0 -68 -27 -126t-80 -101t-129 -67t-172 -24q-164 0 -312 82zM202 -278q54 15 82 33.5t28 42.5q0 7 -2 12l-4 10t-4 12t-2 20q0 35 26.5 57.5t79.5 22.5q51 0 78.5 -26t27.5 -76q0 -91 -70.5 -137.5t-209.5 -54.5z" />
<glyph unicode="&#x2c6;" horiz-adv-x="702" d="M58 1214l298 248l288 -246l-80 -104l-214 144l-214 -144z" />
<glyph unicode="&#x2c7;" horiz-adv-x="700" d="M40 1356l80 104l214 -144l214 144l78 -102l-298 -248z" />
<glyph unicode="&#x2d8;" horiz-adv-x="716" d="M54 1444h156q0 -84 33 -118t103 -34t104 34t34 118h158v0q0 -162 -79 -245t-217 -83q-142 0 -217 81t-75 247z" />
<glyph unicode="&#x2d9;" horiz-adv-x="526" d="M106 1266q0 76 31 105t123 29t122 -28t30 -106q0 -76 -30 -105t-122 -29q-46 0 -76 7t-47 22t-24 41t-7 64z" />
<glyph unicode="&#x2da;" horiz-adv-x="576" d="M34 1284q0 94 67 149t181 55q124 0 180 -51t56 -145q0 -96 -66 -151t-180 -55q-126 0 -182 50t-56 148zM196 1286q0 -82 80 -82q44 0 62 21t18 61q0 86 -80 86t-80 -86z" />
<glyph unicode="&#x2db;" horiz-adv-x="618" d="M152 -214q0 54 30 112t92 108h178q-48 -51 -70 -96t-22 -74t13 -44.5t45 -15.5q21 0 45.5 6.5t44.5 17.5l32 -112q-42 -26 -94 -39t-102 -13q-95 0 -143.5 38t-48.5 112z" />
<glyph unicode="&#x2dc;" horiz-adv-x="822" d="M70 1214q46 90 100 136t138 46q48 0 81 -15t59 -33l46 -33t44 -15q28 0 50 20t60 74l102 -74v0q-46 -90 -100 -136t-138 -46q-48 0 -81 15t-59 34l-46 34t-44 15q-28 0 -50 -21t-60 -73z" />
<glyph unicode="&#x2dd;" horiz-adv-x="968" d="M40 1176l236 276l176 -98l-286 -248zM424 1180l258 262l180 -100l-308 -232z" />
<glyph unicode="&#x312;" horiz-adv-x="562" d="M150 1226q0 94 73.5 148.5t224.5 59.5l28 -86q-65 -14 -95.5 -39t-30.5 -51q0 -8 2 -12t5 -9t5 -12.5t2 -20.5q0 -36 -27.5 -59t-80.5 -23q-51 0 -78.5 27t-27.5 77z" />
<glyph unicode="&#x315;" horiz-adv-x="556" d="M174 1134l66 382l184 -36l-120 -368z" />
<glyph unicode="&#x326;" horiz-adv-x="568" d="M102 -278q54 15 82 33.5t28 42.5q0 7 -2 12l-4 10t-4 12t-2 20q0 35 26.5 57.5t79.5 22.5q51 0 78.5 -26t27.5 -76q0 -91 -70.5 -137.5t-209.5 -54.5z" />
<glyph unicode="&#x394;" horiz-adv-x="1148" d="M20 0q76 340 171 681t203 669h354q118 -348 209 -678t173 -672h-1110zM312 202h490v0q-58 230 -121 455l-131 455l-60 -213l-67 -250l-63 -246t-48 -201z" />
<glyph unicode="&#x2206;" horiz-adv-x="1148" d="M20 0q76 340 171 681t203 669h354q118 -348 209 -678t173 -672h-1110zM312 202h490v0q-58 230 -121 455l-131 455l-60 -213l-67 -250l-63 -246t-48 -201z" />
<glyph unicode="&#x3a9;" horiz-adv-x="1324" d="M66 0v176h258q-108 70 -164 208t-56 324q0 120 30 239t98 214t177 153t267 58q146 0 249 -48t169 -134t96 -202t30 -250q0 -204 -66 -345t-172 -217h276v-176h-516v168q46 30 82 74t61 108t38 151t13 201q0 224 -70 343t-208 119q-68 0 -119 -32t-84 -91t-50 -142 t-17 -185q0 -238 50 -364t144 -182v-168h-516z" />
<glyph unicode="&#x2126;" horiz-adv-x="1324" d="M66 0v176h258q-108 70 -164 208t-56 324q0 120 30 239t98 214t177 153t267 58q146 0 249 -48t169 -134t96 -202t30 -250q0 -204 -66 -345t-172 -217h276v-176h-516v168q46 30 82 74t61 108t38 151t13 201q0 224 -70 343t-208 119q-68 0 -119 -32t-84 -91t-50 -142 t-17 -185q0 -238 50 -364t144 -182v-168h-516z" />
<glyph unicode="&#x3c0;" horiz-adv-x="1258" d="M30 822v180h1146v-180h-188v-526q0 -70 21 -97t69 -27q28 0 54 4t54 12l20 -152v0q-52 -26 -112 -41t-112 -15q-136 0 -194 57t-58 195v590h-310v-822h-258v822h-132z" />
<glyph unicode="&#x2000;" horiz-adv-x="900" />
<glyph unicode="&#x2001;" horiz-adv-x="1800" />
<glyph unicode="&#x2002;" horiz-adv-x="900" />
<glyph unicode="&#x2003;" horiz-adv-x="1800" />
<glyph unicode="&#x2004;" horiz-adv-x="600" />
<glyph unicode="&#x2005;" horiz-adv-x="450" />
<glyph unicode="&#x2006;" horiz-adv-x="300" />
<glyph unicode="&#x2007;" horiz-adv-x="300" />
<glyph unicode="&#x2008;" horiz-adv-x="225" />
<glyph unicode="&#x2009;" horiz-adv-x="360" />
<glyph unicode="&#x200a;" horiz-adv-x="100" />
<glyph unicode="&#x2011;" horiz-adv-x="474" d="M52 478v190h420v-190h-420z" />
<glyph unicode="&#x2013;" d="M90 506v184h822v-184h-822z" />
<glyph unicode="&#x2014;" horiz-adv-x="2000" d="M258 506v184h1484v-184h-1484z" />
<glyph unicode="&#x2018;" horiz-adv-x="614" d="M152 986q0 134 64 238t206 200l100 -98q-82 -64 -111 -108t-29 -78q0 -22 10 -34l22 -26t22 -35t10 -59q0 -44 -6 -74t-22 -48t-46 -26t-78 -8q-90 0 -116 36t-26 120z" />
<glyph unicode="&#x2019;" horiz-adv-x="606" d="M82 898q82 64 111 107t29 77q0 22 -10 35t-23 26t-23 34t-10 61q0 86 29 121t125 35q90 0 116 -36t26 -120q0 -136 -64 -239t-206 -199z" />
<glyph unicode="&#x201a;" horiz-adv-x="600" d="M76 -226q82 64 111 108t29 78q0 22 -10 35t-23 26t-23 34t-10 61q0 86 29 121t125 35q88 0 115 -36t27 -120q0 -136 -65 -240t-207 -198z" />
<glyph unicode="&#x201c;" horiz-adv-x="956" d="M122 986q0 130 61 231t203 201l94 -94q-44 -34 -72 -61t-45 -50t-23 -42t-6 -37q0 -22 10 -33l21 -24t21 -33t10 -58q0 -86 -27 -118t-117 -32q-82 0 -106 34t-24 116zM528 986q0 132 60 232t194 190l92 -92q-78 -62 -106 -105t-28 -77q0 -22 9 -33t21 -24t21 -33t9 -58 q0 -42 -5 -71t-21 -47t-44 -25t-72 -7q-82 0 -106 34t-24 116z" />
<glyph unicode="&#x201d;" horiz-adv-x="956" d="M82 912q76 64 104 106t28 76q0 22 -9 34t-21 25t-21 32t-9 57q0 86 27 119t117 33q82 0 106 -35t24 -115q0 -132 -61 -233t-193 -191zM476 904q86 68 115 112t29 78q0 22 -9 34t-21 25t-21 32t-9 57q0 86 27 119t115 33q84 0 108 -34t24 -116q0 -130 -62 -233t-204 -201z " />
<glyph unicode="&#x201e;" horiz-adv-x="956" d="M82 -218q76 64 104 106t28 76q0 22 -9 34t-21 25t-21 32t-9 57q0 86 27 119t117 33q82 0 106 -35t24 -115q0 -132 -61 -233t-193 -191zM476 -226q86 70 115 113t29 77q0 22 -9 34t-21 25t-21 32t-9 57q0 86 27 119t115 33q84 0 108 -34t24 -116q0 -130 -62 -233 t-204 -201z" />
<glyph unicode="&#x2020;" horiz-adv-x="774" d="M60 1002v164h206v252h242v-252h204v-164h-204v-610h-242v610h-206z" />
<glyph unicode="&#x2021;" horiz-adv-x="774" d="M60 272v164h208v544h-208v166h208v272h238v-272h206v-166h-206v-544h206v-164h-206v-272h-238v272h-208z" />
<glyph unicode="&#x2022;" d="M154 606q0 72 27 135t74 110t110 74t135 27t135 -27t110 -74t74 -110t27 -135t-27 -135t-74 -110t-110 -74t-135 -27t-135 27t-110 74t-74 110t-27 135z" />
<glyph unicode="&#x2026;" horiz-adv-x="1554" d="M156 122q0 44 6 72t22 45t44 24t74 7q44 0 72 -7t44 -23t22 -45t6 -71q0 -84 -28 -114t-116 -30q-90 0 -118 30t-28 112zM624 122q0 44 6 72t22 45t44 24t74 7q44 0 72 -7t44 -23t22 -45t6 -71q0 -84 -29 -114t-117 -30t-116 30t-28 112zM1090 122q0 44 6 72t22 45t44 24 t74 7q44 0 72 -7t44 -23t22 -45t6 -71q0 -84 -28 -114t-116 -30q-90 0 -118 30t-28 112z" />
<glyph unicode="&#x202f;" horiz-adv-x="360" />
<glyph unicode="&#x2030;" horiz-adv-x="2112" d="M94 1050q0 170 78 246t232 76q162 0 226 -77t64 -245q0 -164 -77 -241t-233 -77q-82 0 -138 18t-90 56t-48 99t-14 145zM140 34l998 1358l132 -76l-998 -1358zM284 1052q0 -102 29 -142t81 -40q56 0 82 42t26 136q0 98 -27 142t-83 44q-48 0 -78 -38t-30 -144zM716 296 q0 170 79 246t231 76q164 0 227 -78t63 -244q0 -164 -77 -241t-233 -77q-82 0 -138 18t-90 56t-48 99t-14 145zM908 298q0 -102 28 -142t80 -40q56 0 82 42t26 136q0 98 -26 142t-82 44q-50 0 -79 -38t-29 -144zM1410 296q0 170 78 246t230 76q164 0 227 -78t63 -244 q0 -164 -76 -241t-232 -77q-84 0 -139 18t-89 56t-48 99t-14 145zM1600 298q0 -102 29 -142t81 -40q56 0 82 42t26 136q0 98 -27 142t-83 44q-48 0 -78 -38t-30 -144z" />
<glyph unicode="&#x2039;" horiz-adv-x="614" d="M70 574l266 408l174 -60l-186 -348l186 -350l-174 -58z" />
<glyph unicode="&#x203a;" horiz-adv-x="616" d="M106 226l186 348l-186 350l174 58l264 -408l-266 -408z" />
<glyph unicode="&#x2044;" horiz-adv-x="500" d="M-286 34l1000 1358l132 -76l-998 -1358z" />
<glyph unicode="&#x2215;" horiz-adv-x="500" d="M-286 34l1000 1358l132 -76l-998 -1358z" />
<glyph unicode="&#x205f;" horiz-adv-x="450" />
<glyph unicode="&#x20ac;" d="M4 446v162h102v60v38q0 22 2 44h-104v162h122q40 220 167 340t309 120q106 0 196 -46t148 -154l-108 -114q-38 56 -87 86t-119 30q-52 0 -92 -20t-70 -56t-50 -84t-28 -102h298v-162h-320q-2 -16 -2 -32v-32v-38q0 -18 2 -40h320v-162h-298q16 -132 78 -199t164 -67 q70 0 126 28t104 82l102 -130v0q-68 -84 -160 -133t-218 -49q-200 0 -320 117t-148 351h-116z" />
<glyph unicode="&#x2122;" horiz-adv-x="844" d="M46 1260v90h248v-90h-66v-244h-114v244h-68zM316 1016q2 84 7 167t13 167h152l60 -204l60 204h144q10 -84 14 -167t6 -167h-108q0 52 -1 101t-5 95l-62 -196h-112l-62 194q-2 -46 -3 -94t-1 -100h-102z" />
<glyph unicode="&#x2202;" horiz-adv-x="1068" d="M64 460q0 272 125 410t371 138q22 0 44 -3t36 -7q-24 44 -54 83t-72 78t-97 79t-127 84l174 110q120 -50 216 -122t164 -172t105 -231t37 -297q0 -160 -35 -278t-98 -196t-151 -117t-194 -39q-218 0 -331 121t-113 359zM340 504q0 -178 50 -252t144 -74q36 0 68 14t56 53 t39 111t15 190q0 90 -7 154t-17 112q-22 10 -61 15t-71 5q-96 0 -156 -81t-60 -247z" />
<glyph unicode="&#x220f;" horiz-adv-x="1306" d="M42 1142v208h1226v-208h-126v-1142h-270v1142h-434v-1142h-270v1142h-126z" />
<glyph unicode="&#x2211;" d="M80 0v182l414 514l-394 466v188h794v-206h-484l372 -436l-398 -498h540v-210h-844z" />
<glyph unicode="&#x2212;" d="M76 508v184h850v-184h-850z" />
<glyph unicode="&#x221a;" d="M14 830v172h336l156 -716q76 260 136 518t106 546h242v0q-64 -340 -152 -673t-216 -677h-280l-200 830h-128z" />
<glyph unicode="&#x221e;" horiz-adv-x="2030" d="M106 580q0 90 30 167t86 133t137 87t183 31q120 0 237 -73t241 -185q50 46 108 92t120 83t127 60t133 23q106 0 185 -30t131 -83t77 -124t25 -153q0 -86 -24 -162t-77 -133t-136 -90t-203 -33q-114 0 -233 71t-245 183q-52 -48 -108 -93t-117 -81t-127 -58t-134 -22 q-110 0 -189 32t-129 85t-74 124t-24 149zM378 592q0 -34 9 -66t28 -59t49 -43t72 -16q64 0 134 52t150 130q-84 84 -154 137t-132 53q-42 0 -72 -16t-48 -43t-27 -60t-9 -69zM1208 598q88 -84 159 -137t135 -53q42 0 71 16t48 43t27 61t8 68q0 32 -8 65t-27 60t-49 43 t-74 16q-64 0 -135 -52t-155 -130z" />
<glyph unicode="&#x222b;" horiz-adv-x="800" d="M18 -310l34 148q54 -16 104 -16q58 0 83 32t25 106v1162q0 150 64 234t218 84q70 0 123 -16t99 -38l-34 -148q-26 6 -53 11t-53 5q-58 0 -83 -32t-25 -106v-1162q0 -150 -64 -234t-216 -84q-70 0 -123 16t-99 38z" />
<glyph unicode="&#x2248;" d="M68 422q70 64 132 93t134 29q66 0 111 -17t82 -36t74 -36t85 -17q72 0 174 88l68 -142v0q-70 -64 -132 -93t-132 -29q-66 0 -112 17t-83 37t-73 37t-84 17q-40 0 -81 -22t-93 -68zM68 814q70 64 132 93t134 29q66 0 111 -17t82 -37t74 -37t85 -17q72 0 174 90l68 -144v0 q-70 -64 -132 -92t-132 -28q-66 0 -112 17t-83 36l-73 36t-84 17q-40 0 -81 -21t-93 -67z" />
<glyph unicode="&#x2260;" d="M80 332v166h262l108 202h-370v166h456l162 304l168 -82l-120 -222h176v-166h-260l-108 -202h368v-166h-454l-162 -306l-168 84l120 222h-178z" />
<glyph unicode="&#x2264;" d="M80 0v174h838v-174h-838zM80 622v170l770 348l70 -176l-602 -254l602 -256l-70 -180z" />
<glyph unicode="&#x2265;" d="M78 450l600 254l-600 256l70 180l770 -348v-170l-770 -348zM80 0v174h838v-174h-838z" />
<glyph unicode="&#x25ca;" d="M36 674l368 676h194l366 -674l-368 -676h-194zM270 696l242 -426l220 386l-242 424z" />
<glyph unicode="&#xe080;" horiz-adv-x="1666" d="M24 822v180h128v72q0 83 15 150.5t55.5 115.5t111.5 74t182 26q28 0 59 -2t61 -5t58.5 -7t51.5 -8h240v-496q53 44 116 73t134 29q89 0 155.5 -38t110.5 -104t66 -154t22 -188q0 -149 -38 -255.5t-107 -174.5t-166 -100t-215 -32q-92 0 -178 11.5t-158 28.5v1220 q-35 8 -75.5 13t-76.5 5q-47 0 -79 -9.5t-51.5 -30t-28.5 -53.5t-9 -79v-82h158v-180h-158v-822h-256v822h-128zM986 180q20 -8 49.5 -13t68.5 -5q49 0 90 20t71 62t46.5 106.5t16.5 153.5q0 157 -44 239.5t-122 82.5q-35 0 -81.5 -21t-94.5 -63v-562z" />
<glyph unicode="&#xe081;" horiz-adv-x="1690" d="M24 822v180h128v72q0 83 15 150.5t55.5 115.5t111.5 74t182 26q28 0 59 -2t61 -5t58.5 -7t51.5 -8h240v-502q53 45 122 76.5t152 31.5q75 0 132.5 -24.5t96.5 -78.5t59 -140.5t20 -210.5q0 -45 -1.5 -108.5t-3 -138.5t-2.5 -157.5t-1 -165.5h-258q0 76 1 152t2.5 144.5 t3 127t1.5 100.5q0 90 -9 147t-26.5 90t-44 45t-60.5 12q-38 0 -85.5 -21.5t-98.5 -60.5v-736h-258v1238q-35 8 -75.5 13t-76.5 5q-47 0 -79 -9.5t-51.5 -30t-28.5 -53.5t-9 -79v-82h158v-180h-158v-822h-256v822h-128z" />
<glyph unicode="&#xe082;" horiz-adv-x="1116" d="M24 822v180h128v120q0 74 15 133t48 100t86 63t129 22q63 0 116 -13.5t86 -30.5l-30 -160q-20 8 -45 13t-49 5q-54 0 -77 -30.5t-23 -93.5v-128h578v-912q0 -73 -12.5 -134.5t-39 -116.5t-68.5 -104.5t-100 -98.5l-168 76q60 71 95 152t35 176v782h-320v-822h-256v822 h-128zM704 1266q0 37 6.5 63t24 41.5t47 22.5t76.5 7q46 0 76 -6.5t46.5 -21.5t23 -41t6.5 -65q0 -38 -6.5 -63.5t-23.5 -41t-46.5 -22.5t-75.5 -7q-47 0 -77 6.5t-47 22t-23.5 41.5t-6.5 64z" />
<glyph unicode="&#xe083;" horiz-adv-x="1570" d="M24 822v180h128v72q0 83 15 150.5t55.5 115.5t111.5 74t182 26q28 0 59 -2t61 -5t58.5 -7t51.5 -8h240v-802l228 386h302l-298 -418l338 -584h-302l-268 496v-496h-258v1238q-35 8 -75.5 13t-76.5 5q-47 0 -79 -9.5t-51.5 -30t-28.5 -53.5t-9 -79v-82h158v-180h-158v-822 h-256v822h-128z" />
<glyph unicode="&#xe084;" horiz-adv-x="1186" d="M24 822v180h128v104q0 73 15.5 132t49 100.5t86.5 63.5t129 22q65 0 120 -15t102 -39l-32 -152q-23 8 -52.5 14t-55.5 6q-57 0 -81.5 -30.5t-24.5 -93.5v-112h320v120q0 74 15.5 133t49 100t87 63t130.5 22q75 0 134.5 -19t103.5 -43l-38 -148q-63 24 -118 24 q-59 0 -82.5 -30.5t-23.5 -93.5v-128h180v-180h-180v-822h-258v822h-320v-822h-256v822h-128z" />
<glyph unicode="&#xe085;" horiz-adv-x="1116" d="M24 822v180h128v120q0 74 15 133t48 100t86 63t129 22q63 0 116 -13.5t86 -30.5l-30 -160q-20 8 -45 13t-49 5q-54 0 -77 -30.5t-23 -93.5v-128h578v-1002h-258v822h-320v-822h-256v822h-128zM704 1266q0 37 6.5 63t24 41.5t47 22.5t76.5 7q46 0 76 -6.5t46.5 -21.5 t23 -41t6.5 -65q0 -38 -6.5 -63.5t-23.5 -41t-46.5 -22.5t-75.5 -7q-47 0 -77 6.5t-47 22t-23.5 41.5t-6.5 64z" />
<glyph unicode="&#xe086;" horiz-adv-x="1144" d="M24 822v180h128v72q0 83 15 150.5t55.5 115.5t111.5 74t182 26q57 0 119 -6.5t107 -15.5h240v-1130q0 -42 3 -67.5t10.5 -39t21 -17.5t33.5 -4q14 0 27 1t21 1l10 -152v0q-35 -12 -81 -19t-103 -7q-50 0 -87 9t-62.5 31.5t-38 61.5t-12.5 100v1052q-33 8 -72.5 13 t-75.5 5q-47 0 -79 -9.5t-51.5 -30t-28.5 -53.5t-9 -79v-82h158v-180h-158v-822h-256v822h-128z" />
<glyph unicode="&#xe087;" horiz-adv-x="1692" d="M24 822v180h128v104q0 73 15.5 132t49 100.5t86.5 63.5t129 22q65 0 120 -15t102 -39l-32 -152q-23 8 -52.5 14t-55.5 6q-57 0 -81.5 -30.5t-24.5 -93.5v-112h320v120q0 74 15.5 133t48.5 100t86 63t128 22q65 0 118 -13.5t86 -30.5l-32 -160q-18 8 -43 13t-51 5 q-54 0 -76 -30.5t-22 -93.5v-128h576v-1002h-258v822h-318v-822h-258v822h-320v-822h-256v822h-128zM1280 1266q0 37 7 63t24.5 41.5t47 22.5t75.5 7t76 -6.5t46.5 -21.5t23 -41t6.5 -65q0 -38 -6.5 -63.5t-23.5 -41t-46.5 -22.5t-75.5 -7q-47 0 -76.5 6.5t-47 22t-24 41.5 t-6.5 64z" />
<glyph unicode="&#xe088;" horiz-adv-x="1722" d="M24 822v180h128v104q0 73 15.5 132t49 100.5t86.5 63.5t129 22q65 0 120 -15t102 -39l-38 -150q-23 8 -49.5 13t-52.5 5q-57 0 -81.5 -30.5t-24.5 -93.5v-112h320v72q0 83 15.5 150.5t56 115.5t111.5 74t181 26q28 0 58.5 -2t60.5 -5t58 -7t51 -8h238v-1130 q0 -42 3 -67.5t10.5 -39t21 -17.5t33.5 -4q14 0 27 1t21 1l12 -152q-36 -12 -82.5 -19t-103.5 -7q-49 0 -86 9t-62 31.5t-37.5 61.5t-12.5 100v1052q-33 8 -73 13t-75 5q-47 0 -79 -9.5t-51.5 -30t-28.5 -53.5t-9 -79v-82h158v-180h-158v-822h-258v822h-320v-822h-256v822 h-128z" />
<glyph unicode="&#xe0a0;" horiz-adv-x="960" d="M112 1542l308 174l304 -170l-68 -108l-240 104l-238 -104z" />
<glyph unicode="&#xe0a1;" horiz-adv-x="576" d="M30 1546q0 78 63 124t173 46q120 0 173 -43t53 -119q0 -82 -64 -127t-172 -45q-120 0 -173 41t-53 123zM182 1548q0 -36 18 -54t62 -18q76 0 76 72q0 74 -76 74q-80 0 -80 -74z" />
<glyph unicode="&#xe0a2;" horiz-adv-x="960" d="M60 1522q46 88 103 134t141 46q50 0 84 -15t60 -34l48 -34t46 -15q28 0 51 21t61 75l106 -74v0q-46 -90 -103 -135t-143 -45q-48 0 -82 15t-60 33l-48 33t-46 15q-28 0 -51 -20t-61 -74z" />
<glyph unicode="&#xe0a3;" horiz-adv-x="638" d="M30 1726h156q0 -54 32 -93t104 -39q70 0 103 39t33 93h154v0q0 -134 -77 -216t-215 -82q-140 0 -215 79t-75 219z" />
<glyph unicode="&#xe0a4;" horiz-adv-x="508" d="M106 1564q0 70 32 96t122 26q46 0 76 -5t47 -19t23 -38t6 -60q0 -68 -31 -94t-121 -26q-46 0 -76 6t-47 19t-24 36t-7 59z" />
<glyph unicode="&#xe0a5;" horiz-adv-x="846" d="M130 1268q0 33 6 55.5t20 36.5t37.5 20t58.5 6t57.5 -5.5t36 -19t19 -36.5t5.5 -57q0 -32 -5.5 -54.5t-19 -36t-36 -19.5t-57.5 -6t-58.5 5.5t-37.5 19t-20 35.5t-6 56zM474 1268q0 33 6 55.5t19.5 36.5t36.5 20t58 6t58.5 -5.5t37 -19t19 -36.5t5.5 -57 q0 -32 -5.5 -54.5t-19 -36t-37 -19.5t-58.5 -6t-58 5.5t-36.5 19t-19.5 35.5t-6 56z" />
<glyph unicode="&#xe0ae;" horiz-adv-x="566" d="M178 1134l66 382l184 -36l-122 -368z" />
<glyph unicode="&#xea43;" horiz-adv-x="2000" d="M24 950q-2 18 14 25t20 23q14 24 24 48l20 48q-2 12 7 26t15 26q50 102 95 205t75 211q-6 28 8 42q12 4 16 -4t8 -14q-18 -78 -48 -150t-63 -143l-66 -143t-57 -148l2 -4q76 12 146 26t146 16q24 -4 54 -4t54 10l6 -8q-2 -4 -5 -8t-18 -8t-48 -9t-93 -9q-68 -6 -130 -17 t-126 -33q-12 -22 -28 -16t-28 12zM136 -432q4 20 13 40t35 28l-16 -32t-12 -34q24 -16 56 -22t67 -4t68 12t61 24q28 10 45 28t29 40t21 45t21 45q16 70 22 151t6 141q10 22 5 48t1 48q-4 10 -12 7t-12 -5q-16 -16 -24 -35t-24 -31q2 -16 -5 -24t-16 -15t-18 -15t-9 -22 q-44 -46 -82 -93t-72 -95q-10 -12 -16 -24t-22 -10q-10 14 -10 30q0 14 2 29t5 31t1 32q14 34 23 70t37 70q22 48 57 95t85 77q28 8 48 -5l42 -27q20 24 26 48q22 -8 22 -40q-12 -10 -5 -17t3 -17q-4 -76 -3 -152t-8 -149t-35 -139t-86 -122q-66 -40 -144 -49t-148 11 q-8 4 -16 11t-6 17zM270 -158q6 -2 7 1t5 7q30 36 62 70l64 70t58 74t44 82q-4 22 -28 26t-42 -4q-22 -18 -44 -38t-40 -42q-12 -30 -28 -60t-29 -60t-22 -61t-7 -65zM570 1118q8 38 11 73t13 71q4 14 -2 29t10 27q16 8 24 -8q0 -30 -5 -63t-9 -64t-4 -59q0 -26 10 -46 q14 -10 21 -4t11 18t6 25t8 17q10 40 10 84t14 84q6 6 10 15t9 16t12 10t19 -5q12 -40 11 -77t-5 -75t-6 -76t8 -76q2 -6 9 -8t13 6l4 11t10 23t14 22t18 10q-12 -24 -21 -49t-27 -47q-14 -6 -26 1t-16 19q-28 72 -12 150q-2 2 0 16t5 32t3 36t-6 26q-14 -30 -17 -62t-5 -63 t-10 -60t-34 -55q-4 -4 -15 -7t-24 3t-24 23t-15 57zM598 514q16 38 38 72q10 10 20 23t22 23t26 15t30 -1q10 -6 20 0q20 42 32 88t18 92l20 16q12 -4 14 -10t-1 -14t-7 -16t-2 -16q-10 -56 -25 -111t-21 -109q-4 -30 -12 -58t0 -58q34 42 65 92t77 92q14 16 30 32t38 28 q14 -12 28 -29t28 -27q-2 -18 -3 -41t-9 -39q54 12 108 20t106 24q16 -10 12 -26q-36 -6 -70 -16l-68 -20t-69 -17t-71 -3q-6 -6 -11 -22t-3 -32t10 -26t26 -4q6 8 9 23t17 19q8 -18 0 -35t-20 -31q-6 -4 -21 -5t-28 8t-21 31t0 64q-4 6 -9 12t-1 16q24 16 27 41t9 51 q-4 2 -4 4t-4 4q-36 -22 -55 -58t-47 -64q0 -14 -9 -25t-19 -22t-17 -23t-5 -28q-6 -6 -7 -16t-3 -19t-6 -16t-18 -9q-18 4 -23 15t-5 23q0 14 3 28t1 26q-4 38 6 70t6 66q-18 -10 -24 -28t-22 -34q-10 -12 -20 -28t-21 -30t-26 -21t-35 -3q-20 34 -4 72zM618 464 q10 -4 14 2l8 12q22 22 41 46t35 54l-2 40q-14 4 -26 -6t-22 -22q-22 -28 -41 -60t-7 -66zM664 58q4 20 28 36q16 0 24 -12t12 -24q8 2 16 11t16 16t16 9t18 -8l48 -36q-8 -6 -16 -3t-16 7t-16 7t-18 -3q-14 -10 -20 -22t-10 -25l-8 -26t-14 -23q-4 -28 -12 -53t-10 -51 l-12 -8t-16 0q-12 16 -5 36t7 36q16 18 13 43t9 45q-6 10 -4 25t0 25q-10 4 -16 -4t-14 2zM865 -95q3 25 7 49l33 63t51 45q16 -10 33 -6l33 8l98 2q10 10 10 24q0 16 4 28q22 58 69 103t111 49q34 4 66 2t62 -18q0 -10 6 -16t14 -10t14 -10t8 -16q16 -28 10 -66t-16 -70 q46 0 91 8t85 16q-10 -12 -23 -16t-27 -6l-28 -4t-26 -10q-34 -4 -64 -13t-46 -43q-10 -20 -22 -39t-23 -39t-18 -41t-3 -45q4 -18 22 -17t30 5q8 0 13 9t15 3t1 -12t-13 -14q-16 -10 -36 -15t-40 5q-14 16 -21 33t-1 39q4 16 20 48t58 100q-16 8 -31 6t-31 -5t-32 -5t-30 4 q10 12 25 18t29 10q12 2 26 2q16 0 30 2t26 7t20 17q14 22 12 45t2 47q-10 4 -9 12t1 12q-10 22 -27 34t-38 17t-43 6t-42 1q-46 -4 -86 -34t-60 -70q-16 -32 -14 -64t14 -66q-6 -24 3 -46l18 -43t13 -45t-10 -50q-12 -10 -27 -8t-25 6q-28 14 -29 44t-11 56q18 12 17 33 t11 37q4 10 3 26t-15 22q-34 -4 -74 -4t-70 -24l4 -44t-1 -44t-12 -42t-29 -34q-22 -4 -48 8q-20 18 -17 43zM871 1181q1 25 7 53q4 18 16 30t14 30q60 48 130 24q8 -6 16 -9t4 -15q-6 -8 -14 0t-18 8q-26 8 -52 -1t-48 -31q-16 -24 -26 -53t0 -57q40 -60 104 -68q18 8 38 8 q22 0 38 20q14 8 21 25t23 9q-16 -34 -47 -59t-71 -25t-73 15t-51 49q-12 22 -11 47zM890 -72q-4 -24 2 -46q6 -6 17 -5t20 7t14 17t-1 27q2 8 5 22t4 27t-4 23t-17 12l-30 -38q-6 -22 -10 -46zM972 564q10 2 13 4t7 6q10 10 10 26q0 18 -16 22zM1128 -96q2 -16 6 -33 t26 -21q14 26 7 56t-21 52q-10 -12 -13 -26t-5 -28zM1197 1068q1 6 4 12t4 12t-7 10q8 14 -1 28t3 32q2 60 24 111t56 96t77 84t89 73q8 0 18 3t20 3t18 -4t8 -18q-8 -10 -21 -20t-29 -8q-4 6 -8 14t-16 -2q-58 -46 -114 -97t-82 -119q-10 -40 -16 -84t-3 -86t18 -79t49 -63 q18 -16 43 -13t47 1q14 8 23 17t21 17q4 -18 -13 -26t-31 -20q-30 -12 -65 -5t-57 29q-42 38 -50 92q-10 4 -9 10zM1347 1155q3 15 10 33t7 34q10 30 29 53t41 47q22 4 45 12t39 -16l8 -12q-14 -34 -19 -71t-11 -73q2 -6 4 -13t10 -7q12 0 18 5t11 13t9 16t12 14 q46 38 85 77l79 79q12 -4 16 -15t4 -23t1 -25t7 -21q8 -6 4 -16q14 -30 12 -62t-8 -66q-8 -16 -21 -31t-31 -19q-16 4 -22 13t-16 21l6 28q10 -4 8 -16t12 -16q10 -4 19 6t15 16q10 46 5 90t-27 84l-12 -6l-46 -41t-38 -49l-16 -8q-28 -28 -50 -59t-48 -53q-12 -2 -17 3 t-7 13t-3 18t-5 16q4 8 3 18t-7 16q-12 2 -13 -7t-9 -13q-16 -16 -29 -23t-35 -9q-22 6 -27 18t-2 27zM1372 1142q12 -4 23 8t25 8q6 14 18 29t22 30t13 32t-9 33q12 0 13 11t1 15q-10 8 -14 -1t-10 -5q-46 -22 -64 -68t-18 -92zM1710 898q28 20 55 43t47 53q34 30 64 69 t40 91q26 40 31 82t3 84q-4 58 -27 116t-81 86q12 18 25 16t24 -12t21 -25t16 -23q30 -38 42 -83t10 -93t-16 -96t-34 -92q-32 -68 -89 -127t-131 -89z" />
<glyph unicode="&#xeeee;" horiz-adv-x="350" d="M0 -582v2382h350v-2382h-350z" />
<glyph unicode="&#xf000;" horiz-adv-x="1920" d="M158 970q6 6 18 10q16 -8 36 -9t42 -5q14 2 28 1t24 7q-2 52 8 92t14 94q-2 4 -6 8q-30 2 -57 0t-55 10q-4 10 6 10q28 -8 56 -8t56 2l4 6q4 34 11 69t19 63v6q46 52 105 84t133 40q36 4 72 -4t68 -22q10 -4 20 -4t20 -4q34 -8 68 -24t56 -46q4 -4 0 -18q-24 -26 -58 -16 q-10 12 -18 23t-10 25q-26 40 -70 50t-86 22l-62 4q-4 -4 -12 -2t-14 -2q-66 -20 -110 -42q-12 -16 -31 -27t-23 -33q-12 -30 -16 -68t-6 -72q10 -8 22 -5t22 1q42 4 84 4h88q8 -4 2 -14q-16 -12 -31 -1t-31 5q-20 2 -41 -1t-41 -1q-18 -4 -38 -4q-18 0 -34 -10l-6 -8 q-4 -38 -3 -62t5 -64q4 -14 1 -28t7 -28q26 -2 41 -1t28 2t28 3t41 2q6 4 13 2t13 -4q2 -2 1 -4t1 -4l-8 -4q-24 4 -42 3t-36 -3t-40 -4t-52 0l-46 -4t-46 0q-32 -2 -66 -2t-62 8zM240 -75q-2 33 8 65q4 40 2 80t4 80q-8 46 -1 89t-1 89q0 64 5 129t9 133q4 72 1 143t1 143 q8 16 23 13t29 1q16 -10 37 -5t37 3q6 6 15 11t11 -9q4 -4 1 -12t5 -12q-4 -28 -3 -76t4 -104t7 -115t6 -107q64 20 117 55t115 57q10 4 19 12t23 12q4 2 8 6t12 0q10 -4 8 -14t-2 -20q-20 -58 -10 -122q4 -10 13 -6t15 4q16 14 34 23t34 21l40 23t42 19l47 32t49 26l40 32 q2 8 12 14q6 0 11 -4t11 -8q0 -28 6 -57t6 -57q2 -6 6 -5t6 -3q8 -10 4 -20l-8 -20l4 -4q34 8 63 26t58 38t58 38t63 26q10 10 22 13t22 13q10 2 18 9t17 13t19 8t22 -6q4 0 8 -2t6 -6q-2 -8 1 -13t7 -11q-4 -16 0 -29t-4 -25q2 -26 0 -50t10 -46q-4 -14 5 -25t-1 -21 q2 -16 0 -29t8 -25q2 -10 3 -19t-5 -17q4 -22 5 -46t9 -46q-4 -8 -2 -16t2 -16q0 -76 11 -147t13 -147q0 -4 3 -9t-1 -9l-8 -8q-44 4 -98 -5t-96 -3q-112 4 -218 -8t-216 0q-50 -8 -97 -3t-95 9q-58 4 -119 3t-123 -1q-42 0 -100 -3t-100 -13q-8 -2 -18 -2q-8 0 -12 10 q0 32 -2 65zM324 216q4 -52 2 -109t2 -111q8 0 15 3t13 -1q12 4 23 -1t23 1q2 32 2 62q0 32 2 64q4 10 13 15t19 9q8 4 16 0t14 6l-2 56q-8 10 -19 9t-23 -1q-8 -8 -14 -8q-16 4 -15 19t-3 25q-4 8 8 20q20 6 39 9t39 7l12 8q-4 18 1 33t5 31q-24 4 -51 3t-53 -3 q-16 -2 -30 -5t-24 -11q-2 -32 -6 -65zM480 12q0 -14 10 -22t20 -12q10 10 16 4q16 -4 29 9t29 23q10 2 12 -2t2 -12q0 -6 -1 -14t5 -12q10 -4 16 0t16 4q8 4 16 5t14 7l2 78v0q-6 22 -6 44t1 44t-1 43t-14 39q-22 14 -46 24l-16 10q-16 -4 -33 -1t-33 -9q-14 -8 -14 -22 t-2 -30q10 -4 23 -3l25 2t23 -2t19 -15q-2 -8 3 -12t-1 -12q-2 -4 -2 -8t4 -8t2 -10t-8 -8q-14 -4 -27 -3t-29 -3q-22 -10 -34 -31t-16 -43q-6 -10 -1 -21t-3 -21zM518 45q4 11 6 21q0 12 18 20q12 0 20 8q6 -2 15 -1t13 -9q0 -16 -9 -26t-19 -20q-8 -2 -16 -8t-18 0 q-14 4 -10 15zM642 1074q6 18 17 34t31 26l44 21t50 5q32 -2 63 -8t47 -34q6 -38 -14 -62q-22 -14 -40 -31t-44 -21q-12 4 -14 -7t-12 -3t-24 4t-26 -2q-12 0 -22 1t-20 5q-16 14 -31 31t-5 41zM710 -14q14 -8 31 -2t31 12q20 8 28 -6t20 -22q16 0 26 2q22 12 47 39t23 51 q18 34 13 70t-13 76q2 6 -5 12t-16 10l-18 8t-11 8q-4 4 -10 4q-4 0 -6 -6q-22 2 -38 -8q-10 -6 -15 -16t-13 -14q-10 -6 -18 6q8 36 4 73t-10 75l-4 14h-16q-18 -6 -16 -22t-2 -28q-6 -34 -4 -68t-4 -68q4 -34 0 -66t0 -62q0 -18 -3 -35t-1 -37zM711 1070q15 -28 31 -54 q4 -8 10 -6t14 0q14 -4 26 3t24 11q12 12 27 22t7 32q-4 22 -15 43t-37 25q-4 -10 -13 -7t-15 1q-14 6 -28 2t-24 -14q-22 -30 -7 -58zM782 96q4 16 5 33t11 31q14 8 20 22t22 14l6 -6q-4 -14 4 -20t10 -16q14 -28 8 -58t-26 -52q-4 -8 -11 -9t-13 -5q-26 4 -29 26t-7 40z M956 1146q26 -2 51 2t53 0q6 -6 6 -14v-16t1 -15t11 -9q28 12 52 29t52 27q12 -8 28 -3t20 -15q4 -22 3 -43t1 -43q4 -6 3 -13t5 -11q18 -4 26 0q8 0 16 -2t18 -2q4 -6 0 -10l-6 -4q-24 0 -51 -1t-51 -9q-8 4 -15 5t-11 11q4 28 7 56t-5 56q-4 6 -13 1t-15 -9 q-28 -16 -53 -39t-29 -57q-8 -8 -18 -11t-20 1q-10 14 -6 30t0 32l-2 62q-6 6 -16 3t-20 1q-4 4 -13 2t-9 8zM974 218q0 -58 1 -111t7 -111l6 -8q10 -8 23 -3t23 1q-6 22 -1 41t-3 41q4 22 10 45t22 43q12 10 26 13t26 13q2 16 6 32t0 32q-16 -2 -33 -5t-27 -21 q-8 -8 -10 -23t-20 -11q-4 16 -4 28v30q-8 4 -15 0t-15 0q-14 -8 -22 -26zM1144 82q4 -20 1 -44t11 -44q30 0 60 10q4 6 4 12v14q0 40 -2 78t-2 74q0 14 2 27t-2 25q-14 10 -27 4t-29 -4q-14 -22 -10 -48t0 -52q-4 -10 -4 -24t-2 -28zM1158 358q-4 -18 6 -30q4 -10 16 -11 t22 3q18 12 14 38q-8 22 -24 30q-4 4 -10 5t-10 -5q-10 -12 -14 -30zM1264 2h48q6 2 13 -2t11 2v26q0 14 -2 30q0 8 -2 16t-3 16t2 14t13 10q10 -4 11 -13t7 -17q-2 -14 7 -24t13 -22q20 -12 30 -32t28 -34q6 2 11 -3t15 -1q12 0 12 12l-16 33t-20 31q-12 22 -26 41t-18 45 q-4 10 -10 17t-2 17q14 16 33 26t33 26l-18 34q-18 -2 -32 -9t-30 -11q-8 -4 -18 -12t-20 2q2 40 3 79t-1 77l-4 6q-16 0 -28 5t-26 9q-4 -22 -7 -47t1 -49q-6 -16 -1 -39t-3 -39q2 -62 -3 -104t1 -102zM1312 1130q6 4 14 4t14 2q18 -4 38 -2t38 2q8 6 9 15t1 19q6 14 7 32 t11 28q10 6 16 -2t12 -12q10 -16 6 -35t4 -37q8 -12 21 -8t23 0q46 4 98 3t128 9q6 -4 8 -6q0 -8 -4 -8q-22 4 -42 1t-42 -5q-68 -4 -107 -6t-73 -8q-16 -14 -14 -32t-6 -34q0 -10 3 -16t5 -14q8 -10 28 -14q14 2 27 8t19 18q0 14 -14 24q-10 8 -21 6t-19 8q6 10 19 8t25 -2 q20 -6 30 -32q-2 -30 -36 -54q-10 -4 -21 -5t-21 -5q-24 6 -49 16t-41 32q-8 24 -2 45t8 43q-4 10 -12 8t-18 0l-66 -2q0 4 -2 4t-2 4z" />
<glyph unicode="&#xf6c9;" horiz-adv-x="960" d="M194 1550l360 166l116 -156l-398 -122z" />
<glyph unicode="&#xf6ca;" horiz-adv-x="960" d="M100 1610l66 106l240 -104l240 104l64 -104l-306 -174z" />
<glyph unicode="&#xf6cb;" horiz-adv-x="960" d="M106 1564q0 62 28 87t98 25t96 -24t26 -88q0 -62 -26 -87t-96 -25t-98 24t-28 88zM518 1564q0 62 27 87t97 25t97 -24t27 -88q0 -62 -27 -87t-97 -25t-97 24t-27 88z" />
<glyph unicode="&#xf6ce;" horiz-adv-x="960" d="M100 1560l116 156l360 -166l-78 -112z" />
<glyph unicode="&#xf6cf;" horiz-adv-x="1060" d="M80 1492l296 244l158 -106l-342 -206zM500 1508l346 220l148 -118l-390 -184z" />
<glyph unicode="&#xf6d0;" horiz-adv-x="624" d="M24 1484v168h570v-168h-570z" />
<glyph unicode="&#xf730;" horiz-adv-x="1104" d="M80 558q0 170 33 286t96 188t153 104t202 32q114 0 201 -27t144 -95t86 -181t29 -283q0 -164 -33 -279t-95 -187t-151 -105t-203 -33q-122 0 -209 28t-143 95t-83 178t-27 279zM348 576q0 -120 13 -198t38 -123t64 -63t93 -18q48 0 85 19t63 64t39 120t13 189 q0 126 -14 205t-41 124t-65 62t-84 17t-84 -16t-65 -59t-41 -121t-14 -202z" />
<glyph unicode="&#xf731;" horiz-adv-x="682" d="M6 982l322 162h202v-1144h-268v888l-194 -74z" />
<glyph unicode="&#xf732;" horiz-adv-x="896" d="M40 0v200q154 128 247 215t144 151t67 116t16 110q0 80 -49 121t-137 41q-54 0 -113 -11t-119 -33l-34 174q76 32 160 57t206 25q186 0 278 -91t92 -257q0 -76 -23 -143t-74 -136t-135 -147t-204 -174h470v-218h-792z" />
<glyph unicode="&#xf733;" horiz-adv-x="882" d="M16 -144l16 148q58 -12 122 -20t116 -8q142 0 195 59t53 165q0 98 -46 153t-168 55h-120v194h114q102 0 147 49t45 151q0 84 -39 123t-137 39q-52 0 -118 -11t-108 -27l-32 164q60 28 150 52t202 24q98 0 167 -25t112 -69t62 -105t19 -135q0 -130 -53 -206t-139 -104 q58 -6 101 -34t72 -70t43 -96t14 -114q0 -222 -121 -328t-335 -106q-78 0 -166 21t-168 61z" />
<glyph unicode="&#xf734;" horiz-adv-x="1008" d="M32 88v210q44 102 96 211l106 218l111 215t115 202h364v-832h152v-224h-152v-296h-260v296h-532zM254 312h310v608l-160 -299t-150 -309z" />
<glyph unicode="&#xf735;" horiz-adv-x="910" d="M60 -150l12 150q56 -10 123 -18t125 -8q122 0 182 55t60 173q0 116 -49 178t-177 62q-110 0 -234 -34l13 217l31 519h221h387v-220h-400l-18 -292q24 4 58 7t74 3q184 0 276 -109t92 -301q0 -226 -118 -342t-328 -116q-78 0 -166 21t-164 55z" />
<glyph unicode="&#xf736;" horiz-adv-x="1014" d="M88 652q0 206 38 344t103 221t153 118t188 35q76 0 155 -18t175 -62l-24 -148q-70 16 -138 25t-134 9q-114 0 -184 -101t-78 -333q70 40 133 62t133 22q180 0 262 -99t82 -279q0 -106 -30 -192t-86 -147t-136 -95t-178 -34q-104 0 -185 27t-136 101t-84 205t-29 339z M348 560q0 -108 12 -183t34 -121t56 -66t80 -20q78 0 122 59t44 191q0 110 -40 158t-126 48q-46 0 -86 -13t-96 -43v-10z" />
<glyph unicode="&#xf737;" horiz-adv-x="856" d="M34 924v220h786v-202l-236 -538q-76 -178 -157 -337t-165 -291l-176 58l444 1090h-496z" />
<glyph unicode="&#xf738;" horiz-adv-x="1032" d="M70 326q0 124 65 205t169 141q-102 60 -157 142t-55 202q0 78 28 143t83 112t137 74t188 27q108 0 186 -24t127 -67t73 -105t24 -138q0 -112 -57 -188t-163 -138q120 -62 182 -142t62 -216q0 -80 -27 -149t-84 -119t-145 -79t-210 -29q-114 0 -194 25t-132 71t-76 110 t-24 142zM324 348q0 -86 48 -136t150 -50q84 0 135 48t51 124q0 84 -55 138t-165 104q-84 -52 -124 -105t-40 -123zM342 1038q0 -76 44 -130t134 -100q88 48 129 98t41 122q0 166 -176 166q-78 0 -125 -43t-47 -113z" />
<glyph unicode="&#xf739;" horiz-adv-x="1014" d="M64 700q0 104 30 190t86 148t135 95t177 33q104 0 185 -27t136 -101t84 -205t29 -339q0 -206 -39 -345t-105 -223t-155 -120t-189 -36q-76 0 -162 16t-196 68l20 144q94 -16 167 -25t137 -9q114 0 187 102t83 338q-72 -40 -134 -62t-134 -22q-180 0 -261 99t-81 281z M318 728q0 -112 40 -160t126 -48q46 0 88 13t94 43v10q0 216 -46 303t-136 87q-80 0 -123 -60t-43 -188z" />
<glyph unicode="&#xf8ff;" horiz-adv-x="2000" d="M94 736q-10 78 0 156l264 -24q-4 -54 0 -108zM304 1400q24 30 52 59t56 51l172 -204l-40 -37t-36 -39zM454 814q0 114 43 213t117 172t173 116t213 43q112 0 212 -43t174 -116t117 -172t43 -213q0 -110 -39 -205t-101 -163v-170l-36 -10l70 -162l-68 -18l68 -156l-72 -18 l22 -52l-64 -152h-122q-8 -46 -64 -74t-140 -28t-140 29t-62 73h-122l-116 276l68 20l-68 162l74 18l-40 98v166q-64 70 -102 164t-38 202zM594 814q0 -90 37 -171t105 -137h110l-34 278q-24 -4 -45 -12l-37 -14t-25 12t-11 42t4 47t18 27q62 20 136 32t148 12q78 0 151 -12 t139 -32q12 -4 17 -27t3 -47t-11 -42t-27 -12l-39 14t-47 12l-30 -278h110q58 52 99 130t41 178q0 84 -32 158t-87 129t-129 87t-158 32t-158 -32t-129 -87t-87 -129t-32 -158zM730 106l32 -70l504 128l-30 70zM732 -76l52 -122h434l24 60l-10 22l-150 -38l-32 86l216 54 l-28 68zM738 290l30 -74l494 128v50h-524v-104zM914 802l32 -296h110l28 296v0q-22 2 -40 3t-40 1h-46q-22 0 -44 -4zM922 1720q78 10 156 0l-24 -264q-54 4 -108 0zM976 856h4v2h-2v8h-2v-10zM982 858q0 -4 2 -4q4 0 4 4v6h-2v-6q0 -2 -2 -2v2v6h-2v-6zM990.5 859.5 q0.5 -6.5 5.5 -3.5v2q-4 -2 -4 2t4 2v2q-6 2 -5.5 -4.5zM1000 854h2v0q-2 6 0 14h-2q-2 -8 0 -14zM1004 858q0 -4 2 -3t2 2v-1h2v6q0 4 -6 2v-2q4 2 4 -1q-4 1 -4 -3zM1007 857q-2 1 0 3h1q0 -2 -1 -3zM1012 856q9 0 3.5 4t0.5 2v2q-8 1 -3 -3.5t-1 -2.5v-2zM1018 854h2v0 q2 6 0 14h-2q2 -8 0 -14zM1416 1306l170 204q62 -50 110 -110l-204 -170l-37 40t-39 36zM1642 760q4 56 0 108l264 24q10 -78 0 -156z" />
<glyph unicode="&#xfb00;" horiz-adv-x="1186" d="M24 822v180h128v104q0 73 15.5 132t49 100.5t86.5 63.5t129 22q65 0 120 -15t102 -39l-32 -152q-23 8 -52.5 14t-55.5 6q-57 0 -81.5 -30.5t-24.5 -93.5v-112h320v120q0 74 15.5 133t49 100t87 63t130.5 22q75 0 134.5 -19t103.5 -43l-38 -148q-63 24 -118 24 q-59 0 -82.5 -30.5t-23.5 -93.5v-128h180v-180h-180v-822h-258v822h-320v-822h-256v822h-128z" />
<glyph unicode="&#xfb01;" horiz-adv-x="1116" d="M24 822v180h128v120q0 74 15 133t48 100t86 63t129 22q63 0 116 -13.5t86 -30.5l-30 -160q-20 8 -45 13t-49 5q-54 0 -77 -30.5t-23 -93.5v-128h578v-1002h-258v822h-320v-822h-256v822h-128zM704 1266q0 37 6.5 63t24 41.5t47 22.5t76.5 7q46 0 76 -6.5t46.5 -21.5 t23 -41t6.5 -65q0 -38 -6.5 -63.5t-23.5 -41t-46.5 -22.5t-75.5 -7q-47 0 -77 6.5t-47 22t-23.5 41.5t-6.5 64z" />
<glyph unicode="&#xfb02;" horiz-adv-x="1144" d="M24 822v180h128v72q0 83 15 150.5t55.5 115.5t111.5 74t182 26q57 0 119 -6.5t107 -15.5h240v-1130q0 -42 3 -67.5t10.5 -39t21 -17.5t33.5 -4q14 0 27 1t21 1l10 -152q-35 -12 -81 -19t-103 -7q-50 0 -87 9t-62.5 31.5t-38 61.5t-12.5 100v1052q-33 8 -72.5 13t-75.5 5 q-47 0 -79 -9.5t-51.5 -30t-28.5 -53.5t-9 -79v-82h158v-180h-158v-822h-256v822h-128z" />
<glyph unicode="&#xfb03;" horiz-adv-x="1692" d="M24 822v180h128v104q0 73 15.5 132t49 100.5t86.5 63.5t129 22q65 0 120 -15t102 -39l-32 -152q-23 8 -52.5 14t-55.5 6q-57 0 -81.5 -30.5t-24.5 -93.5v-112h320v120q0 74 15.5 133t48.5 100t86 63t128 22q65 0 118 -13.5t86 -30.5l-32 -160q-18 8 -43 13t-51 5 q-54 0 -76 -30.5t-22 -93.5v-128h576v-1002h-258v822h-318v-822h-258v822h-320v-822h-256v822h-128zM1280 1266q0 37 7 63t24.5 41.5t47 22.5t75.5 7t76 -6.5t46.5 -21.5t23 -41t6.5 -65q0 -38 -6.5 -63.5t-23.5 -41t-46.5 -22.5t-75.5 -7q-47 0 -76.5 6.5t-47 22t-24 41.5 t-6.5 64z" />
<glyph unicode="&#xfb04;" horiz-adv-x="1722" d="M24 822v180h128v104q0 73 15.5 132t49 100.5t86.5 63.5t129 22q65 0 120 -15t102 -39l-38 -150q-23 8 -49.5 13t-52.5 5q-57 0 -81.5 -30.5t-24.5 -93.5v-112h320v72q0 83 15.5 150.5t56 115.5t111.5 74t181 26q28 0 58.5 -2t60.5 -5t58 -7t51 -8h238v-1130 q0 -42 3 -67.5t10.5 -39t21 -17.5t33.5 -4q14 0 27 1t21 1l12 -152q-36 -12 -82.5 -19t-103.5 -7q-49 0 -86 9t-62 31.5t-37.5 61.5t-12.5 100v1052q-33 8 -73 13t-75 5q-47 0 -79 -9.5t-51.5 -30t-28.5 -53.5t-9 -79v-82h158v-180h-158v-822h-258v822h-320v-822h-256v822 h-128z" />
</font>
</defs>
</svg>
