<?xml version="1.0" standalone="no"?>
<!DOCTYPE svg PUBLIC "-//W3C//DTD SVG 1.1//EN" "http://www.w3.org/Graphics/SVG/1.1/DTD/svg11.dtd" >
<svg xmlns="http://www.w3.org/2000/svg">
<metadata>
Designer    : Lucas de Groot
Foundry     : LucasFonts
Foundry URL : http://www.lucasfonts.com
</metadata>
<defs>
<font id="Sun_LT_3_" horiz-adv-x="1000" >
<font-face units-per-em="2000" ascent="1600" descent="-400" />
<missing-glyph horiz-adv-x="480" />
<glyph horiz-adv-x="0" />
<glyph horiz-adv-x="0" />
<glyph unicode="&#xd;" horiz-adv-x="0" />
<glyph unicode=" "  horiz-adv-x="480" />
<glyph unicode="&#x09;" horiz-adv-x="480" />
<glyph unicode="&#xa0;" horiz-adv-x="480" />
<glyph unicode="!" horiz-adv-x="742" d="M348 68q0 48 17 65t69 17t67 -17t15 -63q0 -48 -15 -65t-67 -17t-69 17t-17 63zM364 1350h144l-26 -1076h-94z" />
<glyph unicode="&#x22;" horiz-adv-x="846" d="M182 1350h124l-18 -504h-86zM530 1350h124l-20 -504h-86z" />
<glyph unicode="#" horiz-adv-x="1006" d="M64 426v86h182l48 390h-230v84h240l42 364h100l-42 -364h260l44 364h100l-44 -364h176v-84h-186l-46 -390h232v-86h-242l-50 -426h-100l50 426h-260l-50 -426h-100l48 426h-172zM348 512h260l46 390h-260z" />
<glyph unicode="$" d="M126 100l42 70q30 -18 66 -32t74 -24t76 -15t72 -5q140 0 222 64t82 174q0 74 -45 128t-115 90t-151 71t-151 79t-115 108t-45 160q0 120 80 204t222 104l10 212h78l12 -210q72 -4 139 -25t117 -49l-32 -70q-44 22 -116 39t-142 17q-116 0 -182 -58t-66 -150 q0 -78 47 -130t116 -89t151 -72t151 -77t116 -107t47 -163q0 -136 -94 -227t-252 -113l-12 -214h-78l-10 212q-92 4 -170 31t-144 67z" />
<glyph unicode="%" horiz-adv-x="1378" d="M134 1046q0 170 70 244t198 74q142 0 197 -78t55 -234q0 -160 -67 -236t-199 -76q-146 0 -200 74t-54 232zM176 16l956 1362l70 -46l-956 -1362zM240 1056q0 -126 36 -181t120 -55q88 0 120 60t32 164q0 114 -33 177t-121 63q-74 0 -114 -51t-40 -177zM724 292 q0 170 69 244t199 74q142 0 197 -79t55 -233q0 -160 -67 -236t-199 -76q-146 0 -200 74t-54 232zM830 302q0 -126 36 -181t118 -55q90 0 122 60t32 164q0 114 -33 177t-121 63q-74 0 -114 -51t-40 -177z" />
<glyph unicode="&#x26;" horiz-adv-x="1404" d="M126 322q0 68 19 125t53 106t80 92t102 81q-76 106 -114 188t-38 152q0 128 86 213t246 85q148 0 222 -69t74 -169q0 -64 -22 -116t-64 -98t-103 -91t-141 -97q84 -106 187 -215t205 -203q72 98 111 211t39 227h116q0 -64 -15 -132t-41 -133t-61 -125t-77 -114 q92 -76 157 -119t101 -43h64v-72v0q-20 -10 -44 -15t-62 -5q-42 0 -114 46t-178 132q-84 -84 -192 -131t-228 -47q-186 0 -277 90t-91 246zM244 348q0 -134 71 -203t209 -69q98 0 181 44t141 102q-108 96 -216 209t-196 227q-78 -60 -134 -132t-56 -178zM344 1084 q0 -58 32 -128t98 -164q80 54 131 94t82 76t43 70t12 72q0 70 -46 122t-152 52q-96 0 -148 -55t-52 -139z" />
<glyph unicode="'" horiz-adv-x="640" d="M266 1350h122l-18 -504h-86z" />
<glyph unicode="(" horiz-adv-x="620" d="M174 540q0 134 20 261t55 242t81 217t98 186l78 -34q-46 -90 -85 -192t-68 -212t-45 -223t-16 -225q0 -132 18 -253t48 -231t68 -207t80 -179l-78 -34q-58 90 -105 194t-80 218t-51 234t-18 238z" />
<glyph unicode=")" horiz-adv-x="620" d="M114 -310q46 90 85 193t68 212t45 223t16 228q0 130 -18 251t-48 231t-68 206t-80 178l78 36q58 -90 105 -194t80 -218t51 -233t18 -237q0 -134 -20 -262t-55 -243t-81 -217t-98 -186z" />
<glyph unicode="*" d="M146 912l280 138l-280 138l60 104l258 -178l-22 312h118l-20 -312l258 178l60 -104l-280 -138l280 -138l-60 -104l-258 178l20 -312h-118l22 312l-258 -178z" />
<glyph unicode="+" d="M88 548v90h360v382h102v-382h356v-90h-356v-388h-102v388h-360z" />
<glyph unicode="," horiz-adv-x="610" d="M128 -224q78 52 110 94t32 86q0 26 -15 41t-22 28t-7 39q0 52 14 71t72 19q52 0 66 -21t14 -65q0 -66 -13 -115t-39 -89t-65 -75t-99 -71z" />
<glyph unicode="-" horiz-adv-x="462" d="M70 540v96h390v-96h-390z" />
<glyph unicode="." horiz-adv-x="580" d="M226 68q0 52 17 69t69 17q50 0 65 -16t15 -66q0 -52 -16 -68t-66 -16q-52 0 -68 16t-16 64z" />
<glyph unicode="/" d="M0 -208l852 1626h116l-850 -1626h-118z" />
<glyph unicode="0" d="M110 658q0 203 25 339t75 217.5t125 115.5t175 34q91 0 161.5 -29t118.5 -104t73 -204.5t25 -330.5q0 -206 -25.5 -343t-76.5 -218.5t-126 -115t-174 -33.5q-91 0 -161 29.5t-118 105t-72.5 205.5t-24.5 332zM232 690q0 -180 15.5 -298t48.5 -187t83 -97t119 -28 t119.5 29t83.5 97t49 180t16 278q0 179 -15.5 296t-48.5 186t-83.5 96.5t-120.5 27.5q-69 0 -119 -29t-83 -96.5t-48.5 -178.5t-15.5 -276z" />
<glyph unicode="1" d="M154 0v104h320v1120l-286 -116l-30 76l342 166h96v-1246h286v-104h-728z" />
<glyph unicode="2" d="M108 0v92q169 174 282 308t180.5 239.5t95.5 189t28 157.5q0 82 -21 135.5t-56.5 85t-82 44.5t-96.5 13q-32 0 -64 -4t-65.5 -12t-70.5 -19.5t-80 -26.5l-20 82q46 19 86 33.5t80.5 25t85 16t98.5 5.5q64 0 125.5 -18t109.5 -60t77.5 -111t29.5 -171q0 -89 -29.5 -179.5 t-97.5 -196.5t-179.5 -233.5t-275.5 -290.5h616v-104h-756z" />
<glyph unicode="3" d="M80 58l14 76q109 -24 194.5 -37t153.5 -13q78 0 132 18t88 55t49 93t15 132q0 67 -15.5 121t-51 91.5t-92.5 57.5t-139 20h-154v94h146q264 0 264 268q0 52 -12.5 95t-41.5 73.5t-77 47t-119 16.5q-30 0 -68.5 -3.5t-77.5 -9.5t-76 -14.5t-64 -18.5l-20 82q27 10 64 21 t82 20t96.5 15t107.5 6q87 0 150 -25.5t104 -68t60.5 -99t19.5 -117.5q0 -71 -16.5 -126.5t-45 -96t-67.5 -65t-83 -34.5q64 -2 112 -31.5t80.5 -76t49 -106t16.5 -120.5q0 -209 -99 -310.5t-313 -101.5q-71 0 -160.5 18t-205.5 54z" />
<glyph unicode="4" d="M62 322v88l129.5 248l134 246l134.5 234l130 212h164v-924h174v-104h-174v-322h-118v322h-574zM172 426h464v822l-107.5 -175.5l-118 -201l-121.5 -218t-117 -227.5z" />
<glyph unicode="5" d="M78 54l12 74q104 -20 193 -33t161 -13q71 0 125 16t90 52.5t54.5 95t18.5 144.5q0 74 -18.5 133.5t-57.5 101.5t-99 64.5t-143 22.5q-68 0 -134 -7.5t-138 -22.5l44 668h582v-104h-488l-30 -452q39 8 93.5 12t110.5 4q100 0 176 -28.5t127 -80.5t77 -125.5t26 -163.5 q0 -107 -24.5 -187t-76.5 -133t-132.5 -79.5t-192.5 -26.5q-69 0 -157.5 16.5t-198.5 51.5z" />
<glyph unicode="6" d="M134 618q0 151 16.5 265t46 197t71 137.5t91 87t105.5 46t116 13.5q62 0 129.5 -13.5t156.5 -42.5l-16 -78q-63 17 -130.5 28.5t-133.5 11.5q-77 0 -137.5 -36t-103 -109.5t-65.5 -186t-24 -266.5q43 24 82 42.5t77 31.5t76.5 19.5t80.5 6.5q74 0 134 -24t102 -70 t65 -112t23 -150q0 -102 -27.5 -182t-77 -135t-119 -84t-154.5 -29q-94 0 -165.5 28.5t-120 100t-73.5 193.5t-25 310zM258 574q0 -129 16.5 -222.5t49.5 -153.5t84 -89t120 -29q62 0 108.5 21.5t77 61.5t45.5 97t15 128q0 142 -59.5 215t-190.5 73q-56 0 -118 -21.5 t-148 -72.5v-8z" />
<glyph unicode="7" d="M96 1246v104h820v-88l-298 -636l-76.5 -157l-85.5 -169.5l-87.5 -166.5l-80.5 -147l-78 32l564 1228h-678z" />
<glyph unicode="8" d="M100 302q0 67 21 122.5t58.5 102t90 86.5t114.5 77q-126 69 -190 154t-64 196q0 70 25.5 129.5t74.5 103t120.5 67.5t163.5 24q101 0 169.5 -24.5t110 -66.5t59 -96.5t17.5 -114.5q0 -57 -17.5 -104.5t-53 -89.5t-89 -81t-126.5 -79q80 -41 139.5 -81.5t98.5 -85.5 t58.5 -98t19.5 -119q0 -71 -25 -132.5t-76.5 -107t-130 -72t-184.5 -26.5q-98 0 -170.5 23t-120 65t-70.5 100t-23 128zM220 324q0 -116 73.5 -181t218.5 -65q59 0 108.5 16.5t85 46t55 70.5t19.5 91q0 56 -20 102t-59 86t-96.5 77t-132.5 75q-65 -38 -112 -74.5 t-78.5 -74.5t-46.5 -79.5t-15 -89.5zM250 1060q0 -48 14 -89t44 -77.5t76 -71t110 -68.5q67 37 115 70t79.5 66.5t46.5 69.5t15 78q0 56 -15 100t-46.5 74t-81 46t-119.5 16q-55 0 -99 -15.5t-75 -44t-47.5 -68t-16.5 -86.5z" />
<glyph unicode="9" d="M104 930q0 102 27.5 182.5t77 136.5t119 85.5t154.5 29.5q94 0 165.5 -29t120 -101.5t73.5 -195.5t25 -310q0 -153 -17 -268t-48 -197.5t-73.5 -136t-93.5 -84.5t-108 -43.5t-116 -12.5q-31 0 -63 3t-68 10t-78 18t-91 27l12 78q78 -20 146.5 -31t133.5 -11 q77 0 140 33.5t107.5 105.5t69 184.5t25.5 270.5q-43 -24 -82 -42.5t-77 -31.5t-76.5 -19.5t-80.5 -6.5q-74 0 -134 24t-102 70t-65 112t-23 150zM226 958q0 -142 59.5 -215t190.5 -73q56 0 118 21.5t148 72.5v8q0 256 -65.5 377t-204.5 121q-62 0 -108.5 -22.5t-77 -63 t-45.5 -98.5t-15 -128z" />
<glyph unicode=":" horiz-adv-x="612" d="M250 78q0 48 18 65t66 17q46 0 63 -16t17 -62q0 -50 -18 -66t-64 -16t-64 16t-18 62zM250 900q0 48 18 65t66 17q46 0 63 -16t17 -62q0 -50 -18 -66t-64 -16t-64 16t-18 62z" />
<glyph unicode=";" horiz-adv-x="612" d="M150 -228q82 54 113 99t31 87q0 20 -7 29t-16 17t-16 21t-7 39q0 50 16 68t70 18q46 0 63 -20t17 -64q0 -122 -52 -200t-166 -148zM248 900q0 48 18 65t66 17q46 0 64 -16t18 -62q0 -50 -18 -66t-64 -16q-48 0 -66 16t-18 62z" />
<glyph unicode="&#x3c;" d="M80 550v86l768 400l44 -88l-688 -354l688 -352l-44 -90z" />
<glyph unicode="=" d="M102 356v92h796v-92h-796zM102 738v92h796v-92h-796z" />
<glyph unicode="&#x3e;" d="M108 240l688 352l-688 352l44 92l768 -400v-86l-768 -398z" />
<glyph unicode="?" d="M180 1302q74 28 155 45t151 17q96 0 164 -23t111 -64t64 -96t21 -119q0 -72 -24 -127t-60 -101t-79 -88t-79 -89t-61 -102t-27 -127l-2 -154h-94l-8 170q-2 64 19 120t55 106t74 95l76 89t59 88t23 92q0 110 -67 172t-187 62q-76 0 -143 -13t-117 -29zM382 68q0 48 17 65 t69 17t67 -17t15 -65t-15 -64t-67 -16t-69 16t-17 64z" />
<glyph unicode="@" horiz-adv-x="2028" d="M176 402q0 204 61 388t179 323t295 222t403 83q310 0 473 -158t163 -444q0 -138 -32 -255t-103 -209t-182 -143t-253 -51h-58l8 206q-72 -100 -151 -159t-165 -59q-120 0 -175 81t-55 229q0 118 29 217t89 171t148 109t198 37q72 0 137 -9t115 -23l-78 -708q104 0 184 42 t131 121t73 174t22 193q0 130 -32 231t-99 172t-169 108t-242 37q-200 0 -351 -80t-250 -208t-147 -289t-48 -323q0 -154 38 -276t118 -206t205 -128t301 -44q54 0 120 9t133 23t130 33t111 41l22 -76q-54 -26 -121 -48t-139 -38t-147 -25t-145 -9q-192 0 -336 50t-234 143 t-132 226t-42 299zM700 482q0 -120 34 -180t110 -60q64 0 132 59t158 183l44 398v0q-26 8 -63 14t-87 6q-86 0 -150 -33t-103 -91t-57 -135t-18 -161z" />
<glyph unicode="A" horiz-adv-x="1034" d="M40 0l86 326l97 343l106 346l111 335h142q126 -362 228 -694t184 -656h-132q-16 70 -36 148l-42 158h-548q-20 -74 -38 -152l-34 -154h-124zM260 404h498v0q-58 200 -124 406l-136 412l-121 -396t-117 -422z" />
<glyph unicode="B" horiz-adv-x="1102" d="M198 0v1350h344q94 0 162 -24t112 -64t64 -95t20 -119q0 -124 -63 -203t-151 -115q54 -6 105 -29t91 -64t65 -99t25 -134q0 -90 -30 -165t-92 -129t-156 -84t-220 -30q-90 0 -155 2t-121 2zM318 104q32 -4 87 -7t113 -3q84 0 145 22t101 61t59 93t19 118q0 126 -80 201 t-264 75h-180v-560zM318 758h154q84 0 142 24t94 63t52 87t16 98q0 96 -65 161t-203 65h-190v-498z" />
<glyph unicode="C" horiz-adv-x="1046" d="M120 654q0 166 35 298t99 224t155 140t201 48q102 0 188 -48t148 -174l-66 -48q-50 86 -114 128t-152 42q-96 0 -165 -49t-113 -130t-65 -185t-21 -216q0 -302 93 -449t269 -147q88 0 159 37t141 119l58 -60v0q-72 -92 -165 -145t-221 -53q-220 0 -342 169t-122 499z" />
<glyph unicode="D" horiz-adv-x="1146" d="M198 0v1350q68 0 134 1t144 1q152 0 257 -54t170 -144t94 -206t29 -242q0 -164 -36 -295t-111 -223t-190 -141t-271 -49q-58 0 -118 1t-102 1zM320 102q72 -6 146 -6q210 0 320 143t110 447q0 114 -21 217t-73 181t-138 124t-216 46h-64t-64 -2v-1150z" />
<glyph unicode="E" horiz-adv-x="942" d="M198 0v1350h616v-100h-494v-508h406v-98h-406v-544h502v-100h-624z" />
<glyph unicode="F" horiz-adv-x="898" d="M198 0v1350h604v-98h-482v-514h442v-98h-442v-640h-122z" />
<glyph unicode="G" horiz-adv-x="1140" d="M120 664q0 170 40 301t107 219t155 134t184 46q108 0 193 -45t143 -103l-52 -62q-52 42 -122 76t-150 34q-166 0 -267 -149t-101 -427q0 -158 25 -272t72 -187t113 -107t146 -34q84 0 143 24t91 52v456h-210v96h332v-580v0q-66 -62 -159 -106t-225 -44q-102 0 -186 39 t-144 122t-94 211t-34 306z" />
<glyph unicode="H" horiz-adv-x="1316" d="M198 0v1350h122v-580h676v580h122v-1350h-122v664h-676v-664h-122z" />
<glyph unicode="I" horiz-adv-x="518" d="M198 0v1350h122v-1350h-122z" />
<glyph unicode="J" horiz-adv-x="536" d="M110 -294q64 76 85 178t21 246v1220h122v-1214v0q0 -80 -6 -147t-24 -126t-51 -110t-85 -99z" />
<glyph unicode="K" horiz-adv-x="1022" d="M198 0v1350h122v-612l466 612h142l-496 -620l534 -730h-154l-492 680v-680h-122z" />
<glyph unicode="L" horiz-adv-x="842" d="M198 0v1350h122v-1250h484v-100h-606z" />
<glyph unicode="M" horiz-adv-x="1674" d="M176 0q4 160 12 330t21 343t30 344t37 333h160l398 -1138h2l396 1138h156q20 -162 39 -333t33 -344t24 -343t14 -330h-130q-4 166 -12 336t-19 327t-25 295t-26 240h-2l-414 -1198h-90l-418 1198h-2q-10 -114 -21 -253t-18 -294t-13 -320t-8 -331h-124z" />
<glyph unicode="N" horiz-adv-x="1304" d="M198 0v1350h108h50l640 -1094v1094h110v-1350h-110l-690 1184v-1184h-108z" />
<glyph unicode="O" horiz-adv-x="1270" d="M120 654q0 190 40 324t112 220t171 126t209 40q112 0 204 -38t157 -117t101 -205t36 -306q0 -190 -40 -325t-111 -221t-169 -126t-210 -40q-114 0 -205 37t-157 117t-102 208t-36 306zM250 686q0 -310 98 -456t292 -146q86 0 156 33t120 104t77 182t27 265q0 308 -98 454 t-292 146q-86 0 -156 -34t-120 -105t-77 -184t-27 -259z" />
<glyph unicode="P" horiz-adv-x="1008" d="M198 0v1350h54t57 1t67 1h88q136 0 228 -29t149 -82t81 -125t24 -160t-27 -168t-90 -141t-167 -97t-254 -36h-88v-514h-122zM320 614h124q184 0 278 85t94 239q0 158 -91 238t-285 80h-120v-642z" />
<glyph unicode="Q" horiz-adv-x="1270" d="M120 654q0 190 40 324t112 220t170 126t210 40t203 -37t157 -116t102 -206t36 -307q0 -322 -115 -498t-321 -206q54 -66 109 -92t111 -32t113 -1t115 1t116 -26t114 -82l-46 -56q-76 44 -143 54t-128 9t-117 -5t-111 13t-109 64t-110 145q-118 -2 -211 36t-159 118 t-102 207t-36 307zM250 686q0 -312 98 -457t292 -145q86 0 156 33t120 104t77 182t27 265q0 308 -98 454t-292 146q-86 0 -156 -34t-120 -104t-77 -183t-27 -261z" />
<glyph unicode="R" horiz-adv-x="1052" d="M198 0v1350q60 0 130 1t178 1q218 0 328 -93t110 -247q0 -100 -35 -169t-90 -112t-123 -65t-134 -28l466 -638h-154l-440 620h-114v-620h-122zM320 716h178q150 0 234 71t84 203q0 64 -18 113t-59 84t-107 53t-160 18h-152v-542z" />
<glyph unicode="S" horiz-adv-x="992" d="M118 90l34 72q68 -30 158 -54t154 -24q142 0 224 69t82 189q0 84 -47 141t-121 98t-156 76t-154 81t-120 117t-48 173q0 74 28 135t78 106t121 70t155 25q90 0 168 -23t140 -63l-32 -70q-52 22 -121 41t-141 19q-132 0 -200 -63t-68 -159q0 -84 47 -141t120 -98t158 -77 t159 -84t120 -118t46 -170q0 -84 -31 -152t-87 -117t-133 -76t-173 -27q-108 0 -198 30t-162 74z" />
<glyph unicode="T" horiz-adv-x="932" d="M32 1250v100h868v-100h-374v-1250h-122v1250h-372z" />
<glyph unicode="U" horiz-adv-x="1304" d="M194 476v874h122v-854q0 -114 20 -193t62 -128t107 -71t153 -22q76 0 137 20t104 67t66 125t23 194v862h122v-850v0q0 -134 -34 -231t-97 -160t-151 -93t-198 -30q-220 0 -328 116t-108 374z" />
<glyph unicode="V" horiz-adv-x="1026" d="M38 1350h134q72 -306 168 -609l196 -607q96 300 177 597t149 619h124v0q-72 -328 -170 -665t-226 -685h-134q-128 354 -233 685t-185 665z" />
<glyph unicode="W" horiz-adv-x="1702" d="M58 1350h132q38 -174 77 -330t80 -301l83 -284l86 -279h2l26 118l260 1076h104l274 -1048l34 -146h2q78 264 156 561t150 633h124v0l-88 -357t-91 -340l-97 -329l-104 -324h-132l-248 940l-40 182h-2l-40 -188l-228 -934h-140l-106 330l-96 322t-89 333z" />
<glyph unicode="X" horiz-adv-x="1080" d="M60 0q50 110 99 203t99 177l101 162l105 158l-88 141l-89 149l-92 166l-99 194h140q82 -168 158 -303t148 -249q74 110 150 245t152 307h130q-44 -96 -89 -180l-90 -160l-92 -148l-97 -148l99 -157l100 -166l103 -183t106 -208h-142q-96 194 -180 339t-166 269 q-80 -116 -163 -265t-173 -343h-130z" />
<glyph unicode="Y" horiz-adv-x="960" d="M2 1350h140l86 -176l84 -163l86 -155t94 -152q100 148 183 319t149 327h136v0l-196 -381t-222 -371v-598h-122v598l-111 175l-104 178t-101 190z" />
<glyph unicode="Z" horiz-adv-x="970" d="M86 0v70l624 1180h-596l4 100h734v-86l-616 -1160h652l-4 -104h-798z" />
<glyph unicode="[" horiz-adv-x="702" d="M260 -346v1824h304v-84h-196v-1656h196v-84h-304z" />
<glyph unicode="\" d="M32 1418h116l852 -1626h-118z" />
<glyph unicode="]" horiz-adv-x="702" d="M138 -262h196v1656h-196v84h302v-1824h-302v84z" />
<glyph unicode="^" d="M90 778l354 640h112l354 -642l-94 -42l-316 586l-318 -586z" />
<glyph unicode="_" d="M0 -254h1000v-94h-1000v94z" />
<glyph unicode="`" horiz-adv-x="628" d="M128 1364l88 70l250 -264l-58 -44z" />
<glyph unicode="a" horiz-adv-x="980" d="M100 246q0 72 28 131t88 103t156 68t224 24h86v116q0 114 -57 168t-183 54q-80 0 -149 -19t-121 -39l-22 78q58 26 142 48t186 22q92 0 153 -22t97 -61t53 -92t17 -117v-708h-92l-12 118q-70 -58 -145 -95t-171 -37q-136 0 -207 68t-71 192zM220 264q0 -84 48 -135 t142 -51q130 0 272 124v284h-102q-112 0 -182 -17t-110 -48t-54 -71t-14 -86z" />
<glyph unicode="b" horiz-adv-x="1024" d="M184 14v1404h116v-540q70 58 139 90t145 32q72 0 132 -35t104 -98t68 -149t24 -190q0 -144 -37 -247t-102 -169t-151 -96t-186 -30q-84 0 -139 8t-113 20zM300 102q32 -10 75 -18t95 -8q66 0 125 26t102 79t68 132t25 187q0 88 -15 163t-45 129t-74 85t-102 31 q-46 0 -115 -32t-139 -96v-678z" />
<glyph unicode="c" horiz-adv-x="858" d="M114 478q0 124 29 221t82 164t125 102t158 35q148 0 254 -120l-48 -62q-96 90 -208 90q-132 0 -201 -109t-69 -297q0 -206 66 -314t200 -108q62 0 121 26t119 86l48 -60v0q-60 -66 -135 -106t-177 -40q-176 0 -270 123t-94 369z" />
<glyph unicode="d" horiz-adv-x="1024" d="M114 456q0 148 38 252t102 169t147 94t173 29q36 0 79 -2t71 -6v426h116v-1418h-94l-14 114q-70 -54 -142 -91t-154 -37q-70 0 -129 34t-102 95t-67 148t-24 193zM236 486q0 -184 61 -295t173 -111q46 0 114 31t140 95v676q-90 28 -176 28q-66 0 -123 -26t-99 -78 t-66 -132t-24 -188z" />
<glyph unicode="e" horiz-adv-x="964" d="M114 464q0 256 101 396t287 140q84 0 148 -29t108 -92t64 -160t12 -233h-598v-22q0 -208 75 -296t219 -88q138 0 276 64l28 -76q-70 -36 -155 -59t-181 -23q-86 0 -157 26t-121 82t-78 148t-28 222zM236 572h484v6q0 160 -59 247t-173 87q-60 0 -107 -28t-78 -75 t-47 -108t-20 -129z" />
<glyph unicode="f" horiz-adv-x="582" d="M34 900v86h174v168q0 128 59 203t181 75q58 0 112 -17t88 -39l-30 -72q-34 16 -71 27t-71 11q-82 0 -117 -45t-35 -135v-176h236v-86h-236v-900h-116v900h-174z" />
<glyph unicode="g" horiz-adv-x="1026" d="M114 484q0 136 39 233t103 160t146 93t170 30q70 0 141 -9t127 -19v-944v0q0 -116 -26 -190t-73 -117t-114 -59t-149 -16q-70 0 -147 15t-145 37l14 72q136 -24 235 -29t163 17t95 78t31 154v156q-64 -48 -137 -83t-153 -35q-68 0 -127 34t-102 95t-67 145t-24 182z M236 518q0 -88 15 -161t45 -126t74 -82t102 -29q56 0 126 37t126 87v636q-42 16 -92 23t-86 7q-66 0 -123 -27t-99 -78t-65 -123t-23 -164z" />
<glyph unicode="h" horiz-adv-x="1074" d="M184 0v1418h116v-548q64 54 141 92t167 38q64 0 117 -22t91 -73t59 -134t21 -205q0 -126 -3 -279t-3 -287h-114q0 132 2 274t2 256q0 204 -55 290t-157 86q-54 0 -125 -34t-143 -98v-774h-116z" />
<glyph unicode="i" horiz-adv-x="486" d="M166 1280q0 46 14 60t64 14t62 -14t12 -60t-13 -60t-61 -14q-50 0 -64 14t-14 60zM184 0v986h116v-986h-116z" />
<glyph unicode="j" horiz-adv-x="486" d="M50 -308q58 60 96 147t38 195v952h116v-914v0q0 -72 -9 -131t-31 -110t-57 -96t-87 -87zM166 1280q0 46 14 60t64 14t62 -14t12 -60t-13 -60t-61 -14q-50 0 -64 14t-14 60z" />
<glyph unicode="k" horiz-adv-x="884" d="M184 0v1418h116v-834l338 402h150l-380 -412l446 -574h-144l-410 536v-536h-116z" />
<glyph unicode="l" horiz-adv-x="526" d="M184 182v1236h116v-1192q0 -92 16 -120t66 -28q16 0 34 1t32 1l6 -76v0q-24 -6 -57 -11t-57 -5q-42 0 -71 8t-48 29t-28 59t-9 98z" />
<glyph unicode="m" horiz-adv-x="1622" d="M184 0v986h98l12 -122q62 58 144 97t162 39q88 0 148 -49t82 -113q78 68 164 115t178 47q58 0 108 -22t87 -73t58 -134t21 -203q0 -52 -1 -121l-2 -145l-2 -154t-1 -148h-116q0 64 1 134t1 140t1 137t1 123q0 200 -51 286t-145 86q-58 0 -133 -43t-145 -105q8 -34 13 -74 t5 -116v-568h-116v534q0 196 -51 284t-145 88q-54 0 -122 -37t-138 -95v-774h-116z" />
<glyph unicode="n" horiz-adv-x="1074" d="M184 0v986h98l12 -122q70 62 149 99t167 37q64 0 117 -22t90 -73t58 -134t21 -205q0 -52 -1 -120t-2 -144l-2 -154t-1 -148h-114q0 64 1 134t1 140t1 137t1 123q0 200 -54 286t-156 86q-62 0 -131 -37t-139 -95v-774h-116z" />
<glyph unicode="o" horiz-adv-x="1030" d="M114 476q0 132 31 233t87 165t134 95t170 31q84 0 155 -28t120 -87t77 -151t28 -224q0 -136 -29 -232t-86 -163t-135 -98t-172 -31q-86 0 -153 26t-119 86t-80 151t-28 227zM236 518q0 -234 68 -337t212 -103q130 0 204 98t74 292q0 228 -67 334t-215 106 q-130 0 -203 -101t-73 -289z" />
<glyph unicode="p" horiz-adv-x="1024" d="M184 -346v1332h94l16 -114q68 58 141 93t149 35q72 0 133 -34t104 -96t67 -149t24 -191q0 -142 -37 -245t-101 -169t-150 -98t-184 -32q-22 0 -61 1t-79 7v-340h-116zM300 104q40 -16 86 -22t86 -6q66 0 124 26t101 78t68 133t25 189q0 88 -16 162t-46 128t-74 84 t-100 30q-46 0 -115 -31t-139 -95v-676z" />
<glyph unicode="q" horiz-adv-x="1024" d="M114 456q0 144 37 247t101 169t151 97t189 31q118 0 248 -28v-1318h-116v454q-58 -48 -133 -85t-151 -37q-72 0 -132 34t-103 96t-67 149t-24 191zM236 486q0 -88 15 -163t45 -129t73 -84t99 -30q28 0 61 10t66 28t66 41t63 49v674q-36 14 -83 21t-89 7q-68 0 -126 -26 t-100 -79t-66 -132t-24 -187z" />
<glyph unicode="r" horiz-adv-x="684" d="M184 0v986h98l12 -186q90 112 149 155t109 43q18 0 36 -4t40 -14l-14 -114q-24 8 -41 10t-31 2q-48 0 -103 -43t-139 -145v-690h-116z" />
<glyph unicode="s" horiz-adv-x="790" d="M92 50l20 72q74 -22 125 -33t103 -11q120 0 178 49t58 119q0 36 -9 65t-33 54t-67 48t-109 49q-74 28 -125 57t-81 61t-43 69t-13 81q0 60 22 109t62 85t97 56t125 20q58 0 111 -11t107 -37l-22 -72q-42 16 -89 24t-89 8q-102 0 -152 -47t-50 -113q0 -32 10 -59t36 -51 t71 -46t113 -48q136 -50 193 -115t57 -167q0 -126 -91 -203t-249 -77q-78 0 -145 18t-121 46z" />
<glyph unicode="t" horiz-adv-x="692" d="M34 900v86h172q10 66 19 135t15 145h82v-280h288v-86h-288v-618q0 -112 25 -158t107 -46q28 0 67 7t97 29l18 -72v0q-116 -56 -210 -56q-122 0 -171 61t-49 207v646h-172z" />
<glyph unicode="u" horiz-adv-x="1074" d="M176 420q0 52 1 121l2 145l2 153t1 147h116q0 -62 -1 -133l-2 -141l-2 -137t-1 -123q0 -200 54 -285t158 -85q60 0 130 37t138 95v772h116v-986h-96l-12 122q-70 -62 -149 -99t-167 -37q-64 0 -117 22t-91 73t-59 134t-21 205z" />
<glyph unicode="v" horiz-adv-x="904" d="M46 986h126l244 -696l46 -154q84 192 149 415t103 435h126v0q-26 -112 -60 -238t-76 -255t-93 -255t-111 -238h-110z" />
<glyph unicode="w" horiz-adv-x="1434" d="M56 986h128l200 -662l48 -176h2l34 142l186 696h116l212 -698l40 -138h2q70 202 126 413t94 423h122v0q-44 -218 -118 -469t-182 -517h-116l-230 758l-16 68h-2l-10 -60l-204 -766h-126z" />
<glyph unicode="x" horiz-adv-x="926" d="M64 0l332 524l-278 462h138l214 -378q28 42 56 92l55 101l51 99l42 86h132l-276 -446l334 -540h-140l-268 452l-138 -240l-118 -212h-136z" />
<glyph unicode="y" horiz-adv-x="906" d="M6 -258q12 -2 36 -3t40 -1q112 0 186 72q48 46 71 92t23 108q0 42 -16 109t-56 177l-246 690h128l212 -602q36 -100 55 -187t11 -133q38 82 75 191t72 230t66 250t53 251h126v0q-68 -296 -138 -511t-134 -363t-127 -239t-121 -141t-109 -67t-97 -17q-28 0 -57 6t-53 14 v74z" />
<glyph unicode="z" horiz-adv-x="800" d="M96 0v68l444 826h-426l6 92h560v-68l-448 -824h470l-6 -94h-600z" />
<glyph unicode="{" horiz-adv-x="776" d="M112 530v92h40q48 0 80 16t50 43t25 64t7 79v416q0 116 56 177t176 61h56v-78h-48q-64 0 -98 -42t-34 -116v-356q0 -160 -54 -231t-138 -77q84 -8 138 -80t54 -234v-374q0 -86 30 -122t104 -36h46v-78h-64q-68 0 -112 16t-69 46t-34 75t-9 103v426q0 44 -7 82t-25 67 t-50 45t-80 16h-40z" />
<glyph unicode="|" horiz-adv-x="502" d="M194 -346v1852h110v-1852h-110z" />
<glyph unicode="}" horiz-adv-x="776" d="M172 -268h46q64 0 98 42t34 116v374q0 162 54 233t140 77q-86 8 -140 80t-54 234v354q0 84 -30 121t-102 37h-46v78h62q68 0 112 -16t69 -46t34 -75t9 -103v-406q0 -44 7 -82t25 -66t50 -45t80 -17h40v-92h-40q-48 0 -80 -16t-50 -43t-25 -64t-7 -79v-436 q0 -116 -56 -177t-176 -61h-54v78z" />
<glyph unicode="~" d="M66 934v18q0 118 68 191t176 73q54 0 93 -15t68 -39t52 -50l46 -50t50 -39t65 -15q76 0 109 55t33 131h90v-18v0q0 -56 -17 -104t-48 -84t-76 -57t-103 -21q-82 0 -130 33t-83 72t-69 72t-92 33q-70 0 -106 -51t-36 -135h-90z" />
<glyph unicode="&#xa1;" horiz-adv-x="742" d="M226 1076q0 48 17 63t65 15q50 0 68 -15t18 -63t-16 -65t-70 -17q-48 0 -65 16t-17 66zM234 -208l26 1076h94l24 -1076h-144z" />
<glyph unicode="&#xa2;" d="M144 662q0 206 91 327t239 147l10 216h76l12 -216q68 -4 123 -32t107 -84l-48 -60q-60 50 -111 70t-101 20q-122 0 -198 -100t-76 -264q0 -186 70 -282t200 -96q64 0 123 24t121 80l50 -60v0q-54 -54 -116 -89t-142 -45l-14 -220h-76l-10 216q-160 12 -245 124t-85 324z " />
<glyph unicode="&#xa3;" d="M74 634v90h170l-28 130t-14 136q0 98 26 169t73 116t110 66t135 21q76 0 161 -22t149 -52l-24 -70q-84 28 -149 40t-117 12q-70 0 -116 -20t-73 -54t-38 -80t-11 -98q0 -76 15 -147t29 -147h388v-90h-374q10 -82 9 -153t-19 -136t-55 -126t-97 -121h668v-98h-802v84 q62 62 101 122t59 126t21 139t-11 163h-186z" />
<glyph unicode="&#xa4;" d="M80 104l146 150q-32 42 -50 106t-18 150q0 174 80 272l-158 162l86 64l134 -174q46 34 98 51t122 17q116 0 190 -58l126 164l84 -64l-146 -150q32 -42 50 -105t18 -145q0 -92 -20 -160t-60 -118l158 -162l-86 -64l-134 174q-46 -34 -99 -51t-121 -17q-116 0 -190 58 l-124 -164zM270 544q0 -170 55 -243t179 -73q106 0 165 69t59 213q0 166 -55 238t-181 72q-104 0 -163 -68t-59 -208z" />
<glyph unicode="&#xa5;" d="M24 1350h140l86 -174l84 -160t87 -151l93 -147q96 142 179 310t149 322h134v0l-194 -367t-222 -361v-48h296v-88h-296v-182h296v-88h-296v-216h-120v216h-296v88h296v182h-296v88h296v48l-109 171l-103 173l-100 183z" />
<glyph unicode="&#xa6;" horiz-adv-x="502" d="M200 -346v738h102v-738h-102zM200 736v776h102v-776h-102z" />
<glyph unicode="&#xa7;" horiz-adv-x="1002" d="M112 758q0 114 39 223t104 194t149 137t172 52q60 0 109 -13t87 -33l-28 -74q-34 12 -77 19t-89 7q-92 0 -137 -47t-45 -143q0 -66 38 -122t95 -112t123 -115t124 -129t96 -157t38 -195q0 -114 -41 -226t-106 -194t-149 -131t-170 -49q-72 0 -119 13t-95 41l28 74 q46 -18 88 -26t96 -8q90 0 136 45t46 143q0 66 -38 123t-95 113t-123 114t-123 128t-95 156t-38 192zM222 782q0 -106 46 -195t112 -157t136 -130t121 -125t68 -133t-17 -162q52 70 82 150t30 194q0 108 -45 197t-112 160t-137 133t-122 124t-69 132t15 158 q-108 -148 -108 -346z" />
<glyph unicode="&#xa8;" horiz-adv-x="820" d="M146 1282q0 44 14 56t60 12q42 0 55 -12t13 -56t-13 -57t-55 -13q-46 0 -60 13t-14 57zM524 1282q0 44 14 56t58 12q46 0 58 -12t12 -56t-13 -57t-57 -13t-58 13t-14 57z" />
<glyph unicode="&#xa9;" horiz-adv-x="1546" d="M96 676q0 140 52 266t142 220t214 149t268 55q154 0 279 -55t214 -149t137 -219t48 -271q0 -140 -51 -264t-142 -220t-216 -151t-269 -55q-148 0 -272 52t-214 146t-140 220t-50 276zM192 674q0 -126 44 -235t122 -191t184 -129t230 -47t231 48t185 130t122 192t44 234 q0 130 -43 240t-120 189t-183 125t-236 46q-122 0 -228 -47t-184 -129t-123 -192t-45 -234zM484 670q0 182 87 282t223 100q60 0 106 -21t94 -69l-48 -54q-44 36 -80 48t-72 12q-88 0 -142 -78t-54 -204q0 -140 49 -217t145 -77q92 0 178 72l44 -54v0q-50 -48 -107 -75 t-137 -27q-136 0 -211 90t-75 272z" />
<glyph unicode="&#xaa;" horiz-adv-x="918" d="M142 872q0 44 18 87t60 76t112 54t174 21h80v76q0 88 -53 124t-137 36q-48 0 -101 -11t-105 -29l-20 70q50 22 125 38t145 16t119 -18t79 -49t41 -71t11 -92v-522h-86l-8 94q-74 -58 -130 -82t-116 -24q-50 0 -89 17t-65 45t-40 65t-14 79zM144 430v82h564v-82h-564z M250 882q0 -52 32 -92t98 -40q40 0 94 28t112 62v194h-80q-78 0 -128 -11t-79 -32t-39 -48t-10 -61z" />
<glyph unicode="&#xab;" horiz-adv-x="1004" d="M110 590l240 374l74 -34l-184 -340l184 -342l-74 -32zM500 590l234 364l74 -32l-178 -332l178 -332l-74 -32z" />
<glyph unicode="&#xac;" d="M86 546v94h792v-362h-104v268h-688z" />
<glyph unicode="&#xad;" horiz-adv-x="462" d="M70 540v96h390v-96h-390z" />
<glyph unicode="&#x2010;" horiz-adv-x="462" d="M70 540v96h390v-96h-390z" />
<glyph unicode="&#xae;" horiz-adv-x="1134" d="M118 968q0 92 35 173t96 141t142 95t173 35q94 0 175 -35t142 -95t96 -141t35 -173t-35 -173t-96 -141t-143 -95t-174 -35t-174 35t-142 95t-95 141t-35 173zM200 968q0 -76 28 -143t77 -116t116 -78t143 -29t143 29t116 78t78 116t29 143t-29 143t-78 117t-116 79 t-143 29t-143 -29t-116 -79t-77 -117t-28 -143zM424 728v488h128q88 0 129 -38t41 -96q0 -46 -30 -82t-82 -54l134 -218h-106l-112 204h-16v-204h-86zM510 998h40q40 0 62 22t22 52q0 34 -20 55t-72 21h-32v-150z" />
<glyph unicode="&#xaf;" horiz-adv-x="674" d="M78 1220v88h508v-88h-508z" />
<glyph unicode="&#x2c9;" horiz-adv-x="674" d="M78 1220v88h508v-88h-508z" />
<glyph unicode="&#xb0;" horiz-adv-x="900" d="M204 1118q0 252 256 252q126 0 183 -59t57 -187q0 -126 -63 -188t-183 -62q-132 0 -191 58t-59 186zM310 1122q0 -44 5 -75t20 -51t43 -29t76 -9q80 0 109 40t29 124q0 50 -7 82t-23 51t-42 26t-66 7q-84 0 -114 -39t-30 -127z" />
<glyph unicode="&#xb1;" d="M88 624v88h360v360h102v-360h356v-88h-356v-370h-102v370h-360zM90 0v88h816v-88h-816z" />
<glyph unicode="&#xb2;" d="M308 754v74q100 66 159 113t91 85t41 70t9 64q0 62 -24 92t-88 30q-40 0 -83 -11t-75 -27l-18 70q42 22 96 36t106 14q202 0 202 -190q0 -52 -17 -93t-51 -80t-85 -78t-121 -87h314v-82h-456z" />
<glyph unicode="&#xb3;" d="M280 802l20 60q64 -22 113 -33t99 -11q70 0 102 29t32 71q0 52 -28 78t-120 26h-90v74h86q64 0 90 24t26 76q0 44 -21 67t-85 23q-42 0 -84 -7t-72 -19l-20 60q40 20 95 32t109 12q96 0 142 -40t46 -110q0 -52 -21 -85t-73 -55q68 -4 100 -40t32 -100q0 -88 -60 -140 t-182 -52q-64 0 -124 17t-112 43z" />
<glyph unicode="&#xb4;" horiz-adv-x="628" d="M100 1170l250 264l88 -70l-280 -238z" />
<glyph unicode="&#xb5;" horiz-adv-x="1082" d="M184 -346v1332h116v-572q0 -74 9 -135t33 -105t66 -69t106 -25q60 0 129 36t137 94v776h116v-986h-96l-12 120q-70 -58 -145 -95t-159 -37q-70 0 -121 31t-75 75l16 -440h-120z" />
<glyph unicode="&#x3bc;" horiz-adv-x="1082" d="M184 -346v1332h116v-572q0 -74 9 -135t33 -105t66 -69t106 -25q60 0 129 36t137 94v776h116v-986h-96l-12 120q-70 -58 -145 -95t-159 -37q-70 0 -121 31t-75 75l16 -440h-120z" />
<glyph unicode="&#xb6;" horiz-adv-x="1220" d="M158 976q0 78 28 147t80 119t127 79t169 29h470v-1558h-104v1470h-200v-1470h-104v824q-98 -18 -183 2t-148 69t-99 123t-36 166z" />
<glyph unicode="&#xb7;" horiz-adv-x="510" d="M172 590q0 50 18 67t68 17q46 0 63 -15t17 -65q0 -54 -17 -69t-65 -15t-66 15t-18 65z" />
<glyph unicode="&#x2219;" horiz-adv-x="510" d="M172 590q0 50 18 67t68 17q46 0 63 -15t17 -65q0 -54 -17 -69t-65 -15t-66 15t-18 65z" />
<glyph unicode="&#xb8;" horiz-adv-x="618" d="M160 -310q56 50 77 95t17 127h106v0q8 -84 -29 -150t-109 -116z" />
<glyph unicode="&#xb9;" d="M290 1244l210 106h86v-514h152v-82h-426v82h170v414l-168 -70z" />
<glyph unicode="&#xba;" horiz-adv-x="870" d="M110 1040q0 102 26 176t70 122t103 70t123 22t120 -20t98 -64t67 -113t25 -167q0 -104 -25 -179t-70 -124t-105 -73t-130 -24q-62 0 -118 19t-96 62t-64 115t-24 178zM140 430v82h564v-82h-564zM220 1072q0 -174 52 -248t156 -74q96 0 150 68t54 212q0 166 -52 241 t-158 75q-98 0 -150 -73t-52 -201z" />
<glyph unicode="&#xbb;" horiz-adv-x="1004" d="M196 258l178 332l-178 332l74 32l232 -364l-234 -364zM580 250l184 340l-184 340l74 34l240 -374l-240 -374z" />
<glyph unicode="&#xbc;" horiz-adv-x="1378" d="M134 1244l208 106h88v-514h152v-82h-428v82h172v414l-168 -70zM176 16l958 1364l70 -46l-958 -1364zM704 116v62q124 222 288 418h130v-396h122v-84h-122v-116h-104v116h-314zM808 198h212v314q-64 -76 -118 -156t-94 -158z" />
<glyph unicode="&#xbd;" horiz-adv-x="1378" d="M134 1244l208 106h88v-514h152v-82h-428v82h172v414l-168 -70zM176 16l958 1364l70 -46l-958 -1364zM792 0v74q100 66 158 113t90 85t41 70t9 64q0 62 -23 92t-89 30q-40 0 -82 -11t-74 -27l-20 70q44 22 97 36t107 14q200 0 200 -190q0 -52 -17 -93t-51 -80t-85 -78 l-119 -87h312v-82h-454z" />
<glyph unicode="&#xbe;" horiz-adv-x="1378" d="M96 802l20 60q64 -22 114 -33t98 -11q70 0 103 29t33 71q0 52 -29 78t-121 26h-88v74h84q64 0 90 24t26 76q0 44 -21 67t-85 23q-42 0 -84 -7t-70 -19l-22 60q40 20 96 32t108 12q96 0 142 -40t46 -110q0 -52 -21 -85t-73 -55q68 -4 101 -40t33 -100q0 -88 -61 -140 t-183 -52q-64 0 -124 17t-112 43zM176 16l958 1364l70 -46l-958 -1364zM704 116v62q124 222 288 418h130v-396h122v-84h-122v-116h-104v116h-314zM808 198h212v314q-64 -76 -118 -156t-94 -158z" />
<glyph unicode="&#xbf;" d="M154 80q0 70 24 127t61 102t79 89t79 89t61 99t26 128l2 154h94l8 -170q0 -76 -21 -128t-54 -99t-74 -94l-76 -90t-58 -89t-23 -90q0 -110 67 -172t187 -62q74 0 142 13t118 29l24 -76v0q-76 -28 -156 -45t-150 -17q-96 0 -164 23t-111 64t-64 95t-21 120zM450 1076 q0 46 16 62t66 16q52 0 69 -16t17 -62q0 -50 -17 -66t-69 -16q-50 0 -66 16t-16 66z" />
<glyph unicode="&#xc0;" horiz-adv-x="1034" d="M40 0l86 326l97 343l106 346l111 335h142q126 -362 228 -694t184 -656h-132q-16 70 -36 148l-42 158h-548q-20 -74 -38 -152l-34 -154h-124zM260 404h498v0q-58 200 -124 406l-136 412l-121 -396t-117 -422zM204 1610l58 94l324 -180l-36 -62z" />
<glyph unicode="&#xc1;" horiz-adv-x="1034" d="M40 0l86 326l97 343l106 346l111 335h142q126 -362 228 -694t184 -656h-132q-16 70 -36 148l-42 158h-548q-20 -74 -38 -152l-34 -154h-124zM260 404h498v0q-58 200 -124 406l-136 412l-121 -396t-117 -422zM418 1524l324 180l58 -94l-344 -148z" />
<glyph unicode="&#xc2;" horiz-adv-x="1034" d="M40 0l86 326l97 343l106 346l111 335h142q126 -362 228 -694t184 -656h-132q-16 70 -36 148l-42 158h-548q-20 -74 -38 -152l-34 -154h-124zM260 404h498v0q-58 200 -124 406l-136 412l-121 -396t-117 -422zM232 1522l282 182l280 -182l-36 -60l-246 132l-244 -132z" />
<glyph unicode="&#xc3;" horiz-adv-x="1034" d="M40 0l86 326l97 343l106 346l111 335h142q126 -362 228 -694t184 -656h-132q-16 70 -36 148l-42 158h-548q-20 -74 -38 -152l-34 -154h-124zM260 404h498v0q-58 200 -124 406l-136 412l-121 -396t-117 -422zM182 1520q26 42 48 71t47 48t51 27t62 8q46 0 81 -18t64 -41 t55 -40t52 -17q34 0 61 23t77 87l58 -40v0q-54 -88 -98 -121t-110 -33q-44 0 -80 17t-64 39t-55 40t-55 18q-34 0 -62 -24t-76 -84z" />
<glyph unicode="&#xc4;" horiz-adv-x="1034" d="M40 0l86 326l97 343l106 346l111 335h142q126 -362 228 -694t184 -656h-132q-16 70 -36 148l-42 158h-548q-20 -74 -38 -152l-34 -154h-124zM260 404h498v0q-58 200 -124 406l-136 412l-121 -396t-117 -422zM246 1552q0 42 13 56t59 14t58 -14t12 -56q0 -40 -12 -53 t-58 -13t-59 13t-13 53zM638 1552q0 46 13 58t59 12t59 -14t13 -56q0 -40 -14 -53t-58 -13q-46 0 -59 12t-13 54z" />
<glyph unicode="&#xc5;" horiz-adv-x="1034" d="M40 0l86 326l97 343l106 346l111 335h142q126 -362 228 -694t184 -656h-132q-16 70 -36 148l-42 158h-548q-20 -74 -38 -152l-34 -154h-124zM260 404h498v0q-58 200 -124 406l-136 412l-121 -396t-117 -422zM322 1542q0 36 13.5 66t39 51t60.5 33t79 12q47 0 81 -11.5 t55.5 -32t31.5 -48.5t10 -62q0 -77 -52 -120.5t-138 -43.5q-96 0 -138 40.5t-42 115.5zM416 1544q0 -47 20.5 -67.5t71.5 -20.5t70.5 23t19.5 65q0 48 -21 69t-69 21q-50 0 -71 -21.5t-21 -68.5z" />
<glyph unicode="&#xc6;" horiz-adv-x="1410" d="M-18 0q144 346 301 687t325 663h672v-100h-492v-508h406v-98h-406v-544h500v-100h-622v306h-432q-34 -76 -66 -157t-56 -149h-130zM274 404h392v846h-2q-114 -226 -208 -432z" />
<glyph unicode="&#xc7;" horiz-adv-x="1046" d="M120 654q0 166 35 298t99 224t155 140t201 48q102 0 188 -48t148 -174l-66 -48q-50 86 -114 128t-152 42q-96 0 -165 -49t-113 -130t-65 -185t-21 -216q0 -302 93 -449t269 -147q88 0 159 37t141 119l58 -60v0q-72 -92 -165 -145t-221 -53q-220 0 -342 169t-122 499z M448 -310q56 50 77 95t17 127h106v0q8 -84 -29 -150t-109 -116z" />
<glyph unicode="&#xc8;" horiz-adv-x="942" d="M198 0v1350h616v-100h-494v-508h406v-98h-406v-544h502v-100h-624zM214 1610l58 94l324 -180l-36 -62z" />
<glyph unicode="&#xc9;" horiz-adv-x="942" d="M198 0v1350h616v-100h-494v-508h406v-98h-406v-544h502v-100h-624zM416 1524l324 180l58 -94l-344 -148z" />
<glyph unicode="&#xca;" horiz-adv-x="942" d="M198 0v1350h616v-100h-494v-508h406v-98h-406v-544h502v-100h-624zM221 1522l282 182l280 -182l-36 -60l-246 132l-244 -132z" />
<glyph unicode="&#xcb;" horiz-adv-x="942" d="M198 0v1350h616v-100h-494v-508h406v-98h-406v-544h502v-100h-624zM236 1552q0 42 13 56t59 14t58 -14t12 -56q0 -40 -12 -53t-58 -13t-59 13t-13 53zM628 1552q0 46 13 58t59 12t59 -14t13 -56q0 -40 -14 -53t-58 -13q-46 0 -59 12t-13 54z" />
<glyph unicode="&#xcc;" horiz-adv-x="518" d="M198 0v1350h122v-1350h-122zM-49 1610l58 94l324 -180l-36 -62z" />
<glyph unicode="&#xcd;" horiz-adv-x="518" d="M198 0v1350h122v-1350h-122zM171 1524l324 180l58 -94l-344 -148z" />
<glyph unicode="&#xce;" horiz-adv-x="518" d="M198 0v1350h122v-1350h-122zM-19 1522l282 182l280 -182l-36 -60l-246 132l-244 -132z" />
<glyph unicode="&#xcf;" horiz-adv-x="518" d="M198 0v1350h122v-1350h-122zM-7 1552q0 42 13 56t59 14t58 -14t12 -56q0 -40 -12 -53t-58 -13t-59 13t-13 53zM385 1552q0 46 13 58t59 12t59 -14t13 -56q0 -40 -14 -53t-58 -13q-46 0 -59 12t-13 54z" />
<glyph unicode="&#xd0;" horiz-adv-x="1156" d="M78 644v98h138v608q70 0 134 1t142 1q154 0 259 -54t170 -144t94 -206t29 -242q0 -164 -36 -295t-111 -223t-190 -141t-271 -49q-58 0 -117 1t-103 1v644h-138zM338 100q34 -2 71 -3t71 -1q212 0 323 143t111 447q0 114 -21 217t-73 181t-139 124t-217 46h-64 q-30 0 -62 -2v-510h264v-98h-264v-544z" />
<glyph unicode="&#xd1;" horiz-adv-x="1304" d="M198 0v1350h108h50l640 -1094v1094h110v-1350h-110l-690 1184v-1184h-108zM342 1520q26 42 48 71t47 48t51 27t62 8q46 0 81 -18t64 -41t55 -40t52 -17q34 0 61 23t77 87l58 -40v0q-54 -88 -98 -121t-110 -33q-44 0 -80 17t-64 39t-55 40t-55 18q-34 0 -62 -24t-76 -84z " />
<glyph unicode="&#xd2;" horiz-adv-x="1270" d="M120 654q0 190 40 324t112 220t171 126t209 40q112 0 204 -38t157 -117t101 -205t36 -306q0 -190 -40 -325t-111 -221t-169 -126t-210 -40q-114 0 -205 37t-157 117t-102 208t-36 306zM250 686q0 -310 98 -456t292 -146q86 0 156 33t120 104t77 182t27 265q0 308 -98 454 t-292 146q-86 0 -156 -34t-120 -105t-77 -184t-27 -259zM316 1610l58 94l324 -180l-36 -62z" />
<glyph unicode="&#xd3;" horiz-adv-x="1270" d="M120 654q0 190 40 324t112 220t171 126t209 40q112 0 204 -38t157 -117t101 -205t36 -306q0 -190 -40 -325t-111 -221t-169 -126t-210 -40q-114 0 -205 37t-157 117t-102 208t-36 306zM250 686q0 -310 98 -456t292 -146q86 0 156 33t120 104t77 182t27 265q0 308 -98 454 t-292 146q-86 0 -156 -34t-120 -105t-77 -184t-27 -259zM570 1524l324 180l58 -94l-344 -148z" />
<glyph unicode="&#xd4;" horiz-adv-x="1270" d="M120 654q0 190 40 324t112 220t171 126t209 40q112 0 204 -38t157 -117t101 -205t36 -306q0 -190 -40 -325t-111 -221t-169 -126t-210 -40q-114 0 -205 37t-157 117t-102 208t-36 306zM250 686q0 -310 98 -456t292 -146q86 0 156 33t120 104t77 182t27 265q0 308 -98 454 t-292 146q-86 0 -156 -34t-120 -105t-77 -184t-27 -259zM356 1522l282 182l280 -182l-36 -60l-246 132l-244 -132z" />
<glyph unicode="&#xd5;" horiz-adv-x="1270" d="M120 654q0 190 40 324t112 220t171 126t209 40q112 0 204 -38t157 -117t101 -205t36 -306q0 -190 -40 -325t-111 -221t-169 -126t-210 -40q-114 0 -205 37t-157 117t-102 208t-36 306zM250 686q0 -310 98 -456t292 -146q86 0 156 33t120 104t77 182t27 265q0 308 -98 454 t-292 146q-86 0 -156 -34t-120 -105t-77 -184t-27 -259zM310 1520q26 42 48 71t47 48t51 27t62 8q46 0 81 -18t64 -41t55 -40t52 -17q34 0 61 23t77 87l58 -40v0q-54 -88 -98 -121t-110 -33q-44 0 -80 17t-64 39t-55 40t-55 18q-34 0 -62 -24t-76 -84z" />
<glyph unicode="&#xd6;" horiz-adv-x="1270" d="M120 654q0 190 40 324t112 220t171 126t209 40q112 0 204 -38t157 -117t101 -205t36 -306q0 -190 -40 -325t-111 -221t-169 -126t-210 -40q-114 0 -205 37t-157 117t-102 208t-36 306zM250 686q0 -310 98 -456t292 -146q86 0 156 33t120 104t77 182t27 265q0 308 -98 454 t-292 146q-86 0 -156 -34t-120 -105t-77 -184t-27 -259zM368 1552q0 42 13 56t59 14t58 -14t12 -56q0 -40 -12 -53t-58 -13t-59 13t-13 53zM760 1552q0 46 13 58t59 12t59 -14t13 -56q0 -40 -14 -53t-58 -13q-46 0 -59 12t-13 54z" />
<glyph unicode="&#xd7;" d="M154 312l280 280l-278 278l68 68l278 -278l278 278l66 -66l-278 -278l280 -280l-68 -68l-280 280l-280 -280z" />
<glyph unicode="&#xd8;" horiz-adv-x="1270" d="M120 654q0 190 40 324t112 220t170 126t210 40q82 0 156 -22t134 -68l128 218l74 -44l-138 -232q70 -80 107 -208t37 -310q0 -190 -40 -327t-114 -223t-169 -124t-207 -38q-84 0 -157 22t-133 68l-128 -216l-76 42l138 232q-70 82 -107 212t-37 308zM246 686 q0 -282 92 -428l544 920v0q-94 92 -252 92q-86 0 -157 -34t-122 -105t-78 -181t-27 -264zM388 174q94 -94 252 -94q88 0 159 34t121 105t77 182t27 267q0 282 -92 424z" />
<glyph unicode="&#xd9;" horiz-adv-x="1304" d="M194 476v874h122v-854q0 -114 20 -193t62 -128t107 -71t153 -22q76 0 137 20t104 67t66 125t23 194v862h122v-850v0q0 -134 -34 -231t-97 -160t-151 -93t-198 -30q-220 0 -328 116t-108 374zM328 1610l58 94l324 -180l-36 -62z" />
<glyph unicode="&#xda;" horiz-adv-x="1304" d="M194 476v874h122v-854q0 -114 20 -193t62 -128t107 -71t153 -22q76 0 137 20t104 67t66 125t23 194v862h122v-850v0q0 -134 -34 -231t-97 -160t-151 -93t-198 -30q-220 0 -328 116t-108 374zM608 1524l324 180l58 -94l-344 -148z" />
<glyph unicode="&#xdb;" horiz-adv-x="1304" d="M194 476v874h122v-854q0 -114 20 -193t62 -128t107 -71t153 -22q76 0 137 20t104 67t66 125t23 194v862h122v-850v0q0 -134 -34 -231t-97 -160t-151 -93t-198 -30q-220 0 -328 116t-108 374zM374 1522l282 182l280 -182l-36 -60l-246 132l-244 -132z" />
<glyph unicode="&#xdc;" horiz-adv-x="1304" d="M194 476v874h122v-854q0 -114 20 -193t62 -128t107 -71t153 -22q76 0 137 20t104 67t66 125t23 194v862h122v-850v0q0 -134 -34 -231t-97 -160t-151 -93t-198 -30q-220 0 -328 116t-108 374zM384 1552q0 42 13 56t59 14t58 -14t12 -56q0 -40 -12 -53t-58 -13t-59 13 t-13 53zM776 1552q0 46 13 58t59 12t59 -14t13 -56q0 -40 -14 -53t-58 -13q-46 0 -59 12t-13 54z" />
<glyph unicode="&#xdd;" horiz-adv-x="960" d="M2 1350h140l86 -176l84 -163l86 -155t94 -152q100 148 183 319t149 327h136v0l-196 -381t-222 -371v-598h-122v598l-111 175l-104 178t-101 190zM416 1524l324 180l58 -94l-344 -148z" />
<glyph unicode="&#xde;" horiz-adv-x="1008" d="M198 0v1350h124v-224q26 2 58 2h84q136 0 228 -29t149 -82t81 -125t24 -160t-29 -168t-94 -140t-170 -96t-255 -36h-78v-292h-122zM320 388h124q194 0 283 89t89 237t-85 233t-291 85h-120v-644z" />
<glyph unicode="&#xdf;" horiz-adv-x="1080" d="M184 0v1014q0 210 91 313t277 103q142 0 224 -67t82 -185q0 -74 -18 -120t-44 -75t-57 -53l-57 -46t-44 -52t-18 -78q0 -54 27 -90t69 -66t88 -58t86 -64t69 -86t29 -124q0 -60 -19 -110t-55 -88t-89 -59t-121 -21q-128 0 -220 46l20 70q36 -12 84 -20t94 -8q90 0 138 50 t48 120q0 62 -26 102t-67 70t-88 57t-88 61t-68 81t-27 117q0 58 18 96t44 66t58 51t60 53t44 69t16 99q0 82 -57 128t-147 46q-68 0 -115 -23t-74 -64t-39 -99t-12 -132v-1024h-116z" />
<glyph unicode="&#xe0;" horiz-adv-x="980" d="M100 246q0 72 28 131t88 103t156 68t224 24h86v116q0 114 -57 168t-183 54q-80 0 -149 -19t-121 -39l-22 78q58 26 142 48t186 22q92 0 153 -22t97 -61t53 -92t17 -117v-708h-92l-12 118q-70 -58 -145 -95t-171 -37q-136 0 -207 68t-71 192zM220 264q0 -84 48 -135 t142 -51q130 0 272 124v284h-102q-112 0 -182 -17t-110 -48t-54 -71t-14 -86zM210 1364l88 70l250 -264l-58 -44z" />
<glyph unicode="&#xe1;" horiz-adv-x="980" d="M100 246q0 72 28 131t88 103t156 68t224 24h86v116q0 114 -57 168t-183 54q-80 0 -149 -19t-121 -39l-22 78q58 26 142 48t186 22q92 0 153 -22t97 -61t53 -92t17 -117v-708h-92l-12 118q-70 -58 -145 -95t-171 -37q-136 0 -207 68t-71 192zM220 264q0 -84 48 -135 t142 -51q130 0 272 124v284h-102q-112 0 -182 -17t-110 -48t-54 -71t-14 -86zM392 1170l250 264l88 -70l-280 -238z" />
<glyph unicode="&#xe2;" horiz-adv-x="980" d="M100 246q0 72 28 131t88 103t156 68t224 24h86v116q0 114 -57 168t-183 54q-80 0 -149 -19t-121 -39l-22 78q58 26 142 48t186 22q92 0 153 -22t97 -61t53 -92t17 -117v-708h-92l-12 118q-70 -58 -145 -95t-171 -37q-136 0 -207 68t-71 192zM220 264q0 -84 48 -135 t142 -51q130 0 272 124v284h-102q-112 0 -182 -17t-110 -48t-54 -71t-14 -86zM210 1182l268 254l266 -252l-48 -54l-222 176l-218 -176z" />
<glyph unicode="&#xe3;" horiz-adv-x="980" d="M100 246q0 72 28 131t88 103t156 68t224 24h86v116q0 114 -57 168t-183 54q-80 0 -149 -19t-121 -39l-22 78q58 26 142 48t186 22q92 0 153 -22t97 -61t53 -92t17 -117v-708h-92l-12 118q-70 -58 -145 -95t-171 -37q-136 0 -207 68t-71 192zM220 264q0 -84 48 -135 t142 -51q130 0 272 124v284h-102q-112 0 -182 -17t-110 -48t-54 -71t-14 -86zM138 1216q56 88 99 121t107 33q42 0 77 -16t63 -39t56 -42t56 -19q34 0 62 24t76 86l56 -40v0q-52 -84 -95 -119t-109 -35q-46 0 -80 16t-63 39t-55 41t-56 18q-34 0 -61 -22t-77 -88z" />
<glyph unicode="&#xe4;" horiz-adv-x="980" d="M100 246q0 72 28 131t88 103t156 68t224 24h86v116q0 114 -57 168t-183 54q-80 0 -149 -19t-121 -39l-22 78q58 26 142 48t186 22q92 0 153 -22t97 -61t53 -92t17 -117v-708h-92l-12 118q-70 -58 -145 -95t-171 -37q-136 0 -207 68t-71 192zM220 264q0 -84 48 -135 t142 -51q130 0 272 124v284h-102q-112 0 -182 -17t-110 -48t-54 -71t-14 -86zM218 1282q0 44 14 56t60 12q42 0 55 -12t13 -56t-13 -57t-55 -13q-46 0 -60 13t-14 57zM596 1282q0 44 14 56t58 12q46 0 58 -12t12 -56t-13 -57t-57 -13t-58 13t-14 57z" />
<glyph unicode="&#xe5;" horiz-adv-x="980" d="M100 246q0 72 28 131t88 103t156 68t224 24h86v116q0 114 -57 168t-183 54q-80 0 -149 -19t-121 -39l-22 78q58 26 142 48t186 22q92 0 153 -22t97 -61t53 -92t17 -117v-708h-92l-12 118q-70 -58 -145 -95t-171 -37q-136 0 -207 68t-71 192zM220 264q0 -84 48 -135 t142 -51q130 0 272 124v284h-102q-112 0 -182 -17t-110 -48t-54 -71t-14 -86zM280 1260q0 74 53 121t141 47q94 0 137 -45t43 -113q0 -82 -52 -127t-142 -45q-96 0 -138 42t-42 120zM376 1262q0 -46 20 -68t70 -22q52 0 72 24t20 66q0 48 -21 70t-71 22q-48 0 -69 -23 t-21 -69z" />
<glyph unicode="&#xe6;" horiz-adv-x="1526" d="M100 246q0 72 28 132t88 102t153 66t225 24h86v118q0 114 -56 168t-184 54q-78 0 -147 -19t-121 -39l-22 78q58 26 142 48t188 22q130 0 197 -47t89 -127q96 174 296 174q84 0 149 -29t109 -92t64 -159t12 -232h-600v-24q0 -208 75 -297t219 -89q138 0 278 64l26 -74 q-70 -34 -155 -58t-181 -24q-110 0 -201 49t-133 161q-70 -112 -156 -161t-190 -49q-136 0 -207 68t-71 192zM220 272q0 -90 47 -143t143 -53q86 0 153 54t117 146v212h-102q-110 0 -180 -17t-110 -46t-54 -68t-14 -85zM796 570h484v8q0 154 -55 244t-175 90q-60 0 -106 -28 t-78 -75t-49 -109t-21 -130z" />
<glyph unicode="&#xe7;" horiz-adv-x="858" d="M114 478q0 124 29 221t82 164t125 102t158 35q148 0 254 -120l-48 -62q-96 90 -208 90q-132 0 -201 -109t-69 -297q0 -206 66 -314t200 -108q62 0 121 26t119 86l48 -60v0q-60 -66 -135 -106t-177 -40q-176 0 -270 123t-94 369zM328 -310q56 50 77 95t17 127h106v0 q8 -84 -29 -150t-109 -116z" />
<glyph unicode="&#xe8;" horiz-adv-x="964" d="M114 464q0 256 101 396t287 140q84 0 148 -29t108 -92t64 -160t12 -233h-598v-22q0 -208 75 -296t219 -88q138 0 276 64l28 -76q-70 -36 -155 -59t-181 -23q-86 0 -157 26t-121 82t-78 148t-28 222zM236 572h484v6q0 160 -59 247t-173 87q-60 0 -107 -28t-78 -75 t-47 -108t-20 -129zM236 1364l88 70l250 -264l-58 -44z" />
<glyph unicode="&#xe9;" horiz-adv-x="964" d="M114 464q0 256 101 396t287 140q84 0 148 -29t108 -92t64 -160t12 -233h-598v-22q0 -208 75 -296t219 -88q138 0 276 64l28 -76q-70 -36 -155 -59t-181 -23q-86 0 -157 26t-121 82t-78 148t-28 222zM236 572h484v6q0 160 -59 247t-173 87q-60 0 -107 -28t-78 -75 t-47 -108t-20 -129zM426 1170l250 264l88 -70l-280 -238z" />
<glyph unicode="&#xea;" horiz-adv-x="964" d="M114 464q0 256 101 396t287 140q84 0 148 -29t108 -92t64 -160t12 -233h-598v-22q0 -208 75 -296t219 -88q138 0 276 64l28 -76q-70 -36 -155 -59t-181 -23q-86 0 -157 26t-121 82t-78 148t-28 222zM236 572h484v6q0 160 -59 247t-173 87q-60 0 -107 -28t-78 -75 t-47 -108t-20 -129zM222 1182l268 254l266 -252l-48 -54l-222 176l-218 -176z" />
<glyph unicode="&#xeb;" horiz-adv-x="964" d="M114 464q0 256 101 396t287 140q84 0 148 -29t108 -92t64 -160t12 -233h-598v-22q0 -208 75 -296t219 -88q138 0 276 64l28 -76q-70 -36 -155 -59t-181 -23q-86 0 -157 26t-121 82t-78 148t-28 222zM236 572h484v6q0 160 -59 247t-173 87q-60 0 -107 -28t-78 -75 t-47 -108t-20 -129zM228 1282q0 44 14 56t60 12q42 0 55 -12t13 -56t-13 -57t-55 -13q-46 0 -60 13t-14 57zM606 1282q0 44 14 56t58 12q46 0 58 -12t12 -56t-13 -57t-57 -13t-58 13t-14 57z" />
<glyph unicode="&#xec;" horiz-adv-x="486" d="M184 0v986h116v-986h-116zM-9 1364l88 70l250 -264l-58 -44z" />
<glyph unicode="&#xed;" horiz-adv-x="486" d="M184 0v986h116v-986h-116zM166 1170l250 264l88 -70l-280 -238z" />
<glyph unicode="&#xee;" horiz-adv-x="486" d="M184 0v986h116v-986h-116zM-21 1182l268 254l266 -252l-48 -54l-222 176l-218 -176z" />
<glyph unicode="&#xef;" horiz-adv-x="486" d="M184 0v986h116v-986h-116zM-17 1282q0 44 14 56t60 12q42 0 55 -12t13 -56t-13 -57t-55 -13q-46 0 -60 13t-14 57zM361 1282q0 44 14 56t58 12q46 0 58 -12t12 -56t-13 -57t-57 -13t-58 13t-14 57z" />
<glyph unicode="&#xf0;" horiz-adv-x="1028" d="M104 470q0 132 32 229t89 162t138 97t177 32q20 0 44 -2l46 -4t39 -5t25 -7q-22 46 -55 101t-83 113l-208 -120l-54 68l206 116q-66 72 -182 168h160l65 -59t61 -61l192 110l52 -68l-186 -106q110 -134 169 -290t59 -350q0 -174 -34 -290t-90 -187t-129 -101t-151 -30 q-100 0 -172 35t-119 99t-69 153t-22 197zM230 500q0 -222 70 -321t204 -99q50 0 97 19t84 73t59 149t22 245q0 110 -12 183t-26 119q-30 12 -91 22t-115 10q-62 0 -116 -23t-93 -72t-61 -125t-22 -180z" />
<glyph unicode="&#xf1;" horiz-adv-x="1074" d="M184 0v986h98l12 -122q70 62 149 99t167 37q64 0 117 -22t90 -73t58 -134t21 -205q0 -52 -1 -120t-2 -144l-2 -154t-1 -148h-114q0 64 1 134t1 140t1 137t1 123q0 200 -54 286t-156 86q-62 0 -131 -37t-139 -95v-774h-116zM220 1216q56 88 99 121t107 33q42 0 77 -16 t63 -39t56 -42t56 -19q34 0 62 24t76 86l56 -40v0q-52 -84 -95 -119t-109 -35q-46 0 -80 16t-63 39t-55 41t-56 18q-34 0 -61 -22t-77 -88z" />
<glyph unicode="&#xf2;" horiz-adv-x="1030" d="M114 476q0 132 31 233t87 165t134 95t170 31q84 0 155 -28t120 -87t77 -151t28 -224q0 -136 -29 -232t-86 -163t-135 -98t-172 -31q-86 0 -153 26t-119 86t-80 151t-28 227zM236 518q0 -234 68 -337t212 -103q130 0 204 98t74 292q0 228 -67 334t-215 106 q-130 0 -203 -101t-73 -289zM252 1364l88 70l250 -264l-58 -44z" />
<glyph unicode="&#xf3;" horiz-adv-x="1030" d="M114 476q0 132 31 233t87 165t134 95t170 31q84 0 155 -28t120 -87t77 -151t28 -224q0 -136 -29 -232t-86 -163t-135 -98t-172 -31q-86 0 -153 26t-119 86t-80 151t-28 227zM236 518q0 -234 68 -337t212 -103q130 0 204 98t74 292q0 228 -67 334t-215 106 q-130 0 -203 -101t-73 -289zM452 1170l250 264l88 -70l-280 -238z" />
<glyph unicode="&#xf4;" horiz-adv-x="1030" d="M114 476q0 132 31 233t87 165t134 95t170 31q84 0 155 -28t120 -87t77 -151t28 -224q0 -136 -29 -232t-86 -163t-135 -98t-172 -31q-86 0 -153 26t-119 86t-80 151t-28 227zM236 518q0 -234 68 -337t212 -103q130 0 204 98t74 292q0 228 -67 334t-215 106 q-130 0 -203 -101t-73 -289zM256 1182l268 254l266 -252l-48 -54l-222 176l-218 -176z" />
<glyph unicode="&#xf5;" horiz-adv-x="1030" d="M114 476q0 132 31 233t87 165t134 95t170 31q84 0 155 -28t120 -87t77 -151t28 -224q0 -136 -29 -232t-86 -163t-135 -98t-172 -31q-86 0 -153 26t-119 86t-80 151t-28 227zM236 518q0 -234 68 -337t212 -103q130 0 204 98t74 292q0 228 -67 334t-215 106 q-130 0 -203 -101t-73 -289zM188 1216q56 88 99 121t107 33q42 0 77 -16t63 -39t56 -42t56 -19q34 0 62 24t76 86l56 -40v0q-52 -84 -95 -119t-109 -35q-46 0 -80 16t-63 39t-55 41t-56 18q-34 0 -61 -22t-77 -88z" />
<glyph unicode="&#xf6;" horiz-adv-x="1030" d="M114 476q0 132 31 233t87 165t134 95t170 31q84 0 155 -28t120 -87t77 -151t28 -224q0 -136 -29 -232t-86 -163t-135 -98t-172 -31q-86 0 -153 26t-119 86t-80 151t-28 227zM236 518q0 -234 68 -337t212 -103q130 0 204 98t74 292q0 228 -67 334t-215 106 q-130 0 -203 -101t-73 -289zM256 1282q0 44 14 56t60 12q42 0 55 -12t13 -56t-13 -57t-55 -13q-46 0 -60 13t-14 57zM634 1282q0 44 14 56t58 12q46 0 58 -12t12 -56t-13 -57t-57 -13t-58 13t-14 57z" />
<glyph unicode="&#xf7;" d="M88 548v90h820v-90h-820zM418 208q0 48 17 64t65 16q46 0 63 -15t17 -61t-17 -63t-65 -17q-46 0 -63 15t-17 61zM418 978q0 46 17 61t63 15t64 -16t18 -62t-17 -61t-63 -15q-48 0 -65 15t-17 63z" />
<glyph unicode="&#xf8;" horiz-adv-x="1016" d="M114 476q0 134 29 232t84 163t134 97t171 32q56 0 107 -12t87 -36l102 176l74 -44l-104 -182q56 -58 87 -154t31 -230q0 -136 -28 -236t-84 -166t-134 -98t-174 -32q-52 0 -101 11t-93 39l-100 -176l-74 42l104 184q-56 54 -87 151t-31 239zM232 518q0 -222 68 -322 l376 668v0q-66 48 -164 48q-130 0 -205 -99t-75 -295zM352 122q64 -48 166 -48q132 0 206 99t74 299q0 108 -17 186t-51 130z" />
<glyph unicode="&#xf9;" horiz-adv-x="1074" d="M176 420q0 52 1 121l2 145l2 153t1 147h116q0 -62 -1 -133l-2 -141l-2 -137t-1 -123q0 -200 54 -285t158 -85q60 0 130 37t138 95v772h116v-986h-96l-12 122q-70 -62 -149 -99t-167 -37q-64 0 -117 22t-91 73t-59 134t-21 205zM280 1364l88 70l250 -264l-58 -44z" />
<glyph unicode="&#xfa;" horiz-adv-x="1074" d="M176 420q0 52 1 121l2 145l2 153t1 147h116q0 -62 -1 -133l-2 -141l-2 -137t-1 -123q0 -200 54 -285t158 -85q60 0 130 37t138 95v772h116v-986h-96l-12 122q-70 -62 -149 -99t-167 -37q-64 0 -117 22t-91 73t-59 134t-21 205zM478 1170l250 264l88 -70l-280 -238z" />
<glyph unicode="&#xfb;" horiz-adv-x="1074" d="M176 420q0 52 1 121l2 145l2 153t1 147h116q0 -62 -1 -133l-2 -141l-2 -137t-1 -123q0 -200 54 -285t158 -85q60 0 130 37t138 95v772h116v-986h-96l-12 122q-70 -62 -149 -99t-167 -37q-64 0 -117 22t-91 73t-59 134t-21 205zM270 1182l268 254l266 -252l-48 -54 l-222 176l-218 -176z" />
<glyph unicode="&#xfc;" horiz-adv-x="1074" d="M176 420q0 52 1 121l2 145l2 153t1 147h116q0 -62 -1 -133l-2 -141l-2 -137t-1 -123q0 -200 54 -285t158 -85q60 0 130 37t138 95v772h116v-986h-96l-12 122q-70 -62 -149 -99t-167 -37q-64 0 -117 22t-91 73t-59 134t-21 205zM280 1282q0 44 14 56t60 12q42 0 55 -12 t13 -56t-13 -57t-55 -13q-46 0 -60 13t-14 57zM658 1282q0 44 14 56t58 12q46 0 58 -12t12 -56t-13 -57t-57 -13t-58 13t-14 57z" />
<glyph unicode="&#xfd;" horiz-adv-x="906" d="M6 -258q12 -2 36 -3t40 -1q112 0 186 72q48 46 71 92t23 108q0 42 -16 109t-56 177l-246 690h128l212 -602q36 -100 55 -187t11 -133q38 82 75 191t72 230t66 250t53 251h126v0q-68 -296 -138 -511t-134 -363t-127 -239t-121 -141t-109 -67t-97 -17q-28 0 -57 6t-53 14 v74zM404 1170l250 264l88 -70l-280 -238z" />
<glyph unicode="&#xfe;" horiz-adv-x="1024" d="M184 -346v1764h116v-540q68 56 138 89t146 33q72 0 132 -35t104 -97t68 -148t24 -190q0 -144 -37 -247t-101 -169t-150 -97t-182 -31q-28 0 -69 2t-73 8v-342h-116zM300 102q32 -12 81 -19t89 -7q68 0 126 26t101 79t68 132t25 187q0 90 -16 165t-46 129t-74 83t-100 29 q-46 0 -115 -32t-139 -96v-676z" />
<glyph unicode="&#xff;" horiz-adv-x="906" d="M6 -258q12 -2 36 -3t40 -1q112 0 186 72q48 46 71 92t23 108q0 42 -16 109t-56 177l-246 690h128l212 -602q36 -100 55 -187t11 -133q38 82 75 191t72 230t66 250t53 251h126v0q-68 -296 -138 -511t-134 -363t-127 -239t-121 -141t-109 -67t-97 -17q-28 0 -57 6t-53 14 v74zM190 1282q0 44 14 56t60 12q42 0 55 -12t13 -56t-13 -57t-55 -13q-46 0 -60 13t-14 57zM568 1282q0 44 14 56t58 12q46 0 58 -12t12 -56t-13 -57t-57 -13t-58 13t-14 57z" />
<glyph unicode="&#x100;" horiz-adv-x="1034" d="M40 0l86 326l97 343l106 346l111 335h142q126 -362 228 -694t184 -656h-132q-16 70 -36 148l-42 158h-548q-20 -74 -38 -152l-34 -154h-124zM260 404h498v0q-58 200 -124 406l-136 412l-121 -396t-117 -422zM252 1510v88h528v-88h-528z" />
<glyph unicode="&#x101;" horiz-adv-x="974" d="M100 246q0 72 28 131t88 103t156 68t224 24h86v116q0 114 -57 168t-183 54q-80 0 -149 -19t-121 -39l-22 78q58 26 142 48t186 22q92 0 153 -22t97 -61t53 -92t17 -117v-708h-92l-12 118q-70 -58 -145 -95t-171 -37q-136 0 -207 68t-71 192zM220 264q0 -84 48 -135 t142 -51q130 0 272 124v284h-102q-112 0 -182 -17t-110 -48t-54 -71t-14 -86zM222 1220v88h508v-88h-508z" />
<glyph unicode="&#x102;" horiz-adv-x="1034" d="M40 0l86 326l97 343l106 346l111 335h142q126 -362 228 -694t184 -656h-132q-16 70 -36 148l-42 158h-548q-20 -74 -38 -152l-34 -154h-124zM260 404h498v0q-58 200 -124 406l-136 412l-121 -396t-117 -422zM260 1700h76q0 -27 10 -55t32 -50.5t56 -36.5t82 -14 q45 0 78 13.5t55 36t32.5 50t10.5 56.5h78v0q0 -48 -17 -93t-50 -79.5t-80.5 -55t-108.5 -20.5q-65 0 -112.5 20t-79 54.5t-47 79t-15.5 94.5z" />
<glyph unicode="&#x103;" horiz-adv-x="974" d="M100 246q0 72 28 131t88 103t156 68t224 24h86v116q0 114 -57 168t-183 54q-80 0 -149 -19t-121 -39l-22 78q58 26 142 48t186 22q92 0 153 -22t97 -61t53 -92t17 -117v-708h-92l-12 118q-70 -58 -145 -95t-171 -37q-136 0 -207 68t-71 192zM220 264q0 -84 48 -135 t142 -51q130 0 272 124v284h-102q-112 0 -182 -17t-110 -48t-54 -71t-14 -86zM218 1424h78q0 -84 44 -128t134 -44t134 43t44 129h78v0q0 -128 -66 -201t-190 -73q-132 0 -194 75t-62 199z" />
<glyph unicode="&#x104;" horiz-adv-x="1034" d="M40 0q39 156 85.5 325.5l98 343.5l106 346.5l110.5 334.5h142l120 -354.5l108 -340l97 -330.5t87 -325q-29 -18 -51 -42t-36.5 -50t-21.5 -51.5t-7 -46.5q0 -39 16 -60.5t52 -21.5q26 0 54 8t54 22l20 -64q-29 -21 -68.5 -34.5t-87.5 -13.5q-74 0 -110 37t-36 105 q0 54 24.5 111t65.5 101l-37 148.5l-41 157.5h-548q-20 -74 -37.5 -151.5l-34.5 -154.5h-124zM260 404h498v0l-124 406l-136 412l-59.5 -192l-61 -204.5l-60.5 -211z" />
<glyph unicode="&#x105;" horiz-adv-x="974" d="M100 246q0 72 28 132t88 103t153.5 67t224.5 24h88v116q0 112 -56.5 167t-185.5 55q-39 0 -76 -5.5t-71.5 -14t-65 -18.5t-55.5 -20l-22 78q59 26 142.5 48t187.5 22q90 0 150.5 -21.5t97.5 -60.5t52.5 -92.5t15.5 -117.5v-708q-17 -19 -31 -44t-23.5 -51t-14.5 -51 t-5 -44q0 -39 15 -60.5t51 -21.5q27 0 55.5 8t54.5 22l20 -64q-29 -21 -68.5 -34.5t-87.5 -13.5q-74 0 -111 37t-37 105q0 27 6.5 56t18.5 57t28.5 53.5t36.5 45.5l-10 118q-35 -29 -71 -53.5t-74.5 -42t-80.5 -27t-90 -9.5q-136 0 -207 68t-71 192zM220 270 q0 -89 47 -141.5t141 -52.5q130 0 274 126v284h-102q-112 0 -182 -16.5t-109.5 -45.5t-54 -68.5t-14.5 -85.5z" />
<glyph unicode="&#x106;" horiz-adv-x="1040" d="M120 654q0 166 35 298t99 224t155 140t201 48q102 0 188 -48t148 -174l-66 -48q-50 86 -114 128t-152 42q-96 0 -165 -49t-113 -130t-65 -185t-21 -216q0 -302 93 -449t269 -147q88 0 159 37t141 119l58 -60v0q-72 -92 -165 -145t-221 -53q-220 0 -342 169t-122 499z M484 1524l324 180l58 -94l-344 -148z" />
<glyph unicode="&#x107;" horiz-adv-x="856" d="M114 478q0 124 29 221t82 164t125 102t158 35q148 0 254 -120l-48 -62q-96 90 -208 90q-132 0 -201 -109t-69 -297q0 -206 66 -314t200 -108q62 0 121 26t119 86l48 -60v0q-60 -66 -135 -106t-177 -40q-176 0 -270 123t-94 369zM388 1170l250 264l88 -70l-280 -238z" />
<glyph unicode="&#x10c;" horiz-adv-x="1040" d="M120 654q0 166 35 298t99 224t155 140t201 48q102 0 188 -48t148 -174l-66 -48q-50 86 -114 128t-152 42q-96 0 -165 -49t-113 -130t-65 -185t-21 -216q0 -302 93 -449t269 -147q88 0 159 37t141 119l58 -60v0q-72 -92 -165 -145t-221 -53q-220 0 -342 169t-122 499z M298 1644l36 60l248 -130l242 130l36 -60l-282 -182z" />
<glyph unicode="&#x10d;" horiz-adv-x="856" d="M114 478q0 124 29 221t82 164t125 102t158 35q148 0 254 -120l-48 -62q-96 90 -208 90q-132 0 -201 -109t-69 -297q0 -206 66 -314t200 -108q62 0 121 26t119 86l48 -60v0q-60 -66 -135 -106t-177 -40q-176 0 -270 123t-94 369zM206 1384l46 52l222 -174l218 174l48 -52 l-270 -254z" />
<glyph unicode="&#x10e;" horiz-adv-x="1138" d="M198 0v1350q68 0 134 1t144 1q152 0 257 -54t170 -144t94 -206t29 -242q0 -164 -36 -295t-111 -223t-190 -141t-271 -49q-58 0 -118 1t-102 1zM320 102q72 -6 146 -6q210 0 320 143t110 447q0 114 -21 217t-73 181t-138 124t-216 46h-64t-64 -2v-1150zM240 1644l36 60 l248 -130l242 130l36 -60l-282 -182z" />
<glyph unicode="&#x10f;" horiz-adv-x="1024" d="M114 456q0 148 38 252t102 169t147 94t173 29q36 0 79 -2t71 -6v426h116v-1418h-94l-14 114q-70 -54 -142 -91t-154 -37q-70 0 -129 34t-102 95t-67 148t-24 193zM236 486q0 -184 61 -295t173 -111q46 0 114 31t140 95v676q-90 28 -176 28q-66 0 -123 -26t-99 -78 t-66 -132t-24 -188zM940 1174q38 36 55 66t17 62q0 11 -4.5 17t-10.5 12.5t-10.5 17t-4.5 31.5q0 38 14 51t50 13q38 0 51 -13.5t13 -52.5q0 -34 -6.5 -64t-21.5 -58.5t-39.5 -57.5t-60.5 -60z" />
<glyph unicode="&#x110;" horiz-adv-x="1158" d="M78 644v98h138v608q70 0 134 1t142 1q154 0 259 -54t170 -144t94 -206t29 -242q0 -164 -36 -295t-111 -223t-190 -141t-271 -49q-58 0 -117 1t-103 1v644h-138zM338 100q34 -2 71 -3t71 -1q212 0 323 143t111 447q0 114 -21 217t-73 181t-139 124t-217 46h-64 q-30 0 -62 -2v-510h264v-98h-264v-544z" />
<glyph unicode="&#x111;" horiz-adv-x="1024" d="M114 456q0 148 38.5 252t102.5 168.5t147 94t172 29.5q18 0 38.5 -0.5t40.5 -2l38.5 -3t32.5 -2.5v170h-238v78h238v178h116v-178h174v-78h-174v-1162h-94l-14 114q-69 -54 -142 -91t-154 -37q-71 0 -130 34t-101.5 95.5t-66.5 148t-24 192.5zM236 486q0 -92 15.5 -166.5 t45.5 -128t73.5 -82.5t99.5 -29q47 0 114.5 31.5t139.5 94.5v676q-44 14 -89 21t-87 7q-67 0 -124 -26t-99 -78.5t-65.5 -132t-23.5 -187.5z" />
<glyph unicode="&#x112;" horiz-adv-x="940" d="M198 0v1350h616v-100h-494v-508h406v-98h-406v-544h502v-100h-624zM236 1510v88h528v-88h-528z" />
<glyph unicode="&#x113;" horiz-adv-x="964" d="M114 464q0 256 101 396t287 140q84 0 148 -29t108 -92t64 -160t12 -233h-598v-22q0 -208 75 -296t219 -88q138 0 276 64l28 -76q-70 -36 -155 -59t-181 -23q-86 0 -157 26t-121 82t-78 148t-28 222zM236 572h484v6q0 160 -59 247t-173 87q-60 0 -107 -28t-78 -75 t-47 -108t-20 -129zM228 1220v88h508v-88h-508z" />
<glyph unicode="&#x116;" horiz-adv-x="940" d="M198 0v1350h616v-100h-494v-508h406v-98h-406v-544h502v-100h-624zM428 1554q0 22 3 35.5t12 21t24 10.5t39 3q25 0 40 -2.5t23 -10t10.5 -21.5t2.5 -36q0 -21 -2.5 -34.5t-10.5 -21.5t-23 -11t-40 -3t-40 3t-23.5 10.5t-11.5 21t-3 35.5z" />
<glyph unicode="&#x117;" horiz-adv-x="964" d="M114 464q0 256 101 396t287 140q84 0 148 -29t108 -92t64 -160t12 -233h-598v-22q0 -208 75 -296t219 -88q138 0 276 64l28 -76q-70 -36 -155 -59t-181 -23q-86 0 -157 26t-121 82t-78 148t-28 222zM236 572h484v6q0 160 -59 247t-173 87q-60 0 -107 -28t-78 -75 t-47 -108t-20 -129zM406 1281.45q0 45.6211 14 59.5059t64 13.8848t62 -13.8848t12 -59.5059t-13 -59.5059t-61 -13.8848q-50 0 -64 13.8848t-14 59.5059z" />
<glyph unicode="&#x118;" horiz-adv-x="940" d="M198 0v1350h616v-100h-494v-508h406v-98h-406v-544h502v-100v0q-15 -23 -27.5 -49t-21.5 -51.5t-14 -48.5t-5 -41q0 -39 16 -60.5t52 -21.5q26 0 54 8t54 22l20 -64q-29 -21 -67.5 -34.5t-88.5 -13.5q-74 0 -110 37t-36 105q0 27 6.5 56t18.5 57t28.5 53.5t36.5 45.5 h-540z" />
<glyph unicode="&#x119;" horiz-adv-x="964" d="M106 464q0 127 26 227t75.5 168.5t122 104.5t164.5 36q83 0 148.5 -29.5t109 -92t63.5 -159.5t13 -233h-600v-22q0 -104 19 -176.5t56.5 -119t92.5 -67.5t126 -21q69 0 137.5 14.5t140.5 47.5l26 -74v0q-34 -23 -59 -58t-41.5 -72t-25 -71.5t-8.5 -56.5q0 -39 15 -60.5 t51 -21.5q27 0 55.5 8t54.5 22l20 -64q-29 -21 -68.5 -34.5t-87.5 -13.5q-74 0 -110 37t-36 105q0 27 7.5 58.5t21 62.5t33.5 59.5t46 49.5q-47 -15 -97.5 -23.5t-106.5 -8.5q-86 0 -157 26t-121.5 83t-78 148t-27.5 221zM228 572h484v6q0 77 -13.5 139t-42 105.5t-72 66.5 t-102.5 23q-61 0 -107 -28t-77.5 -74.5t-48.5 -108.5t-21 -129z" />
<glyph unicode="&#x11a;" horiz-adv-x="940" d="M198 0v1350h616v-100h-494v-508h406v-98h-406v-544h502v-100h-624zM226 1644l36 60l248 -130l242 130l36 -60l-282 -182z" />
<glyph unicode="&#x11b;" horiz-adv-x="964" d="M114 464q0 256 101 396t287 140q84 0 148 -29t108 -92t64 -160t12 -233h-598v-22q0 -208 75 -296t219 -88q138 0 276 64l28 -76q-70 -36 -155 -59t-181 -23q-86 0 -157 26t-121 82t-78 148t-28 222zM236 572h484v6q0 160 -59 247t-173 87q-60 0 -107 -28t-78 -75 t-47 -108t-20 -129zM226 1384l46 52l222 -174l218 174l48 -52l-270 -254z" />
<glyph unicode="&#x11e;" horiz-adv-x="1132" d="M120 664q0 170 40 301t107 219t155 134t184 46q108 0 193 -45t143 -103l-52 -62q-52 42 -122 76t-150 34q-166 0 -267 -149t-101 -427q0 -158 25 -272t72 -187t113 -107t146 -34q84 0 143 24t91 52v456h-210v96h332v-580v0q-66 -62 -159 -106t-225 -44q-102 0 -186 39 t-144 122t-94 211t-34 306zM336 1700h76q0 -27 10 -55t32 -50.5t56 -36.5t82 -14q45 0 78 13.5t55 36t32.5 50t10.5 56.5h78v0q0 -48 -17 -93t-50 -79.5t-80.5 -55t-108.5 -20.5q-65 0 -112.5 20t-79 54.5t-47 79t-15.5 94.5z" />
<glyph unicode="&#x11f;" horiz-adv-x="1026" d="M114 484q0 136 39 233t103 160t146 93t170 30q70 0 141 -9t127 -19v-944v0q0 -116 -26 -190t-73 -117t-114 -59t-149 -16q-70 0 -147 15t-145 37l14 72q136 -24 235 -29t163 17t95 78t31 154v156q-64 -48 -137 -83t-153 -35q-68 0 -127 34t-102 95t-67 145t-24 182z M236 518q0 -88 15 -161t45 -126t74 -82t102 -29q56 0 126 37t126 87v636q-42 16 -92 23t-86 7q-66 0 -123 -27t-99 -78t-65 -123t-23 -164zM268 1424h78q0 -84 44 -128t134 -44t134 43t44 129h78v0q0 -128 -66 -201t-190 -73q-132 0 -194 75t-62 199z" />
<glyph unicode="&#x122;" horiz-adv-x="1132" d="M120 664q0 170 40 301t107 219t155 134t184 46q108 0 193 -45t143 -103l-52 -62q-52 42 -122 76t-150 34q-166 0 -267 -149t-101 -427q0 -158 25 -272t72 -187t113 -107t146 -34q84 0 143 24t91 52v456h-210v96h332v-580v0q-66 -62 -159 -106t-225 -44q-102 0 -186 39 t-144 122t-94 211t-34 306zM446 -308q48 27 71 53.5t23 50.5q0 10 -3.5 15.5t-7.5 11t-7.5 14t-3.5 25.5q0 29 14.5 43.5t49.5 14.5q64 0 64 -64q0 -51 -23.5 -90t-70.5 -72l-36.5 -24t-39.5 -24z" />
<glyph unicode="&#x123;" horiz-adv-x="1026" d="M114 484q0 136 39 233t103 160t146 93t170 30q70 0 141 -9t127 -19v-944v0q0 -116 -26 -190t-73 -117t-114 -59t-149 -16q-70 0 -147 15t-145 37l14 72q136 -24 235 -29t163 17t95 78t31 154v156q-64 -48 -137 -83t-153 -35q-68 0 -127 34t-102 95t-67 145t-24 182z M236 518q0 -88 15 -161t45 -126t74 -82t102 -29q56 0 126 37t126 87v636q-42 16 -92 23t-86 7q-66 0 -123 -27t-99 -78t-65 -123t-23 -164zM520 1196q0 34 6 64t21 59t39 57.5t60 59.5l42 -36q-70 -67 -70 -126q0 -12 4.5 -18l9.5 -13t9.5 -17.5t4.5 -31.5q0 -35 -14 -48.5 t-50 -13.5t-49 14t-13 50z" />
<glyph unicode="&#x12a;" horiz-adv-x="518" d="M198 0v1350h122v-1350h-122zM-5 1510v88h528v-88h-528z" />
<glyph unicode="&#x12b;" horiz-adv-x="486" d="M184 0v986h116v-986h-116zM-9 1220v88h508v-88h-508z" />
<glyph unicode="&#x12e;" horiz-adv-x="518" d="M108 -212q0 56 25.5 112t64.5 100v1350h122v-1350q-23 -15 -42 -38t-33.5 -49t-22.5 -53t-8 -50q0 -39 16 -60.5t52 -21.5q26 0 55 8t53 22l20 -64q-27 -21 -66.5 -34.5t-87.5 -13.5q-74 0 -111 37t-37 105z" />
<glyph unicode="&#x12f;" horiz-adv-x="486" d="M94 -212q0 27 7.5 56.5t20 58t29 53.5t33.5 44v986h116v-986q-27 -17 -45.5 -40.5t-30.5 -49t-17 -51.5t-5 -49q0 -39 15 -60.5t51 -21.5q26 0 55 8t55 22l18 -64q-27 -21 -66.5 -34.5t-87.5 -13.5q-74 0 -111 37t-37 105zM168 1284q0 22 2.5 36.5t10.5 22t23 10.5t40 3 t39.5 -2.5t22 -10t10 -22t2.5 -37.5t-2.5 -37.5t-10 -22.5t-22 -11t-39.5 -3t-40 3t-23 11t-10.5 22.5t-2.5 37.5z" />
<glyph unicode="&#x130;" horiz-adv-x="518" d="M198 0v1350h122v-1350h-122zM183 1551.84q0 21.8848 3 35.3135q3 13.4297 12 20.8906q9 7.45996 24 10.4443t39 2.98438q25 0 40 -2.4873q15 -2.48633 23 -9.94727t10.5 -21.3867q2.5 -13.9268 2.5 -35.8115q0 -20.8896 -2.5 -34.3184q-2.5 -13.4297 -10.5 -21.3877 t-23 -10.9424q-15 -2.9834 -40 -2.9834t-40 2.9834q-15 2.98438 -23.5 10.4453t-11.5 20.8896q-3 13.4297 -3 35.3135z" />
<glyph unicode="&#x131;" horiz-adv-x="486" d="M184 0v986h116v-986h-116z" />
<glyph unicode="&#x136;" horiz-adv-x="1022" d="M198 0v1350h122v-612l466 612h142l-496 -620l534 -730h-154l-492 680v-680h-122zM410 -308q48 27 71 53.5t23 50.5q0 10 -3.5 15.5t-7.5 11t-7.5 14t-3.5 25.5q0 29 14.5 43.5t49.5 14.5q64 0 64 -64q0 -51 -23.5 -90t-70.5 -72l-36.5 -24t-39.5 -24z" />
<glyph unicode="&#x137;" horiz-adv-x="884" d="M184 0v1418h116v-834l338 402h150l-380 -412l446 -574h-144l-410 536v-536h-116zM350 -308q48 27 71 53.5t23 50.5q0 10 -3.5 15.5t-7.5 11t-7.5 14t-3.5 25.5q0 29 14.5 43.5t49.5 14.5q64 0 64 -64q0 -51 -23.5 -90t-70.5 -72l-36.5 -24t-39.5 -24z" />
<glyph unicode="&#x139;" horiz-adv-x="842" d="M198 0v1350h122v-1250h484v-100h-606zM247 1524l324 180l58 -94l-344 -148z" />
<glyph unicode="&#x13a;" horiz-adv-x="526" d="M184 182v1236h116v-1192q0 -92 16 -120t66 -28q16 0 34 1t32 1l6 -76v0q-24 -6 -57 -11t-57 -5q-42 0 -71 8t-48 29t-28 59t-9 98zM159 1540l324 180l58 -94l-344 -148z" />
<glyph unicode="&#x13b;" horiz-adv-x="842" d="M198 0v1350h122v-1250h484v-100h-606zM356 -308q48 27 71 53.5t23 50.5q0 10 -3.5 15.5t-7.5 11t-7.5 14t-3.5 25.5q0 29 14.5 43.5t49.5 14.5q64 0 64 -64q0 -51 -23.5 -90t-70.5 -72l-36.5 -24t-39.5 -24z" />
<glyph unicode="&#x13c;" horiz-adv-x="526" d="M184 182v1236h116v-1192q0 -92 16 -120t66 -28q16 0 34 1t32 1l6 -76v0q-24 -6 -57 -11t-57 -5q-42 0 -71 8t-48 29t-28 59t-9 98zM202 -308q48 27 71 53.5t23 50.5q0 10 -3.5 15.5t-7.5 11t-7.5 14t-3.5 25.5q0 29 14.5 43.5t49.5 14.5q64 0 64 -64q0 -51 -23.5 -90 t-70.5 -72l-36.5 -24t-39.5 -24z" />
<glyph unicode="&#x13d;" horiz-adv-x="842" d="M198 0v1350h122v-1250h484v-100h-606zM424 1174q36 36 53 66t17 62q0 11 -4.5 17l-9.5 12.5t-9.5 17t-4.5 31.5q0 38 13 51t51 13q36 0 49 -13.5t13 -52.5q0 -34 -6.5 -64t-21.5 -58.5t-39 -57.5t-59 -60z" />
<glyph unicode="&#x13e;" horiz-adv-x="526" d="M184 182v1236h116v-1192q0 -92 16 -120t66 -28q16 0 34 1t32 1l6 -76v0q-24 -6 -57 -11t-57 -5q-42 0 -71 8t-48 29t-28 59t-9 98zM392 1174q38 36 55 66t17 62q0 11 -4.5 17t-10.5 12.5t-10.5 17t-4.5 31.5q0 38 14 51t50 13q38 0 51 -13.5t13 -52.5q0 -34 -6.5 -64 t-21.5 -58.5t-39.5 -57.5t-60.5 -60z" />
<glyph unicode="&#x141;" horiz-adv-x="860" d="M50 636v102l166 90v522h122v-458l264 146v-102l-264 -146v-690h484v-100h-606v726z" />
<glyph unicode="&#x142;" horiz-adv-x="548" d="M46 710v102l158 86v520h116v-456l158 86v-102l-158 -86v-634q0 -98 15 -123t65 -25q16 0 33 1t33 3l6 -78v0q-22 -6 -56 -11t-58 -5q-42 0 -71 8t-48 29t-27 61t-8 96v614z" />
<glyph unicode="&#x143;" horiz-adv-x="1304" d="M198 0v1350h108h50l640 -1094v1094h110v-1350h-110l-690 1184v-1184h-108zM590 1524l324 180l58 -94l-344 -148z" />
<glyph unicode="&#x144;" horiz-adv-x="1076" d="M184 0v986h98l12 -122q70 62 149 99t167 37q64 0 117 -22t90 -73t58 -134t21 -205q0 -52 -1 -120t-2 -144l-2 -154t-1 -148h-114q0 64 1 134t1 140t1 137t1 123q0 200 -54 286t-156 86q-62 0 -131 -37t-139 -95v-774h-116zM462 1170l250 264l88 -70l-280 -238z" />
<glyph unicode="&#x145;" horiz-adv-x="1304" d="M198 0v1350h108h50l640 -1094v1094h110v-1350h-110l-690 1184v-1184h-108zM498 -308q48 27 71 53.5t23 50.5q0 10 -3.5 15.5t-7.5 11t-7.5 14t-3.5 25.5q0 29 14.5 43.5t49.5 14.5q64 0 64 -64q0 -51 -23.5 -90t-70.5 -72l-36.5 -24t-39.5 -24z" />
<glyph unicode="&#x146;" horiz-adv-x="1076" d="M184 0v986h98l12 -122q70 62 149 99t167 37q64 0 117 -22t90 -73t58 -134t21 -205q0 -52 -1 -120t-2 -144l-2 -154t-1 -148h-114q0 64 1 134t1 140t1 137t1 123q0 200 -54 286t-156 86q-62 0 -131 -37t-139 -95v-774h-116zM396 -308q48 27 71 53.5t23 50.5 q0 10 -3.5 15.5t-7.5 11t-7.5 14t-3.5 25.5q0 29 14.5 43.5t49.5 14.5q64 0 64 -64q0 -51 -23.5 -90t-70.5 -72l-36.5 -24t-39.5 -24z" />
<glyph unicode="&#x147;" horiz-adv-x="1304" d="M198 0v1350h108h50l640 -1094v1094h110v-1350h-110l-690 1184v-1184h-108zM396 1644l36 60l248 -130l242 130l36 -60l-282 -182z" />
<glyph unicode="&#x148;" horiz-adv-x="1076" d="M184 0v986h98l12 -122q70 62 149 99t167 37q64 0 117 -22t90 -73t58 -134t21 -205q0 -52 -1 -120t-2 -144l-2 -154t-1 -148h-114q0 64 1 134t1 140t1 137t1 123q0 200 -54 286t-156 86q-62 0 -131 -37t-139 -95v-774h-116zM274 1384l46 52l222 -174l218 174l48 -52 l-270 -254z" />
<glyph unicode="&#x14c;" horiz-adv-x="1254" d="M120 654q0 190 40 324t112 220t171 126t209 40q112 0 204 -38t157 -117t101 -205t36 -306q0 -190 -40 -325t-111 -221t-169 -126t-210 -40q-114 0 -205 37t-157 117t-102 208t-36 306zM250 686q0 -310 98 -456t292 -146q86 0 156 33t120 104t77 182t27 265q0 308 -98 454 t-292 146q-86 0 -156 -34t-120 -105t-77 -184t-27 -259zM372 1510v88h528v-88h-528z" />
<glyph unicode="&#x14d;" horiz-adv-x="1016" d="M114 476q0 132 31 233t87 165t134 95t170 31q84 0 155 -28t120 -87t77 -151t28 -224q0 -136 -29 -232t-86 -163t-135 -98t-172 -31q-86 0 -153 26t-119 86t-80 151t-28 227zM236 518q0 -234 68 -337t212 -103q130 0 204 98t74 292q0 228 -67 334t-215 106 q-130 0 -203 -101t-73 -289zM260 1220v88h508v-88h-508z" />
<glyph unicode="&#x150;" horiz-adv-x="1254" d="M120 654q0 190 40 324t112 220t171 126t209 40q112 0 204 -38t157 -117t101 -205t36 -306q0 -190 -40 -325t-111 -221t-169 -126t-210 -40q-114 0 -205 37t-157 117t-102 208t-36 306zM250 686q0 -310 98 -456t292 -146q86 0 156 33t120 104t77 182t27 265q0 308 -98 454 t-292 146q-86 0 -156 -34t-120 -105t-77 -184t-27 -259zM420 1492l286 228l72 -72l-312 -198zM776 1498l306 206l66 -76l-332 -174z" />
<glyph unicode="&#x151;" horiz-adv-x="1016" d="M114 476q0 132 31 233t87 165t134 95t170 31q84 0 155 -28t120 -87t77 -151t28 -224q0 -136 -29 -232t-86 -163t-135 -98t-172 -31q-86 0 -153 26t-119 86t-80 151t-28 227zM236 518q0 -234 68 -337t212 -103q130 0 204 98t74 292q0 228 -67 334t-215 106 q-130 0 -203 -101t-73 -289zM274 1162l232 278l90 -68l-260 -254zM606 1170l250 262l88 -70l-280 -236z" />
<glyph unicode="&#x152;" horiz-adv-x="1524" d="M120 654q0 190 41 326t112 220t170 124t211 40q34 0 71 -3t75 -11h596v-100h-494v-508h406v-98h-406v-544h502v-100h-610q-46 -8 -88 -11t-86 -3q-110 0 -202 36t-159 117t-103 207t-36 308zM250 686q0 -312 98 -457t292 -145q76 0 140 14v1144q-68 26 -150 26 q-86 0 -156 -34t-120 -104t-77 -180t-27 -264z" />
<glyph unicode="&#x153;" horiz-adv-x="1642" d="M114 472q0 136 29 235t84 164t133 97t172 32q114 0 198 -53t130 -169q94 222 318 222q86 0 150 -29t108 -92t64 -159t12 -234h-600v-22q2 -208 77 -296t219 -88q138 0 276 64l28 -76q-70 -36 -155 -59t-181 -23q-114 0 -200 50t-132 168q-48 -114 -139 -166t-209 -52 q-88 0 -155 27t-118 84t-80 150t-29 225zM236 518q0 -234 68 -337t218 -103q130 0 201 100t71 294q0 232 -68 334t-216 102q-126 0 -200 -97t-74 -293zM914 572h482v6q0 154 -56 244t-172 90q-62 0 -108 -27t-78 -75t-48 -110t-20 -128z" />
<glyph unicode="&#x154;" horiz-adv-x="1052" d="M198 0v1350q60 0 130 1t178 1q218 0 328 -93t110 -247q0 -100 -35 -169t-90 -112t-123 -65t-134 -28l466 -638h-154l-440 620h-114v-620h-122zM320 716h178q150 0 234 71t84 203q0 64 -18 113t-59 84t-107 53t-160 18h-152v-542zM428 1524l324 180l58 -94l-344 -148z" />
<glyph unicode="&#x155;" horiz-adv-x="684" d="M184 0v986h98l12 -186q90 112 149 155t109 43q18 0 36 -4t40 -14l-14 -114q-24 8 -41 10t-31 2q-48 0 -103 -43t-139 -145v-690h-116zM334 1170l250 264l88 -70l-280 -238z" />
<glyph unicode="&#x156;" horiz-adv-x="1052" d="M198 0v1350q60 0 130 1t178 1q218 0 328 -93t110 -247q0 -100 -35 -169t-90 -112t-123 -65t-134 -28l466 -638h-154l-440 620h-114v-620h-122zM320 716h178q150 0 234 71t84 203q0 64 -18 113t-59 84t-107 53t-160 18h-152v-542zM420 -308q48 27 71 53.5t23 50.5 q0 10 -3.5 15.5t-7.5 11t-7.5 14t-3.5 25.5q0 29 14.5 43.5t49.5 14.5q64 0 64 -64q0 -51 -23.5 -90t-70.5 -72l-36.5 -24t-39.5 -24z" />
<glyph unicode="&#x157;" horiz-adv-x="684" d="M184 0v986h98l12 -186q90 112 149 155t109 43q18 0 36 -4t40 -14l-14 -114q-24 8 -41 10t-31 2q-48 0 -103 -43t-139 -145v-690h-116zM113 -308q48 27 71 53.5t23 50.5q0 10 -3.5 15.5t-7.5 11t-7.5 14t-3.5 25.5q0 29 14.5 43.5t49.5 14.5q64 0 64 -64q0 -51 -23.5 -90 t-70.5 -72l-36.5 -24t-39.5 -24z" />
<glyph unicode="&#x158;" horiz-adv-x="1052" d="M198 0v1350q60 0 130 1t178 1q218 0 328 -93t110 -247q0 -100 -35 -169t-90 -112t-123 -65t-134 -28l466 -638h-154l-440 620h-114v-620h-122zM320 716h178q150 0 234 71t84 203q0 64 -18 113t-59 84t-107 53t-160 18h-152v-542zM244 1644l36 60l248 -130l242 130l36 -60 l-282 -182z" />
<glyph unicode="&#x159;" horiz-adv-x="684" d="M184 0v986h98l12 -186q90 112 149 155t109 43q18 0 36 -4t40 -14l-14 -114q-24 8 -41 10t-31 2q-48 0 -103 -43t-139 -145v-690h-116zM138 1384l46 52l222 -174l218 174l48 -52l-270 -254z" />
<glyph unicode="&#x15a;" horiz-adv-x="992" d="M118 90l34 72q68 -30 158 -54t154 -24q142 0 224 69t82 189q0 84 -47 141t-121 98t-156 76t-154 81t-120 117t-48 173q0 74 28 135t78 106t121 70t155 25q90 0 168 -23t140 -63l-32 -70q-52 22 -121 41t-141 19q-132 0 -200 -63t-68 -159q0 -84 47 -141t120 -98t158 -77 t159 -84t120 -118t46 -170q0 -84 -31 -152t-87 -117t-133 -76t-173 -27q-108 0 -198 30t-162 74zM440 1524l324 180l58 -94l-344 -148z" />
<glyph unicode="&#x15b;" horiz-adv-x="788" d="M92 50l20 72q74 -22 125 -33t103 -11q120 0 178 49t58 119q0 36 -9 65t-33 54t-67 48t-109 49q-74 28 -125 57t-81 61t-43 69t-13 81q0 60 22 109t62 85t97 56t125 20q58 0 111 -11t107 -37l-22 -72q-42 16 -89 24t-89 8q-102 0 -152 -47t-50 -113q0 -32 10 -59t36 -51 t71 -46t113 -48q136 -50 193 -115t57 -167q0 -126 -91 -203t-249 -77q-78 0 -145 18t-121 46zM314 1170l250 264l88 -70l-280 -238z" />
<glyph unicode="&#x15e;" horiz-adv-x="992" d="M118 90l34 72q68 -30 158 -54t154 -24q142 0 224 69t82 189q0 84 -47 141t-121 98t-156 76t-154 81t-120 117t-48 173q0 74 28 135t78 106t121 70t155 25q90 0 168 -23t140 -63l-32 -70q-52 22 -121 41t-141 19q-132 0 -200 -63t-68 -159q0 -84 47 -141t120 -98t158 -77 t159 -84t120 -118t46 -170q0 -84 -31 -152t-87 -117t-133 -76t-173 -27q-108 0 -198 30t-162 74zM338 -310q56 50 77 95t17 127h106v0q8 -84 -29 -150t-109 -116z" />
<glyph unicode="&#x15f;" horiz-adv-x="788" d="M92 50l20 72q74 -22 125 -33t103 -11q120 0 178 49t58 119q0 36 -9 65t-33 54t-67 48t-109 49q-74 28 -125 57t-81 61t-43 69t-13 81q0 60 22 109t62 85t97 56t125 20q58 0 111 -11t107 -37l-22 -72q-42 16 -89 24t-89 8q-102 0 -152 -47t-50 -113q0 -32 10 -59t36 -51 t71 -46t113 -48q136 -50 193 -115t57 -167q0 -126 -91 -203t-249 -77q-78 0 -145 18t-121 46zM224 -310q56 50 77 95t17 127h106v0q8 -84 -29 -150t-109 -116z" />
<glyph unicode="&#x160;" horiz-adv-x="992" d="M118 90l34 72q68 -30 158 -54t154 -24q142 0 224 69t82 189q0 84 -47 141t-121 98t-156 76t-154 81t-120 117t-48 173q0 74 28 135t78 106t121 70t155 25q90 0 168 -23t140 -63l-32 -70q-52 22 -121 41t-141 19q-132 0 -200 -63t-68 -159q0 -84 47 -141t120 -98t158 -77 t159 -84t120 -118t46 -170q0 -84 -31 -152t-87 -117t-133 -76t-173 -27q-108 0 -198 30t-162 74zM218 1644l36 60l248 -130l242 130l36 -60l-282 -182z" />
<glyph unicode="&#x161;" horiz-adv-x="790" d="M92 50l20 72q74 -22 125 -33t103 -11q120 0 178 49t58 119q0 36 -9 65t-33 54t-67 48t-109 49q-74 28 -125 57t-81 61t-43 69t-13 81q0 60 22 109t62 85t97 56t125 20q58 0 111 -11t107 -37l-22 -72q-42 16 -89 24t-89 8q-102 0 -152 -47t-50 -113q0 -32 10 -59t36 -51 t71 -46t113 -48q136 -50 193 -115t57 -167q0 -126 -91 -203t-249 -77q-78 0 -145 18t-121 46zM128 1384l46 52l222 -174l218 174l48 -52l-270 -254z" />
<glyph unicode="&#x162;" horiz-adv-x="932" d="M32 1250v100h868v-100h-374v-1250h-122v1250h-372zM332 -308q48 27 71 53.5t23 50.5q0 10 -3.5 15.5t-7.5 11t-7.5 14t-3.5 25.5q0 29 14.5 43.5t49.5 14.5q64 0 64 -64q0 -51 -23.5 -90t-70.5 -72l-36.5 -24t-39.5 -24z" />
<glyph unicode="&#x21a;" horiz-adv-x="932" d="M32 1250v100h868v-100h-374v-1250h-122v1250h-372zM332 -308q48 27 71 53.5t23 50.5q0 10 -3.5 15.5t-7.5 11t-7.5 14t-3.5 25.5q0 29 14.5 43.5t49.5 14.5q64 0 64 -64q0 -51 -23.5 -90t-70.5 -72l-36.5 -24t-39.5 -24z" />
<glyph unicode="&#x163;" horiz-adv-x="702" d="M34 900v86h172q10 66 19 135t15 145h82v-280h288v-86h-288v-618q0 -112 25 -158t107 -46q28 0 67 7t97 29l18 -72v0q-116 -56 -210 -56q-122 0 -171 61t-49 207v646h-172zM274 -308q48 27 71 53.5t23 50.5q0 10 -3.5 15.5t-7.5 11t-7.5 14t-3.5 25.5q0 29 14.5 43.5 t49.5 14.5q64 0 64 -64q0 -51 -23.5 -90t-70.5 -72l-36.5 -24t-39.5 -24z" />
<glyph unicode="&#x21b;" horiz-adv-x="702" d="M34 900v86h172q10 66 19 135t15 145h82v-280h288v-86h-288v-618q0 -112 25 -158t107 -46q28 0 67 7t97 29l18 -72v0q-116 -56 -210 -56q-122 0 -171 61t-49 207v646h-172zM274 -308q48 27 71 53.5t23 50.5q0 10 -3.5 15.5t-7.5 11t-7.5 14t-3.5 25.5q0 29 14.5 43.5 t49.5 14.5q64 0 64 -64q0 -51 -23.5 -90t-70.5 -72l-36.5 -24t-39.5 -24z" />
<glyph unicode="&#x164;" horiz-adv-x="932" d="M32 1250v100h868v-100h-374v-1250h-122v1250h-372zM187 1644l36 60l248 -130l242 130l36 -60l-282 -182z" />
<glyph unicode="&#x165;" horiz-adv-x="702" d="M34 900v86h172q10 66 19 135t15 145h82v-280h288v-86h-288v-618q0 -112 25 -158t107 -46q28 0 67 7t97 29l18 -72v0q-116 -56 -210 -56q-122 0 -171 61t-49 207v646h-172zM456 1174q38 36 55 66t17 62q0 11 -4.5 17t-10.5 12.5t-10.5 17t-4.5 31.5q0 38 14 51t50 13 q38 0 51 -13.5t13 -52.5q0 -34 -6.5 -64t-21.5 -58.5t-39.5 -57.5t-60.5 -60z" />
<glyph unicode="&#x16a;" horiz-adv-x="1304" d="M194 476v874h122v-854q0 -114 20 -193t62 -128t107 -71t153 -22q76 0 137 20t104 67t66 125t23 194v862h122v-850v0q0 -134 -34 -231t-97 -160t-151 -93t-198 -30q-220 0 -328 116t-108 374zM388 1510v88h528v-88h-528z" />
<glyph unicode="&#x16b;" horiz-adv-x="1076" d="M176 420q0 52 1 121l2 145l2 153t1 147h116q0 -62 -1 -133l-2 -141l-2 -137t-1 -123q0 -200 54 -285t158 -85q60 0 130 37t138 95v772h116v-986h-96l-12 122q-70 -62 -149 -99t-167 -37q-64 0 -117 22t-91 73t-59 134t-21 205zM280 1220v88h508v-88h-508z" />
<glyph unicode="&#x16e;" horiz-adv-x="1304" d="M194 476v874h122v-854q0 -114 20 -193t62 -128t107 -71t153 -22q76 0 137 20t104 67t66 125t23 194v862h122v-850v0q0 -134 -34 -231t-97 -160t-151 -93t-198 -30q-220 0 -328 116t-108 374zM478.931 1545.88q0 35.1104 13.251 64.3691q13.252 29.2578 38.2812 49.7393 q25.0303 20.4805 59.3848 32.1836q34.3555 11.7041 77.5439 11.7041q46.1338 0 79.5068 -11.2158q33.374 -11.2158 54.4775 -31.209t30.9189 -47.3018q9.81641 -27.3076 9.81641 -60.4668q0 -75.0967 -51.042 -117.521t-135.456 -42.4248q-94.2305 0 -135.457 39.499 q-41.2256 39.499 -41.2256 112.645zM571.198 1547.83q0 -45.8389 20.1221 -65.832t70.1816 -19.9932q50.0605 0 69.2012 22.4316t19.1406 63.3936q0 46.8125 -20.6133 67.2939q-20.6133 20.4805 -67.7285 20.4805q-49.0781 0 -69.6904 -20.9678 q-20.6133 -20.9688 -20.6133 -66.8066z" />
<glyph unicode="&#x16f;" horiz-adv-x="1076" d="M176 420q0 52 1 121l2 145l2 153t1 147h116q0 -62 -1 -133l-2 -141l-2 -137t-1 -123q0 -200 54 -285t158 -85q60 0 130 37t138 95v772h116v-986h-96l-12 122q-70 -62 -149 -99t-167 -37q-64 0 -117 22t-91 73t-59 134t-21 205zM350 1260q0 74 53 121t141 47q94 0 137 -45 t43 -113q0 -82 -52 -127t-142 -45q-96 0 -138 42t-42 120zM446 1262q0 -46 20 -68t70 -22q52 0 72 24t20 66q0 48 -21 70t-71 22q-48 0 -69 -23t-21 -69z" />
<glyph unicode="&#x170;" horiz-adv-x="1304" d="M194 476v874h122v-854q0 -114 20 -193t62 -128t107 -71t153 -22q76 0 137 20t104 67t66 125t23 194v862h122v-850v0q0 -134 -34 -231t-97 -160t-151 -93t-198 -30q-220 0 -328 116t-108 374zM424 1492l286 228l72 -72l-312 -198zM780 1498l306 206l66 -76l-332 -174z" />
<glyph unicode="&#x171;" horiz-adv-x="1076" d="M176 420q0 52 1 121l2 145l2 153t1 147h116q0 -62 -1 -133l-2 -141l-2 -137t-1 -123q0 -200 54 -285t158 -85q60 0 130 37t138 95v772h116v-986h-96l-12 122q-70 -62 -149 -99t-167 -37q-64 0 -117 22t-91 73t-59 134t-21 205zM330 1162l232 278l90 -68l-260 -254z M662 1170l250 262l88 -70l-280 -236z" />
<glyph unicode="&#x172;" horiz-adv-x="1304" d="M194 476v874h122v-854q0 -115 20 -194t62 -128t106.5 -70.5t153.5 -21.5q76 0 137 20t104 67.5t66 125t23 193.5v862h122v-850q0 -77 -11 -139.5t-30.5 -112t-46.5 -88t-60 -68.5l-84 -83t-65.5 -73.5t-43 -65.5t-15.5 -60q0 -39 16 -60.5t52 -21.5q26 0 55 8t53 22 l20 -64q-27 -21 -66.5 -34.5t-87.5 -13.5q-74 0 -111 37t-37 105q0 26 9.5 55.5t26 58.5t38 55.5t46.5 46.5q-35 -9 -67 -13.5t-71 -4.5q-111 0 -193 28.5t-136 88.5t-80.5 152.5t-26.5 220.5z" />
<glyph unicode="&#x173;" horiz-adv-x="1076" d="M178 420q0 52 1 121l2 144.5l2 153t1 147.5h116q0 -63 -1 -133l-2 -140.5l-2 -137.5t-1 -123q0 -100 13.5 -170t40.5 -114.5t66.5 -65t91.5 -20.5q30 0 63 9.5t67.5 27t69 42t68.5 53.5v772h116v-986q-18 -18 -33 -43t-25.5 -51.5t-16 -51.5t-5.5 -44q0 -39 16 -60.5 t52 -21.5q26 0 54 8t54 22l20 -64q-29 -21 -67.5 -34.5t-86.5 -13.5q-75 0 -111.5 37t-36.5 105q0 27 7 56t19 57t28.5 53.5t35.5 45.5l-12 122q-71 -62 -149.5 -99t-166.5 -37q-65 0 -118 22t-90.5 73t-58.5 134t-21 205z" />
<glyph unicode="&#x178;" horiz-adv-x="960" d="M2 1350h140l86 -176l84 -163l86 -155t94 -152q100 148 183 319t149 327h136v0l-196 -381t-222 -371v-598h-122v598l-111 175l-104 178t-101 190zM218 1552q0 42 13 56t59 14t58 -14t12 -56q0 -40 -12 -53t-58 -13t-59 13t-13 53zM610 1552q0 46 13 58t59 12t59 -14 t13 -56q0 -40 -14 -53t-58 -13q-46 0 -59 12t-13 54z" />
<glyph unicode="&#x179;" horiz-adv-x="968" d="M86 0v70l624 1180h-596l4 100h734v-86l-616 -1160h652l-4 -104h-798zM412 1524l324 180l58 -94l-344 -148z" />
<glyph unicode="&#x17a;" horiz-adv-x="800" d="M96 0v68l444 826h-426l6 92h560v-68l-448 -824h470l-6 -94h-600zM314 1170l250 264l88 -70l-280 -238z" />
<glyph unicode="&#x17b;" horiz-adv-x="968" d="M86 0v70l624 1180h-596l4 100h734v-86l-616 -1160h652l-4 -104h-798zM410 1554q0 22 3 35.5t12 21t24 10.5t39 3q25 0 40 -2.5t23 -10t10.5 -21.5t2.5 -36q0 -21 -2.5 -34.5t-10.5 -21.5t-23 -11t-40 -3t-40 3t-23.5 10.5t-11.5 21t-3 35.5z" />
<glyph unicode="&#x17c;" horiz-adv-x="800" d="M96 0v68l444 826h-426l6 92h560v-68l-448 -824h470l-6 -94h-600zM324 1280q0 46 14 60t64 14t62 -14t12 -60t-13 -60t-61 -14q-50 0 -64 14t-14 60z" />
<glyph unicode="&#x17d;" horiz-adv-x="968" d="M86 0v70l624 1180h-596l4 100h734v-86l-616 -1160h652l-4 -104h-798zM210 1644l36 60l248 -130l242 130l36 -60l-282 -182z" />
<glyph unicode="&#x17e;" horiz-adv-x="800" d="M96 0v68l444 826h-426l6 92h560v-68l-448 -824h470l-6 -94h-600zM136 1384l46 52l222 -174l218 174l48 -52l-270 -254z" />
<glyph unicode="&#x192;" d="M6 -164l28 70q36 -16 73 -26t71 -10q158 0 176 184l72 594h-276v84h284l42 352q16 130 82 204t184 74q58 0 111 -17t87 -39l-30 -70q-34 16 -72 26t-72 10q-82 0 -123 -45t-51 -135l-42 -360h336v-84h-344l-70 -588q-14 -128 -81 -204t-189 -76q-60 0 -111 17t-85 39z " />
<glyph unicode="&#x218;" horiz-adv-x="992" d="M118 90l34 72q68 -30 158 -54t154 -24q142 0 224 69t82 189q0 84 -47 141t-121 98t-156 76t-154 81t-120 117t-48 173q0 74 28 135t78 106t121 70t155 25q90 0 168 -23t140 -63l-32 -70q-52 22 -121 41t-141 19q-132 0 -200 -63t-68 -159q0 -84 47 -141t120 -98t158 -77 t159 -84t120 -118t46 -170q0 -84 -31 -152t-87 -117t-133 -76t-173 -27q-108 0 -198 30t-162 74zM356 -308q48 27 71 53.5t23 50.5q0 10 -3.5 15.5t-7.5 11t-7.5 14t-3.5 25.5q0 29 14.5 43.5t49.5 14.5q64 0 64 -64q0 -51 -23.5 -90t-70.5 -72l-36.5 -24t-39.5 -24z" />
<glyph unicode="&#x219;" horiz-adv-x="788" d="M92 50l20 72q74 -22 125 -33t103 -11q120 0 178 49t58 119q0 36 -9 65t-33 54t-67 48t-109 49q-74 28 -125 57t-81 61t-43 69t-13 81q0 60 22 109t62 85t97 56t125 20q58 0 111 -11t107 -37l-22 -72q-42 16 -89 24t-89 8q-102 0 -152 -47t-50 -113q0 -32 10 -59t36 -51 t71 -46t113 -48q136 -50 193 -115t57 -167q0 -126 -91 -203t-249 -77q-78 0 -145 18t-121 46zM246 -308q48 27 71 53.5t23 50.5q0 10 -3.5 15.5t-7.5 11t-7.5 14t-3.5 25.5q0 29 14.5 43.5t49.5 14.5q64 0 64 -64q0 -51 -23.5 -90t-70.5 -72l-36.5 -24t-39.5 -24z" />
<glyph unicode="&#x2c6;" horiz-adv-x="700" d="M84 1182l268 254l266 -252l-48 -54l-222 176l-218 -176z" />
<glyph unicode="&#x2c7;" horiz-adv-x="700" d="M80 1384l46 52l222 -174l218 174l48 -52l-270 -254z" />
<glyph unicode="&#x2d8;" horiz-adv-x="706" d="M74 1424h78q0 -84 44 -128t134 -44t134 43t44 129h78v0q0 -128 -66 -201t-190 -73q-132 0 -194 75t-62 199z" />
<glyph unicode="&#x2d9;" horiz-adv-x="500" d="M166 1280q0 46 14 60t64 14t62 -14t12 -60t-13 -60t-61 -14q-50 0 -64 14t-14 60z" />
<glyph unicode="&#x2da;" horiz-adv-x="542" d="M60 1260q0 74 53 121t141 47q94 0 137 -45t43 -113q0 -82 -52 -127t-142 -45q-96 0 -138 42t-42 120zM156 1262q0 -46 20 -68t70 -22q52 0 72 24t20 66q0 48 -21 70t-71 22q-48 0 -69 -23t-21 -69z" />
<glyph unicode="&#x2db;" horiz-adv-x="618" d="M212 -212q0 54 26 115t76 107h84q-38 -52 -58 -108t-20 -92q0 -84 70 -84q26 0 54 8t56 22l14 -64v0q-28 -20 -67 -33t-87 -13q-72 0 -110 37t-38 105z" />
<glyph unicode="&#x2dc;" horiz-adv-x="822" d="M84 1216q56 88 99 121t107 33q42 0 77 -16t63 -39t56 -42t56 -19q34 0 62 24t76 86l56 -40v0q-52 -84 -95 -119t-109 -35q-46 0 -80 16t-63 39t-55 41t-56 18q-34 0 -61 -22t-77 -88z" />
<glyph unicode="&#x2dd;" horiz-adv-x="886" d="M80 1162l232 278l90 -68l-260 -254zM412 1170l250 262l88 -70l-280 -236z" />
<glyph unicode="&#x312;" horiz-adv-x="536" d="M194 1196q0 34 6 64t21 59t39 57.5t60 59.5l42 -36q-70 -67 -70 -126q0 -12 4.5 -18l9.5 -13t9.5 -17.5t4.5 -31.5q0 -35 -14 -48.5t-50 -13.5t-49 14t-13 50z" />
<glyph unicode="&#x315;" horiz-adv-x="540" d="M214 1174q38 36 55 66t17 62q0 11 -4.5 17t-10.5 12.5t-10.5 17t-4.5 31.5q0 38 14 51t50 13q38 0 51 -13.5t13 -52.5q0 -34 -6.5 -64t-21.5 -58.5t-39.5 -57.5t-60.5 -60z" />
<glyph unicode="&#x326;" horiz-adv-x="556" d="M164 -308q48 27 71 53.5t23 50.5q0 10 -3.5 15.5t-7.5 11t-7.5 14t-3.5 25.5q0 29 14.5 43.5t49.5 14.5q64 0 64 -64q0 -51 -23.5 -90t-70.5 -72l-36.5 -24t-39.5 -24z" />
<glyph unicode="&#x394;" horiz-adv-x="1034" d="M40 0l86 326l97 343l106 346l111 335h142q126 -362 228 -694t184 -656h-954zM182 100h658v0q-162 562 -342 1122l-84 -276l-87 -298l-81 -292t-64 -256z" />
<glyph unicode="&#x2206;" horiz-adv-x="1034" d="M40 0l86 326l97 343l106 346l111 335h142q126 -362 228 -694t184 -656h-954zM182 100h658v0q-162 562 -342 1122l-84 -276l-87 -298l-81 -292t-64 -256z" />
<glyph unicode="&#x3a9;" horiz-adv-x="1340" d="M84 0v94h352q-68 38 -119 99t-87 141t-54 167t-18 179q0 154 37 283t103 215t163 136t219 50q116 0 211 -48t158 -133t97 -203t34 -260q0 -220 -83 -385t-205 -241h364v-94h-480v104q60 28 112 85t88 139t56 176t20 202q0 102 -23 202t-68 179t-120 128t-179 49 q-100 0 -169 -51t-115 -129t-68 -179t-22 -203q0 -108 20 -198t54 -171t89 -141t113 -88v-104h-480z" />
<glyph unicode="&#x2126;" horiz-adv-x="1340" d="M84 0v94h352q-68 38 -119 99t-87 141t-54 167t-18 179q0 154 37 283t103 215t163 136t219 50q116 0 211 -48t158 -133t97 -203t34 -260q0 -220 -83 -385t-205 -241h364v-94h-480v104q60 28 112 85t88 139t56 176t20 202q0 102 -23 202t-68 179t-120 128t-179 49 q-100 0 -169 -51t-115 -129t-68 -179t-22 -203q0 -108 20 -198t54 -171t89 -141t113 -88v-104h-480z" />
<glyph unicode="&#x3c0;" horiz-adv-x="1246" d="M36 900v86h1106v-86h-244v-640q0 -102 27 -142t91 -40q42 0 75 7t61 19l20 -70v0q-42 -22 -92 -35t-96 -13q-108 0 -155 61t-47 189v664h-458v-900h-114v900h-174z" />
<glyph unicode="&#x2000;" horiz-adv-x="900" />
<glyph unicode="&#x2001;" horiz-adv-x="1800" />
<glyph unicode="&#x2002;" horiz-adv-x="900" />
<glyph unicode="&#x2003;" horiz-adv-x="1800" />
<glyph unicode="&#x2004;" horiz-adv-x="600" />
<glyph unicode="&#x2005;" horiz-adv-x="450" />
<glyph unicode="&#x2006;" horiz-adv-x="300" />
<glyph unicode="&#x2007;" horiz-adv-x="300" />
<glyph unicode="&#x2008;" horiz-adv-x="225" />
<glyph unicode="&#x2009;" horiz-adv-x="360" />
<glyph unicode="&#x200a;" horiz-adv-x="100" />
<glyph unicode="&#x2011;" horiz-adv-x="462" d="M70 540v96h390v-96h-390z" />
<glyph unicode="&#x2013;" d="M92 546v94h816v-94h-816z" />
<glyph unicode="&#x2014;" horiz-adv-x="2000" d="M316 546v94h1366v-94h-1366z" />
<glyph unicode="&#x2018;" horiz-adv-x="612" d="M198 1028q0 62 12 111t38 90t65 76t99 71l48 -58v0q-74 -48 -107 -94t-33 -86q0 -20 6 -29t14 -17t15 -20t7 -40q0 -54 -15 -72t-71 -18q-46 0 -62 19t-16 67z" />
<glyph unicode="&#x2019;" horiz-adv-x="610" d="M134 992q82 54 111 97t29 85q0 20 -6 29t-14 17t-15 20t-7 40q0 54 16 71t68 17q48 0 64 -18t16 -62q0 -128 -51 -207t-165 -145z" />
<glyph unicode="&#x201a;" horiz-adv-x="610" d="M128 -224q74 50 108 96t32 84q0 20 -6 29t-14 17t-15 22t-7 40q0 52 16 70t70 18q46 0 63 -18t17 -68q0 -122 -50 -200t-166 -148z" />
<glyph unicode="&#x201c;" horiz-adv-x="902" d="M160 1026q0 60 12 109t37 90t66 77t99 72l46 -56v0q-78 -50 -110 -97t-32 -83q0 -20 7 -30t14 -18t14 -20t7 -38q0 -52 -15 -70t-67 -18q-46 0 -62 19t-16 63zM516 1026q0 60 12 109t39 92t68 78t93 67l44 -56v0q-74 -48 -106 -93t-32 -85q0 -20 7 -31t14 -18t14 -19 t7 -38q0 -52 -15 -70t-67 -18q-46 0 -62 19t-16 63z" />
<glyph unicode="&#x201d;" horiz-adv-x="902" d="M130 996q78 52 108 94t30 86q0 22 -7 31t-14 17t-13 20t-6 38q0 50 16 68t68 18q46 0 61 -19t15 -63q0 -60 -11 -109t-37 -90t-66 -77t-98 -70zM484 994q76 50 108 93t32 89q0 22 -7 31t-14 17t-13 20t-6 38q0 50 15 68t67 18q46 0 62 -19t16 -63q0 -60 -12 -109t-36 -90 t-66 -77t-100 -72z" />
<glyph unicode="&#x201e;" horiz-adv-x="902" d="M130 -222q78 52 108 94t30 84q0 22 -7 31l-14 18t-13 22t-6 39q0 48 15 66t67 18q46 0 62 -19t16 -63q0 -62 -12 -111t-38 -90t-66 -76t-96 -69zM484 -224q78 50 109 95t31 85q0 20 -7 30t-14 19t-13 22t-6 39q0 48 15 66t67 18q46 0 62 -19t16 -63q0 -62 -12 -111 t-39 -91t-68 -77t-95 -69z" />
<glyph unicode="&#x2020;" horiz-adv-x="738" d="M86 1048v86h226v284h114v-284h226v-86h-226v-626h-114v626h-226z" />
<glyph unicode="&#x2021;" horiz-adv-x="738" d="M86 298v86h228v658h-228v86h228v290h110v-290h228v-86h-228v-658h228v-86h-228v-298h-110v298h-228z" />
<glyph unicode="&#x2022;" d="M270 612q0 48 18 90t50 74t73 50t89 18t90 -18t73 -50t49 -74t18 -90t-18 -90t-49 -73t-73 -49t-90 -18t-89 17t-73 49t-50 74t-18 90z" />
<glyph unicode="&#x2026;" horiz-adv-x="1554" d="M228 68q0 50 17 67t67 17q46 0 63 -16t17 -66t-17 -66t-65 -16t-65 16t-17 64zM674 68q0 50 15 67t69 17q52 0 66 -17t14 -65q0 -50 -15 -66t-67 -16t-67 16t-15 64zM1120 68q0 50 17 67t65 17t65 -16t17 -66t-17 -66t-65 -16q-50 0 -66 16t-16 64z" />
<glyph unicode="&#x202f;" horiz-adv-x="360" />
<glyph unicode="&#x2030;" horiz-adv-x="2068" d="M134 1046q0 170 70 244t198 74q142 0 197 -79t55 -233q0 -160 -67 -236t-199 -76q-146 0 -200 74t-54 232zM176 16l958 1364l70 -46l-958 -1364zM240 1056q0 -126 36 -181t120 -55q88 0 120 60t32 164q0 114 -32 177t-122 63q-74 0 -114 -51t-40 -177zM724 292 q0 170 69 244t199 74q142 0 197 -79t55 -233q0 -160 -67 -236t-199 -76q-146 0 -200 74t-54 232zM830 302q0 -126 36 -181t118 -55q90 0 122 60t32 164q0 114 -33 177t-121 63q-74 0 -114 -51t-40 -177zM1392 292q0 170 70 244t198 74q142 0 198 -79t56 -233 q0 -160 -67 -236t-199 -76q-148 0 -202 74t-54 232zM1498 302q0 -126 36 -181t120 -55q88 0 120 60t32 164q0 114 -32 177t-122 63q-72 0 -113 -51t-41 -177z" />
<glyph unicode="&#x2039;" horiz-adv-x="604" d="M116 590l240 374l76 -34l-184 -340l184 -342l-76 -32z" />
<glyph unicode="&#x203a;" horiz-adv-x="604" d="M172 250l184 340l-184 340l76 34l238 -374l-240 -374z" />
<glyph unicode="&#x2044;" horiz-adv-x="500" d="M-232 16l956 1364l70 -46l-958 -1364z" />
<glyph unicode="&#x2215;" horiz-adv-x="500" d="M-232 16l956 1364l70 -46l-958 -1364z" />
<glyph unicode="&#x205f;" horiz-adv-x="450" />
<glyph unicode="&#x20ac;" d="M8 504v82h112q-2 16 -2 32v38q0 62 6 118h-116v82h124q16 118 57 212t101 160t138 101t166 35q108 0 192 -48t146 -170l-62 -48q-48 84 -113 127t-159 43q-78 0 -137 -33t-102 -90t-69 -132t-36 -157h412v-82h-418q-2 -22 -3 -45t-1 -45v-50q0 -24 4 -48h418v-82h-412 q24 -208 112 -314t236 -106q90 0 160 38t138 116l54 -60v0q-72 -88 -161 -140t-217 -52q-186 0 -304 130t-146 388h-118z" />
<glyph unicode="&#x2122;" horiz-adv-x="820" d="M64 1294v56h220v-56h-74v-274h-72v274h-74zM316 1020q4 82 11 165t19 165h96l80 -252l80 252h96q10 -82 14 -165l8 -165h-72q0 64 -2 123t-8 129l-84 -252h-80l-80 250q-4 -70 -7 -128t-5 -122h-66z" />
<glyph unicode="&#x2202;" horiz-adv-x="1016" d="M104 470q0 132 32 230t91 163t141 96t180 31q40 0 83 -6t65 -12q-22 46 -51 93t-72 98t-103 108t-144 125l128 26q78 -56 156 -131t140 -175t101 -229t39 -295q0 -170 -33 -286t-89 -187t-129 -102t-151 -31q-100 0 -172 35t-119 98t-70 152t-23 199zM230 500 q0 -224 70 -322t206 -98q50 0 97 19t83 73t58 148t22 244q0 110 -11 183t-25 121q-32 14 -93 23t-113 9q-62 0 -116 -23t-93 -72t-62 -125t-23 -180z" />
<glyph unicode="&#x220f;" horiz-adv-x="1306" d="M62 1250v100h1194v-100h-174v-1250h-122v1250h-604v-1250h-122v1250h-172z" />
<glyph unicode="&#x2211;" d="M84 0v78l478 622l-450 562v88h764v-98h-610l434 -540l-470 -610h670v-102h-816z" />
<glyph unicode="&#x2212;" d="M92 548v94h820v-94h-820z" />
<glyph unicode="&#x221a;" d="M16 896v90h288l212 -850l92 298t84 297t77 303t69 316h120v0q-70 -326 -167 -664t-227 -686h-130l-228 896h-190z" />
<glyph unicode="&#x221e;" horiz-adv-x="2030" d="M164 576q0 88 23 165t70 133t117 88t164 32q62 0 123 -27t121 -72t120 -105l120 -124q54 62 112 121t120 105t126 74t132 28q90 0 157 -31t111 -83t66 -122t22 -146q0 -86 -22 -163t-68 -133t-117 -89t-169 -33q-60 0 -121 27t-121 72t-120 104l-120 123 q-56 -62 -114 -120t-119 -104t-125 -74t-134 -28q-90 0 -157 31t-111 84t-65 122t-21 145zM290 594q0 -54 13 -108t42 -96t74 -69t111 -27q52 0 103 24t101 65t101 94t101 111l-107 115t-104 97t-102 68t-99 26q-62 0 -107 -27t-73 -69t-41 -96t-13 -108zM1094 602l107 -116 t105 -98t103 -68t99 -26q64 0 108 27t72 69t41 96t13 108t-13 108t-41 96t-74 69t-112 27q-50 0 -101 -24t-102 -64t-102 -93z" />
<glyph unicode="&#x222b;" horiz-adv-x="800" d="M42 -314l18 74q132 -44 201 -7t69 175v1226q2 146 66 212t174 66q40 0 86 -12t80 -28l-20 -74v0q-126 44 -197 8t-71 -176v-1224q0 -134 -62 -207t-178 -73q-48 0 -91 12t-75 28z" />
<glyph unicode="&#x2248;" d="M92 388q62 60 117 89t119 29q60 0 101 -16t78 -38t75 -41t94 -19q38 0 77 18t103 70l42 -64v0q-64 -62 -119 -90t-119 -28q-60 0 -102 17t-78 39t-74 40t-92 18q-38 0 -77 -20t-103 -70zM92 772q62 60 116 89t120 29q60 0 102 -17t78 -39t75 -40t93 -18q40 0 79 19 t101 69l42 -64v0q-64 -62 -118 -90t-120 -28q-60 0 -102 17t-78 39t-75 40t-91 18q-38 0 -78 -19t-102 -71z" />
<glyph unicode="&#x2260;" d="M104 360v86h270l158 294h-428v88h472l168 314l84 -40l-150 -274h224v-88h-266l-160 -294h426v-86h-468l-170 -316l-84 42l152 274h-228z" />
<glyph unicode="&#x2264;" d="M90 0v88h816v-88h-816zM90 626v78l776 374l40 -88l-694 -324l694 -328l-40 -88z" />
<glyph unicode="&#x2265;" d="M88 338l694 324l-694 328l42 88l776 -374v-78l-776 -376zM90 0v88h816v-88h-816z" />
<glyph unicode="&#x25ca;" d="M60 668l390 682h108l380 -668l-388 -682h-110zM178 686l330 -574l312 552l-328 574z" />
<glyph unicode="&#xe080;" horiz-adv-x="1604" d="M34 900v86h174v94q0 73 14 137.5t51.5 112t104.5 75t174 27.5q28 0 58 -1t58.5 -3t54 -4.5t45.5 -5.5h112v-540q71 57 139.5 89.5t142.5 32.5q73 0 133 -35t103.5 -97.5t67.5 -149.5t24 -190q0 -145 -37 -247.5t-101.5 -168t-151 -96t-184.5 -30.5q-41 0 -75 2t-64 6 t-57.5 9t-55.5 11v1310q-42 8 -93.5 13t-96.5 5q-68 0 -115.5 -14t-77.5 -44.5t-43.5 -79t-13.5 -118.5v-100h216v-86h-216v-900h-116v900h-174zM880 102q30 -11 73.5 -18.5t96.5 -7.5q67 0 125 26t101 78.5t67.5 132.5t24.5 187q0 88 -15.5 162.5t-45.5 128.5t-73.5 84.5 t-99.5 30.5q-23 0 -53 -8t-63 -23.5t-68.5 -39.5t-69.5 -55v-678z" />
<glyph unicode="&#xe081;" horiz-adv-x="1652" d="M34 900v86h174v94q0 73 14 137.5t51.5 112t104.5 75t174 27.5q28 0 58 -1t58.5 -3t54 -4.5t45.5 -5.5h112v-548q63 54 140 92t166 38q64 0 117.5 -22.5t92 -73.5t59.5 -134t21 -204q0 -45 -1 -111t-2 -142l-2 -157t-1 -156h-114q0 68 0.5 141.5t1.5 144t1.5 133.5 t0.5 111q0 102 -14 173.5t-41 116.5t-67 65.5t-92 20.5q-54 0 -124 -34.5t-142 -97.5v-774h-116v1324q-42 8 -93.5 13t-96.5 5q-68 0 -115.5 -14t-77.5 -44.5t-43.5 -79t-13.5 -118.5v-100h216v-86h-216v-900h-116v900h-174z" />
<glyph unicode="&#xe082;" horiz-adv-x="1064" d="M34 900v86h174v168q0 64 14.5 115.5t44 87.5t74 55.5t103.5 19.5q56 0 104 -14.5t80 -31.5l-28 -76q-26 12 -60.5 22t-69.5 10q-77 0 -111.5 -44.5t-34.5 -135.5v-176h556v-914q0 -72 -9.5 -131t-31 -110t-57.5 -95.5t-88 -87.5l-64 44q59 60 96.5 146.5t37.5 195.5v866 h-440v-900h-116v900h-174zM746 1280q0 23 3 37.5t11.5 22.5t23.5 11t40 3q24 0 38.5 -3t22.5 -11t10.5 -22.5t2.5 -37.5t-2.5 -37t-10.5 -22.5t-22.5 -11.5t-38.5 -3q-25 0 -40 3t-23.5 11.5t-11.5 22.5t-3 37z" />
<glyph unicode="&#xe083;" horiz-adv-x="1462" d="M34 900v86h174v94q0 73 14 137.5t51.5 112t104.5 75t174 27.5q28 0 58 -1t58.5 -3t54 -4.5t45.5 -5.5h112v-834l338 402h148l-378 -412l444 -574h-144l-408 536v-536h-116v1324q-42 8 -93.5 13t-96.5 5q-68 0 -115.5 -14t-77.5 -44.5t-43.5 -79t-13.5 -118.5v-100h216 v-86h-216v-900h-116v900h-174z" />
<glyph unicode="&#xe084;" horiz-adv-x="1138" d="M34 900v86h174v154q0 64 14.5 116t44 88.5t74 56t103.5 19.5q57 0 106 -15t84 -35l-30 -72q-27 12 -63 21t-69 9q-78 0 -113 -44t-35 -136v-162h440v168q0 64 14.5 115.5t44.5 87.5t75 55.5t106 19.5q59 0 112 -17.5t88 -38.5l-30 -72q-33 17 -71 27.5t-71 10.5 q-81 0 -116.5 -44.5t-35.5 -135.5v-176h236v-86h-236v-900h-116v900h-440v-900h-116v900h-174z" />
<glyph unicode="&#xe085;" horiz-adv-x="1076" d="M34 900v86h174v168q0 128 59 203t181 75q56 0 108 -17t86 -35l-30 -74q-32 16 -68 26t-70 10q-80 0 -115 -44t-35 -136v-176h568v-986h-116v900h-452v-900h-116v900h-174zM758 1282q0 46 15 59t63 13q50 0 62 -13t12 -59t-12 -60t-62 -14q-52 0 -65 14t-13 60z" />
<glyph unicode="&#xe086;" horiz-adv-x="1116" d="M34 900v86h174v94q0 186 90 269t272 83q54 0 111 -4t97 -10h114v-1192q0 -92 15 -120t65 -28q16 0 34 1t32 1l6 -76v0q-22 -6 -56 -11t-58 -5q-42 0 -71 8t-47 29t-27 59t-9 98v1136l-45 9t-50 8t-49 5t-42 2q-68 0 -118 -10t-83 -38t-49 -77t-16 -127v-104h234v-86h-234 v-900h-116v900h-174z" />
<glyph unicode="&#xe087;" horiz-adv-x="1620" d="M34 900v86h174v154q0 64 14.5 116t44 88.5t74 56t103.5 19.5q57 0 106 -15t84 -35l-30 -72q-27 12 -63 21t-69 9q-78 0 -113 -44t-35 -136v-162h440v168q0 64 14.5 115.5t44 87.5t74 55.5t103.5 19.5q56 0 104 -14.5t80 -31.5l-28 -76q-26 12 -60.5 22t-69.5 10 q-77 0 -111.5 -44.5t-34.5 -135.5v-176h556v-986h-116v900h-440v-900h-116v900h-440v-900h-116v900h-174zM1302 1280q0 23 3 37.5t11.5 22.5t23.5 11t40 3q24 0 38.5 -3t22.5 -11t10.5 -22.5t2.5 -37.5t-2.5 -37t-10.5 -22.5t-22.5 -11.5t-38.5 -3q-25 0 -40 3t-23.5 11.5 t-11.5 22.5t-3 37z" />
<glyph unicode="&#xe088;" horiz-adv-x="1660" d="M34 900v86h174v154q0 64 14.5 116t44 88.5t74 56t103.5 19.5q57 0 106 -15t84 -35l-30 -72q-27 12 -63 21t-69 9q-78 0 -113 -44t-35 -136v-162h440v94q0 73 14 137.5t51.5 112t104.5 75t174 27.5q28 0 58 -1t58.5 -3t54 -4.5t45.5 -5.5h112v-1192q0 -47 3 -75.5 t11.5 -45t24 -22t41.5 -5.5q17 0 34.5 1t29.5 3l8 -78q-24 -6 -57 -11t-57 -5q-41 0 -70.5 7.5t-48 28.5t-27 59t-8.5 99v1142q-44 8 -94.5 13t-95.5 5q-68 0 -115.5 -14t-77.5 -44.5t-43.5 -79t-13.5 -118.5v-100h216v-86h-216v-900h-116v900h-440v-900h-116v900h-174z" />
<glyph unicode="&#xe0a0;" horiz-adv-x="960" d="M224 1522l282 182l280 -182l-36 -60l-246 132l-244 -132z" />
<glyph unicode="&#xe0a1;" horiz-adv-x="542" d="M58 1542q0 36 13.5 66t39 51t60.5 33t79 12q47 0 81 -11.5t55.5 -32t31.5 -48.5t10 -62q0 -77 -52 -120.5t-138 -43.5q-96 0 -138 40.5t-42 115.5zM152 1544q0 -47 20.5 -67.5t71.5 -20.5t70.5 23t19.5 65q0 48 -21 69t-69 21q-50 0 -71 -21.5t-21 -68.5z" />
<glyph unicode="&#xe0a2;" horiz-adv-x="960" d="M120 1520q26 42 48 71t47 48t51 27t62 8q46 0 81 -18t64 -41t55 -40t52 -17q34 0 61 23t77 87l58 -40v0q-54 -88 -98 -121t-110 -33q-44 0 -80 17t-64 39t-55 40t-55 18q-34 0 -62 -24t-76 -84z" />
<glyph unicode="&#xe0a3;" horiz-adv-x="640" d="M70 1700h76q0 -27 10 -55t32 -50.5t56 -36.5t82 -14q45 0 78 13.5t55 36t32.5 50t10.5 56.5h78v0q0 -48 -17 -93t-50 -79.5t-80.5 -55t-108.5 -20.5q-65 0 -112.5 20t-79 54.5t-47 79t-15.5 94.5z" />
<glyph unicode="&#xe0a4;" horiz-adv-x="512" d="M186 1554q0 22 3 35.5t12 21t24 10.5t39 3q25 0 40 -2.5t23 -10t10.5 -21.5t2.5 -36q0 -21 -2.5 -34.5t-10.5 -21.5t-23 -11t-40 -3t-40 3t-23.5 10.5t-11.5 21t-3 35.5z" />
<glyph unicode="&#xe0a5;" horiz-adv-x="820" d="M184 1280q0 22 3 35.5t10.5 21t21.5 10.5t37 3q22 0 35 -2.5t20.5 -10t10 -21.5t2.5 -36q0 -21 -2.5 -34.5t-10 -21t-20.5 -10t-35 -2.5q-23 0 -37 2.5t-21.5 10t-10.5 21t-3 34.5zM490 1280q0 22 2.5 35.5t10 21t21 10.5t36.5 3q22 0 35.5 -2.5t21 -10t9.5 -21.5t2 -36 q0 -21 -2 -34.5t-9.5 -21t-21 -10t-35.5 -2.5q-23 0 -36.5 2.5t-21 10t-10 21t-2.5 34.5z" />
<glyph unicode="&#xe0ae;" horiz-adv-x="540" d="M216 1174q36 36 53 66t17 62q0 11 -4.5 17l-9.5 12.5t-9.5 17t-4.5 31.5q0 38 13 51t51 13q36 0 49 -13.5t13 -52.5q0 -34 -6.5 -64t-21.5 -58.5t-39 -57.5t-59 -60z" />
<glyph unicode="&#xeeee;" horiz-adv-x="350" d="M0 -582v2382h350v-2382h-350z" />
<glyph unicode="&#xf000;" horiz-adv-x="1920" d="M158 970q6 6 18 10q16 -8 36 -9t42 -5q14 2 28 1t24 7q-2 52 8 92t14 94q-2 4 -6 8q-30 2 -57 0t-55 10q-4 10 6 10q28 -8 56 -8t56 2l4 6q4 34 11 69t19 63v6q46 52 105 84t133 40q36 4 72 -4t68 -22q10 -4 20 -4t20 -4q34 -8 68 -24t56 -46q4 -4 0 -18q-24 -26 -58 -16 q-10 12 -18 23t-10 25q-26 40 -70 50t-86 22l-62 4q-4 -4 -12 -2t-14 -2q-66 -20 -110 -42q-12 -16 -31 -27t-23 -33q-12 -30 -16 -68t-6 -72q10 -8 22 -5t22 1q42 4 84 4h88q8 -4 2 -14q-16 -12 -31 -1t-31 5q-20 2 -41 -1t-41 -1q-18 -4 -38 -4q-18 0 -34 -10l-6 -8 q-4 -38 -3 -62t5 -64q4 -14 1 -28t7 -28q26 -2 41 -1t28 2t28 3t41 2q6 4 13 2t13 -4q2 -2 1 -4t1 -4l-8 -4q-24 4 -42 3t-36 -3t-40 -4t-52 0l-46 -4t-46 0q-32 -2 -66 -2t-62 8zM240 -75q-2 33 8 65q4 40 2 80t4 80q-8 46 -1 89t-1 89q0 64 5 129t9 133q4 72 1 143t1 143 q8 16 23 13t29 1q16 -10 37 -5t37 3q6 6 15 11t11 -9q4 -4 1 -12t5 -12q-4 -28 -3 -76t4 -104t7 -115t6 -107q64 20 117 55t115 57q10 4 19 12t23 12q4 2 8 6t12 0q10 -4 8 -14t-2 -20q-20 -58 -10 -122q4 -10 13 -6t15 4q16 14 34 23t34 21l40 23t42 19l47 32t49 26l40 32 q2 8 12 14q6 0 11 -4t11 -8q0 -28 6 -57t6 -57q2 -6 6 -5t6 -3q8 -10 4 -20l-8 -20l4 -4q34 8 63 26t58 38t58 38t63 26q10 10 22 13t22 13q10 2 18 9t17 13t19 9t22 -7q4 0 8 -2t6 -6q-2 -8 1 -13t7 -11q-4 -16 0 -29t-4 -25q2 -26 0 -50t10 -46q-4 -14 5 -25t-1 -21 q2 -16 0 -29t8 -25q2 -10 3 -19t-5 -17q4 -22 5 -46t9 -46q-4 -8 -2 -16t2 -16q0 -76 11 -147t13 -147q0 -4 3 -9t-1 -9l-8 -8q-44 4 -98 -5t-96 -3q-112 4 -218 -8t-216 0q-50 -8 -97 -3t-95 9q-58 4 -119 3t-123 -1q-42 0 -100 -3t-100 -13q-8 -2 -18 -2q-8 0 -12 10 q0 32 -2 65zM324 216q4 -52 2 -109t2 -111q8 0 15 3t13 -1q12 4 23 -1t23 1q2 32 2 62q0 32 2 64q4 10 13 15t19 9q8 4 16 0t14 6l-2 56q-8 10 -19 9t-23 -1q-8 -8 -14 -8q-16 4 -15 19t-3 25q-4 8 8 20q20 6 39 9t39 7l12 8q-4 18 1 33t5 31q-24 4 -51 3t-53 -3 q-16 -2 -30 -5t-24 -11q-2 -32 -6 -65zM480 12q0 -14 10 -22t20 -12q10 10 16 4q16 -4 29 9t29 23q10 2 12 -2t2 -12q0 -6 -1 -14t5 -12q10 -4 16 0t16 4q8 4 16 5t14 7l2 78v0q-6 22 -6 44t1 44t-1 43t-14 39q-22 14 -46 24l-16 10q-16 -4 -33 -1t-33 -9q-14 -8 -14 -22 t-2 -30q10 -4 23 -3l25 2t23 -2t19 -15q-2 -8 3 -12t-1 -12q-6 -10 2 -16q4 -4 2 -10t-8 -8q-14 -4 -27 -3t-29 -3q-22 -10 -34 -31t-16 -43q-6 -10 -1 -21t-3 -21zM518 45q4 11 6 21q0 12 18 20q12 0 20 8q6 -2 15 -1t13 -9q0 -16 -9 -26t-19 -20q-8 -2 -16 -8t-18 0 q-14 4 -10 15zM642 1074q6 18 17 34t31 26l44 21t50 5q32 -2 63 -8t47 -34q6 -38 -14 -62q-22 -14 -40 -31t-44 -21q-12 4 -14 -7t-12 -3t-24 4t-26 -2q-12 0 -22 1t-20 5q-16 14 -31 31t-5 41zM710 -14q14 -8 31 -2t31 12q10 4 16 2t11 -8l10 -12t11 -10q16 0 26 2 q22 12 47 39t23 51q18 34 13 70t-13 76q2 6 -5 12t-16 10t-17 9t-12 7q-4 4 -10 4q-4 0 -6 -6q-22 2 -38 -8q-10 -6 -15 -16t-13 -14q-10 -6 -18 6q8 36 4 73t-10 75l-4 14h-16q-18 -6 -16 -22t-2 -28q-6 -34 -4 -68t-4 -68q4 -34 0 -66t0 -62q0 -18 -3 -35t-1 -37z M711 1070q15 -28 31 -54q4 -8 10 -6t14 0q14 -4 26 3t24 11q12 12 27 22t7 32q-4 22 -15 43t-37 25q-4 -10 -13 -7t-15 1q-14 6 -28 2t-24 -14q-22 -30 -7 -58zM782 96q4 16 5 33t11 31q14 8 20 22t22 14l6 -6q-4 -14 4 -20t10 -16q14 -28 8 -58t-26 -52q-4 -8 -11 -9 t-13 -5q-26 4 -29 26t-7 40zM956 1146q26 -2 51 2t53 0q6 -6 6 -14v-16t2 -14t10 -10q28 12 52 29t52 27q12 -8 28 -3t20 -15q4 -22 3 -43t1 -43q4 -6 3 -13t5 -11q18 -4 26 0q8 0 16 -2t18 -2q6 -4 0 -10l-6 -4q-24 0 -51 -1t-51 -9q-8 4 -15 5t-11 11q4 28 7 56t-5 56 q-4 6 -13 1t-15 -9q-28 -16 -53 -39t-29 -57q-8 -8 -18 -11t-20 1q-10 14 -6 30t0 32l-2 62q-6 6 -16 3t-20 1q-4 4 -13 2t-9 8zM974 218q0 -58 1 -111t7 -111l6 -8q10 -8 23 -3t23 1q-6 22 -1 41t-3 41q4 22 10 45t22 43q12 10 26 13t26 13q2 16 6 32t0 32q-16 -2 -33 -5 t-27 -21q-8 -8 -10 -23t-20 -11q-4 16 -4 28v30q-8 4 -15 0t-15 0q-14 -8 -22 -26zM1144 82q4 -20 1 -44t11 -44q30 0 60 10q4 6 4 12v14q0 40 -2 78t-2 74q0 14 2 27t-2 25q-14 10 -27 4t-29 -4q-14 -22 -10 -48t0 -52q-4 -10 -4 -24t-2 -28zM1158 358q-4 -18 6 -30 q4 -10 16 -11t22 3q18 12 14 38q-4 10 -9 18t-15 12q-4 4 -10 5t-10 -5q-10 -12 -14 -30zM1264 2h48q6 2 13 -2t11 2v26q0 14 -2 30q2 16 -4 33t14 23q10 -4 11 -13t7 -17q-2 -14 7 -24t13 -22q20 -12 30 -32t28 -34q6 2 11 -3t15 -1q12 0 12 12l-16 33t-20 31 q-12 22 -26 41t-18 45q-4 10 -10 17t-2 17q14 16 33 26t33 26l-18 34q-18 -2 -32 -9t-30 -11q-8 -4 -18 -12t-20 2q2 40 3 79t-1 77l-4 6q-16 0 -28 5t-26 9q-4 -22 -7 -47t1 -49q-6 -16 -1 -39t-3 -39q2 -30 1 -55t-3 -49t-2 -48t2 -54zM1312 1130q6 4 14 4t14 2 q18 -4 38 -2t38 2q8 6 9 15t1 19q6 14 7 32t11 28q10 6 16 -2t12 -12q10 -16 6 -35t4 -37q8 -12 21 -8t23 0q46 4 98 3t128 9q6 -4 8 -6q0 -8 -4 -8q-22 4 -42 1t-42 -5q-68 -4 -107 -6t-73 -8q-16 -14 -14 -32t-6 -34q0 -10 3 -16t5 -14q8 -10 28 -14q14 2 27 8t19 18 q0 14 -14 24q-10 8 -21 6t-19 8q6 10 19 8t25 -2q20 -6 30 -32q-2 -30 -36 -54q-10 -4 -21 -5t-21 -5q-24 6 -49 16t-41 32q-8 24 -2 45t8 43q-4 10 -12 8t-18 0l-66 -2q0 4 -2 4t-2 4z" />
<glyph unicode="&#xf6c9;" horiz-adv-x="960" d="M384 1524l324 180l58 -94l-344 -148z" />
<glyph unicode="&#xf6ca;" horiz-adv-x="960" d="M198 1644l36 60l248 -130l242 130l36 -60l-282 -182z" />
<glyph unicode="&#xf6cb;" horiz-adv-x="960" d="M212 1552q0 42 13 56t59 14t58 -14t12 -56q0 -40 -12 -53t-58 -13t-59 13t-13 53zM604 1552q0 46 13 58t59 12t59 -14t13 -56q0 -40 -14 -53t-58 -13q-46 0 -59 12t-13 54z" />
<glyph unicode="&#xf6ce;" horiz-adv-x="960" d="M198 1610l58 94l324 -180l-36 -62z" />
<glyph unicode="&#xf6cf;" horiz-adv-x="902" d="M110 1492l286 228l72 -72l-312 -198zM466 1498l306 206l66 -76l-332 -174z" />
<glyph unicode="&#xf6d0;" horiz-adv-x="624" d="M44 1510v88h528v-88h-528z" />
<glyph unicode="&#xf730;" d="M94 552q0 168 30 282t84 183t131 98t171 29q96 0 169 -27t123 -93t76 -178t26 -284q0 -300 -103 -438t-307 -138q-104 0 -180 26t-125 91t-72 174t-23 275zM216 566q0 -134 16 -226t50 -150t90 -84t136 -26q150 0 212 115t62 351q0 148 -18 245t-54 155t-89 81t-123 23 t-123 -24t-88 -80t-53 -149t-18 -231z" />
<glyph unicode="&#xf731;" d="M154 0v102h320v902l-288 -100l-26 76l340 148h96v-1026h286v-102h-728z" />
<glyph unicode="&#xf732;" d="M124 0v84q184 156 299 262t179 184t87 140t23 132q0 68 -21 114t-57 75t-82 41t-98 12q-64 0 -127 -12t-155 -40l-22 84l89 29t82 21t84 12t97 4q68 0 130 -18t109 -57t75 -101t28 -148t-28 -160t-94 -153t-174 -175t-270 -228h600v-102h-754z" />
<glyph unicode="&#xf733;" d="M72 -148l16 76q108 -24 194 -37t154 -13q156 0 219 69t63 221q0 136 -66 213t-232 77h-136v96h130q262 0 262 266q0 106 -53 166t-197 60q-30 0 -68 -4t-77 -10t-75 -15t-64 -19l-20 82q52 20 143 41t205 21q88 0 151 -24t104 -65t61 -96t20 -117q0 -144 -62 -223 t-152 -99q64 -2 113 -32t82 -76t49 -105t16 -121q0 -210 -98 -308t-314 -98q-140 0 -368 74z" />
<glyph unicode="&#xf734;" d="M62 106v90l130 249l134 245l134 231l126 207h168v-916h174v-106h-174v-314h-118v314h-574zM172 212h464v822l-225 -377t-239 -445z" />
<glyph unicode="&#xf735;" d="M78 -154l12 74q104 -20 193 -33t161 -13q142 0 215 66t73 236q0 148 -76 236t-242 88q-68 0 -134 -7t-138 -23l44 658h582v-104h-488l-30 -442q38 8 93 11t111 3q200 0 303 -108t103 -290q0 -216 -101 -318t-325 -102q-70 0 -158 17t-198 51z" />
<glyph unicode="&#xf736;" d="M134 618q0 226 36 371t98 228t142 115t170 32q62 0 129 -14t157 -42l-16 -78q-64 16 -131 28t-133 12q-152 0 -240 -145t-90 -453q86 48 159 74t157 26q150 0 237 -93t87 -263q0 -202 -104 -316t-274 -114q-94 0 -166 28t-120 100t-73 194t-25 310zM258 574 q0 -258 66 -376t204 -118q122 0 184 82t62 226q0 142 -59 215t-191 73q-56 0 -118 -21t-148 -73v-8z" />
<glyph unicode="&#xf737;" d="M96 1024v104h816v-88l-294 -618l-76 -157l-86 -171l-87 -167l-81 -147l-78 30l558 1214h-672z" />
<glyph unicode="&#xf738;" d="M98 302q0 68 22 123t63 102t93 87t116 76q-128 70 -196 154t-68 196q0 70 26 130t75 103t121 67t164 24q102 0 170 -25t109 -65t60 -96t19 -116q0 -114 -68 -195t-212 -159q82 -42 140 -82t96 -85t56 -98t18 -119q0 -70 -26 -132t-77 -108t-130 -72t-185 -26 q-186 0 -286 85t-100 231zM220 324q0 -116 74 -181t218 -65q122 0 195 65t73 159q0 112 -74 188t-226 152q-132 -76 -196 -151t-64 -167zM250 1060q0 -96 61 -166t189 -140q134 74 192 140t58 156q0 102 -61 163t-191 61q-112 0 -180 -59t-68 -155z" />
<glyph unicode="&#xf739;" d="M104 712q0 198 103 314t275 116q94 0 166 -28t120 -100t73 -194t25 -308q0 -228 -38 -371t-101 -224t-145 -110t-172 -29q-62 0 -131 13t-169 45l12 78q78 -20 147 -31t133 -11q78 0 140 33t107 104t70 182t25 267q-86 -50 -159 -75t-157 -25q-150 0 -237 93t-87 261z M226 740q0 -140 59 -213t191 -73q56 0 118 20t148 72v8q0 260 -65 378t-205 118q-122 0 -184 -83t-62 -227z" />
<glyph unicode="&#xf8ff;" horiz-adv-x="2000" d="M90 746q-6 62 0 122l242 -18q-2 -22 -1 -44t1 -44zM314 1408q42 48 84 84l162 -182q-36 -28 -64 -62zM464 806q0 112 42 209t115 170t171 115t210 42q110 0 207 -42t170 -115t115 -170t42 -209q0 -114 -42 -210t-106 -160v-170l-36 -10l70 -162l-66 -18l66 -156l-68 -18 l24 -56l-66 -148h-114q-6 -44 -62 -71t-134 -27q-82 0 -137 28t-61 70h-114l-112 268l68 20l-68 164l74 18l-40 100v170q-64 68 -106 163t-42 205zM580 806q0 -92 39 -176t109 -142h128l-36 296q-20 -4 -43 -12l-39 -14t-25 9t-10 36t3 40t16 21q62 20 135 32t145 12 q74 0 146 -12t136 -32q10 -2 14 -21t2 -40t-10 -36t-24 -9l-41 14t-45 12l-34 -296h128q60 52 103 133t43 185q0 88 -33 164t-90 133t-133 90t-162 33t-163 -33t-135 -90t-91 -133t-33 -164zM718 96l36 -84l528 134l-36 86zM720 -86l54 -134h454l30 70l-14 28l-162 -42 l-28 76l228 58l-32 80zM726 276l34 -82l514 132v68h-548v-118zM904 800l32 -312h130l30 312v0q-22 2 -44 3t-44 1h-56q-26 0 -48 -4zM940 1718q62 4 120 0l-16 -244q-44 6 -88 0zM976 850h4v2h-2v8h-2v-10zM982 852q0 -4 3 -3t3 3v6h-2v-6q0 -2 -2 -2v2v6h-2v-6zM991 853 q1 -7 5 -3v2q-4 -2 -4 2q0 6 4 2v2q-6 2 -5 -5zM1000 848h2v0q-2 8 0 14h-2q-2 -6 0 -14zM1004 852q0 -4 2 -3t2 3v-2h2v6q0 6 -6 2v-2q4 2 4 0q-4 0 -4 -4zM1006 852v0q0 2 2 2q0 -2 -1 -3t-1 1zM1012 850q10 -2 4 3t0 3v2q-10 2 -4 -3t0 -3v-2zM1018 848h2v0q2 8 0 14h-2 q2 -6 0 -14zM1440 1310l162 182q46 -38 84 -84l-182 -160q-16 18 -32 33zM1668 762q4 48 0 88l242 18q6 -62 0 -122z" />
<glyph unicode="&#xfb00;" horiz-adv-x="1138" d="M34 900v86h174v154q0 64 14.5 116t44 88.5t74 56t103.5 19.5q57 0 106 -15t84 -35l-30 -72q-27 12 -63 21t-69 9q-78 0 -113 -44t-35 -136v-162h440v168q0 64 14.5 115.5t44.5 87.5t75 55.5t106 19.5q59 0 112 -17.5t88 -38.5l-30 -72q-33 17 -71 27.5t-71 10.5 q-81 0 -116.5 -44.5t-35.5 -135.5v-176h236v-86h-236v-900h-116v900h-440v-900h-116v900h-174z" />
<glyph unicode="&#xfb01;" horiz-adv-x="1076" d="M34 900v86h174v168q0 128 59 203t181 75q56 0 108 -17t86 -35l-30 -74q-32 16 -68 26t-70 10q-80 0 -115 -44t-35 -136v-176h568v-986h-116v900h-452v-900h-116v900h-174zM758 1282q0 46 15 59t63 13q50 0 62 -13t12 -59t-12 -60t-62 -14q-52 0 -65 14t-13 60z" />
<glyph unicode="&#xfb02;" horiz-adv-x="1116" d="M34 900v86h174v94q0 186 90 269t272 83q54 0 111 -4t97 -10h114v-1192q0 -92 15 -120t65 -28q16 0 34 1t32 1l6 -76v0q-22 -6 -56 -11t-58 -5q-42 0 -71 8t-47 29t-27 59t-9 98v1136l-45 9t-50 8t-49 5t-42 2q-68 0 -118 -10t-83 -38t-49 -77t-16 -127v-104h234v-86h-234 v-900h-116v900h-174z" />
<glyph unicode="&#xfb03;" horiz-adv-x="1620" d="M34 900v86h174v154q0 64 14.5 116t44 88.5t74 56t103.5 19.5q57 0 106 -15t84 -35l-30 -72q-27 12 -63 21t-69 9q-78 0 -113 -44t-35 -136v-162h440v168q0 64 14.5 115.5t44 87.5t74 55.5t103.5 19.5q56 0 104 -14.5t80 -31.5l-28 -76q-26 12 -60.5 22t-69.5 10 q-77 0 -111.5 -44.5t-34.5 -135.5v-176h556v-986h-116v900h-440v-900h-116v900h-440v-900h-116v900h-174zM1302 1280q0 23 3 37.5t11.5 22.5t23.5 11t40 3q24 0 38.5 -3t22.5 -11t10.5 -22.5t2.5 -37.5t-2.5 -37t-10.5 -22.5t-22.5 -11.5t-38.5 -3q-25 0 -40 3t-23.5 11.5 t-11.5 22.5t-3 37z" />
<glyph unicode="&#xfb04;" horiz-adv-x="1660" d="M34 900v86h174v154q0 64 14.5 116t44 88.5t74 56t103.5 19.5q57 0 106 -15t84 -35l-30 -72q-27 12 -63 21t-69 9q-78 0 -113 -44t-35 -136v-162h440v94q0 73 14 137.5t51.5 112t104.5 75t174 27.5q28 0 58 -1t58.5 -3t54 -4.5t45.5 -5.5h112v-1192q0 -47 3 -75.5 t11.5 -45t24 -22t41.5 -5.5q17 0 34.5 1t29.5 3l8 -78q-24 -6 -57 -11t-57 -5q-41 0 -70.5 7.5t-48 28.5t-27 59t-8.5 99v1142q-44 8 -94.5 13t-95.5 5q-68 0 -115.5 -14t-77.5 -44.5t-43.5 -79t-13.5 -118.5v-100h216v-86h-216v-900h-116v900h-440v-900h-116v900h-174z" />
</font>
</defs>
</svg>
